<?xml version="1.0" encoding="UTF-8" standalone="no"?>
<!-- Created with Inkscape (http://www.inkscape.org/) -->

<svg
   width="89.195679mm"
   height="102.52698mm"
   viewBox="0 0 89.195679 102.52698"
   version="1.1"
   id="svg3298"
   inkscape:version="1.2 (dc2aedaf03, 2022-05-15)"
   sodipodi:docname="emotional-health.svg"
   xml:space="preserve"
   xmlns:inkscape="http://www.inkscape.org/namespaces/inkscape"
   xmlns:sodipodi="http://sodipodi.sourceforge.net/DTD/sodipodi-0.dtd"
   xmlns="http://www.w3.org/2000/svg"
   xmlns:svg="http://www.w3.org/2000/svg"><sodipodi:namedview
     id="namedview3300"
     pagecolor="#505050"
     bordercolor="#ffffff"
     borderopacity="1"
     inkscape:pageshadow="0"
     inkscape:pageopacity="0"
     inkscape:pagecheckerboard="1"
     inkscape:document-units="mm"
     showgrid="false"
     inkscape:zoom="0.82482258"
     inkscape:cx="-20.004302"
     inkscape:cy="370.38268"
     inkscape:window-width="1920"
     inkscape:window-height="1051"
     inkscape:window-x="-9"
     inkscape:window-y="-9"
     inkscape:window-maximized="1"
     inkscape:current-layer="layer1"
     showguides="true"
     inkscape:guide-bbox="true"
     inkscape:snap-global="false"
     inkscape:snap-bbox="true"
     inkscape:snap-bbox-edge-midpoints="false"
     inkscape:showpageshadow="2"
     inkscape:deskcolor="#505050"><sodipodi:guide
       position="3402.4349,-1764.9733"
       orientation="1,0"
       id="guide34946"
       inkscape:locked="false" /></sodipodi:namedview><defs
     id="defs3295" /><g
     inkscape:label="Layer 1"
     inkscape:groupmode="layer"
     id="layer1"
     transform="translate(1593.5785,-1739.154)"><g
       id="path95067"><path
         style="color:#000000;fill:#008080;stroke-width:3.84867;-inkscape-stroke:none"
         d="m -1519.6489,1809.5789 c 8.1791,-7.1679 13.3417,-17.6616 13.3417,-29.3684 0,-21.6051 -17.5864,-39.1322 -39.2909,-39.1322 -16.9321,0 -31.3637,10.6845 -36.8702,25.6612 -0.6996,1.9209 -0.1266,4.0895 1.3878,5.4716 0.425,0.3929 0.6542,0.9323 0.6542,1.4828 0,0.3936 -0.1144,0.7978 -0.3672,1.1574 l -10.5768,14.5606 c -0.8262,1.1233 -0.023,2.7078 1.3882,2.7078 h 3.4068 c 0,0 1.3882,2.7524 0.4132,7.0667 -0.1827,0.8315 0.2981,1.674 1.1127,1.9548 l 0.9866,0.3145 c 1.1931,0.3934 1.56,1.9213 0.6655,2.8091 -0.7344,0.7301 -0.6196,2.0331 0.2522,2.5952 1.1817,0.7752 1.2619,2.5392 0.1717,3.404 -1.3423,1.1125 -2.1109,2.8428 -1.8356,4.7304 0.3787,2.5615 2.7646,4.3478 5.3574,4.3478 h 9.9576 c 3.7626,0 6.8252,3.0448 6.8252,6.7971 v 11.9095 c 0,0.9436 0.7689,1.7077 1.698,1.7077 h 40.977 c 0.9751,0 1.7667,-0.8203 1.7094,-1.7866 0,0 -1.3651,-28.391 -1.3651,-28.391"
         id="path1952" /><path
         style="color:#000000;fill:#000000;-inkscape-stroke:none"
         d="m -1545.5977,1739.1543 c -17.7416,0 -32.8977,11.2013 -38.6777,26.9219 v 0 0 c -0.9746,2.6759 -0.1758,5.6579 1.9003,7.5527 l -0.01,-0.01 c 0.034,0.031 0.035,0.052 0.035,0.068 0,0.021 0,0.023 -0.016,0.051 l -10.5527,14.5274 c -1.6907,2.2986 0.086,5.7734 2.9375,5.7734 h 2.0078 c 0.2559,0.9044 0.481,2.303 -0.064,4.7168 v 0.01 0.01 c -0.393,1.7888 0.65,3.5963 2.3652,4.1875 l 0.022,0.01 0.7148,0.2265 c -1.3426,1.6271 -1.0891,4.0942 0.752,5.2813 l -0.014,-0.01 c 0.096,0.063 0.087,0.2426 0.031,0.2871 l -0.016,0.014 -0.016,0.014 c -1.8192,1.5078 -2.885,3.9284 -2.5117,6.4883 v 0 0 c 0.5308,3.5903 3.7851,5.9902 7.2617,5.9902 h 9.9571 c 2.7244,0 4.9003,2.1679 4.9003,4.8731 v 11.9101 c 0,1.989 1.6389,3.6328 3.6231,3.6328 h 40.9766 c 2.0543,0 3.7539,-1.7502 3.6308,-3.8261 l -1.3242,-27.5762 c 8.1369,-7.4939 13.3047,-18.1618 13.3047,-30.0684 0,-22.6493 -18.4744,-41.0566 -41.2149,-41.0566 z m 0,3.8477 c 20.6685,0 37.3653,16.6481 37.3653,37.2089 0,11.1411 -4.9047,21.1011 -12.6856,27.92 0.1342,5.0455 0.2615,20.5669 0.7012,29.7013 h -40.5273 v -11.6933 c 0,-4.7994 -3.9493,-8.7207 -8.75,-8.7207 h -9.9571 c -1.7073,0 -3.2242,-1.1706 -3.4531,-2.7012 -0.1772,-1.2153 0.2928,-2.2535 1.1582,-2.9707 l -0.031,0.025 c 2.0574,-1.6321 1.9196,-4.7909 -0.1485,-6.3418 1.6454,-1.8789 0.8756,-5.0059 -1.5351,-5.8008 h -0.01 l -0.789,-0.25 c 0.9865,-4.7351 -0.5996,-8.1211 -0.5996,-8.1211 l -0.5332,-1.0586 h -4.1699 l 10.332,-14.2246 0.01,-0.014 c 0.4859,-0.6911 0.7168,-1.4972 0.7168,-2.2636 0,-1.0847 -0.455,-2.1398 -1.2714,-2.8946 l -0.01,-0.01 v 0 c -0.9521,-0.869 -1.3005,-2.2233 -0.877,-3.3887 3e-4,-6e-4 -2e-4,0 0,0 5.2346,-14.2297 18.9422,-24.3964 35.0625,-24.3964 z"
         id="path1954"
         sodipodi:nodetypes="cscsccsccsccccccccccccscsssssssccscccscccsssccccccccccccsccscccc" /></g><path
       fill="#d39a84"
       d="m -1521.5601,1769.9972 c 0,4.8202 -1.8929,9.2807 -5.1281,12.9095 v 9.213 c 0,2.82 -2.2836,5.1005 -5.1279,5.1005 -2.8339,0 -5.1163,-2.2805 -5.1163,-5.1005 v -2.2249 c -3.6022,1.4265 -7.6629,2.2249 -11.9535,2.2249 -15.0968,0 -27.3258,-9.8986 -27.3258,-22.1225 0,-12.2123 12.229,-22.1096 27.3258,-22.1096 15.0966,0 27.3258,9.8973 27.3258,22.1096"
       fill-opacity="1"
       fill-rule="nonzero"
       id="path95069"
       style="fill:#73f140;fill-opacity:1;stroke-width:2.90631"
       inkscape:export-filename="/home/joshuadesir/Documents/Projects/Graphics/Brand Kits/Nature's Secret/Product Labels/Sea Moss/g330238.png"
       inkscape:export-xdpi="304.5"
       inkscape:export-ydpi="304.5" /><path
       fill="#cc3c61"
       d="m -1533.5146,1766.6049 c 0,2.168 -0.8239,4.3479 -2.4772,6.0106 l -12.1951,12.3695 c -0.4161,0.4239 -1.0894,0.4239 -1.5024,0 l -12.0224,-12.1895 c -3.2693,-3.3037 -3.4416,-8.8982 -0.1907,-12.2017 1.6409,-1.6738 3.7968,-2.5052 5.9538,-2.5052 2.1454,0 4.2907,0.8314 5.9422,2.4935 l 1.0672,1.0903 1.0782,-1.0903 c 3.2804,-3.3256 8.5925,-3.3256 11.8734,0 1.6514,1.6634 2.4774,3.8425 2.4774,6.0228"
       fill-opacity="1"
       fill-rule="nonzero"
       id="path95071"
       style="fill:#da3e17;fill-opacity:1;stroke-width:2.90631"
       inkscape:export-filename="/home/joshuadesir/Documents/Projects/Graphics/Brand Kits/Nature's Secret/Product Labels/Sea Moss/g330238.png"
       inkscape:export-xdpi="304.5"
       inkscape:export-ydpi="304.5" /><path
       fill="#d39a84"
       d="m -1525.9622,1813.7919 c -1.4911,1.1682 -3.0858,2.2248 -4.761,3.1794 -0.2747,0.1556 -0.5659,0.2279 -0.8373,0.2279 -0.5993,0 -1.1813,-0.3178 -1.491,-0.8651 -0.4661,-0.8201 -0.1829,-1.8539 0.6411,-2.3146 2.2485,-1.2808 4.3479,-2.775 6.241,-4.4603 0,0 0.083,-0.081 0.09,-0.081 0,0 -0.083,0.081 -0.09,0.09 l 0.209,4.2127"
       fill-opacity="1"
       fill-rule="nonzero"
       id="path95073"
       style="fill:#000000;fill-opacity:1;stroke-width:2.90631"
       inkscape:export-filename="/home/joshuadesir/Documents/Projects/Graphics/Brand Kits/Nature's Secret/Product Labels/Sea Moss/g330238.png"
       inkscape:export-xdpi="304.5"
       inkscape:export-ydpi="304.5" /><path
       fill="#d39a84"
       d="m -1545.7858,1815.2393 -1.6173,1.6176 c -2.5465,2.5397 -6.0679,3.977 -9.6702,3.977 h -13.0438 c -1.1814,-2.0333 -3.384,-3.3924 -5.9078,-3.3924 h 18.9516 c 2.6957,0 5.3453,-1.0901 7.2383,-3.0003 l 1.6294,-1.6175 c 0.6657,-0.6523 1.7547,-0.6523 2.4198,0 0.666,0.6603 0.666,1.7527 0,2.4156"
       fill-opacity="1"
       fill-rule="nonzero"
       id="path95075"
       style="fill:#000000;fill-opacity:1;stroke-width:2.90631"
       inkscape:export-filename="/home/joshuadesir/Documents/Projects/Graphics/Brand Kits/Nature's Secret/Product Labels/Sea Moss/g330238.png"
       inkscape:export-xdpi="304.5"
       inkscape:export-ydpi="304.5" /></g></svg>
