<?xml version="1.0" encoding="UTF-8" standalone="no"?>
<!-- Created with Inkscape (http://www.inkscape.org/) -->

<svg
   width="43.29248mm"
   height="87.825684mm"
   viewBox="0 0 43.29248 87.825684"
   version="1.1"
   id="svg3298"
   inkscape:version="1.2 (dc2aedaf03, 2022-05-15)"
   sodipodi:docname="bone-stregnth.svg"
   xml:space="preserve"
   xmlns:inkscape="http://www.inkscape.org/namespaces/inkscape"
   xmlns:sodipodi="http://sodipodi.sourceforge.net/DTD/sodipodi-0.dtd"
   xmlns="http://www.w3.org/2000/svg"
   xmlns:svg="http://www.w3.org/2000/svg"><sodipodi:namedview
     id="namedview3300"
     pagecolor="#505050"
     bordercolor="#ffffff"
     borderopacity="1"
     inkscape:pageshadow="0"
     inkscape:pageopacity="0"
     inkscape:pagecheckerboard="1"
     inkscape:document-units="mm"
     showgrid="false"
     inkscape:zoom="0.64"
     inkscape:cx="119.53125"
     inkscape:cy="263.28125"
     inkscape:window-width="1920"
     inkscape:window-height="1051"
     inkscape:window-x="-9"
     inkscape:window-y="-9"
     inkscape:window-maximized="1"
     inkscape:current-layer="layer1"
     showguides="true"
     inkscape:guide-bbox="true"
     inkscape:snap-global="false"
     inkscape:snap-bbox="true"
     inkscape:snap-bbox-edge-midpoints="false"
     inkscape:showpageshadow="2"
     inkscape:deskcolor="#505050"><sodipodi:guide
       position="3380.2118,-1895.6387"
       orientation="1,0"
       id="guide34946"
       inkscape:locked="false" /></sodipodi:namedview><defs
     id="defs3295" /><g
     inkscape:label="Layer 1"
     inkscape:groupmode="layer"
     id="layer1"
     transform="translate(1571.3556,-1623.1899)"><g
       id="g95011"
       transform="matrix(0.88867991,0,0,0.88867991,1799.9447,-3619.476)"
       style="fill:#fcee31;fill-opacity:1;stroke:#000000;stroke-width:3.87921;stroke-dasharray:none;stroke-opacity:1"><g
         id="g95009"
         style="fill:#fcee31;fill-opacity:1;stroke:#000000;stroke-width:3.87921;stroke-dasharray:none;stroke-opacity:1"><path
           id="path95007"
           style="fill:#fcee31;fill-opacity:1;stroke:#000000;stroke-width:3.87921;stroke-linecap:butt;stroke-linejoin:miter;stroke-miterlimit:4;stroke-dasharray:none;stroke-opacity:1"
           d="m -3780.9124,5901.326 c -0.7877,0 -1.6164,0.075 -2.4705,0.2814 -4.5547,1.1111 -6.7977,5.5279 -7.3267,6.9157 -0.5488,1.4331 -1.4929,6.4383 -0.5347,9.53 0.9019,2.9093 4.8937,5.9663 7.9077,7.4373 2.1078,1.0273 2.9929,4.1792 3.3347,5.985 0.069,5.1289 0.1413,22.6912 -0.7077,37.2135 -0.5347,1.4055 -1.3571,2.8005 -2.6285,3.4203 -3.0138,1.4702 -7.5966,4.4124 -7.9077,7.4371 -0.3096,3.0255 0.4152,8.0535 0.5349,9.5294 0.1177,1.4755 2.772,5.8046 7.3263,6.9163 0.8543,0.212 1.6823,0.288 2.4712,0.2811 3.4167,0 6.0853,-1.7279 6.8507,-2.111 0.7396,-0.3709 2.6209,-0.919 4.5315,-1.1451 1.8476,0.1649 3.7456,0.7785 4.4781,1.1451 0.7654,0.3773 3.434,2.083 6.8503,2.111 0.7886,0 1.6168,-0.075 2.4707,-0.2811 4.5548,-1.1117 6.7069,-5.565 7.3266,-6.9163 0.7276,-1.5862 1.6048,-6.6418 0.5349,-9.5294 -1.0589,-2.8585 -4.894,-5.9669 -7.9077,-7.4371 -1.2714,-0.6179 -2.0973,-2.014 -2.6285,-3.4203 -0.8413,-14.3446 -0.7627,-31.7566 -0.7148,-37.1822 0.3377,-1.8007 1.2207,-4.9821 3.3409,-6.0163 3.0142,-1.471 6.5558,-4.6991 7.9079,-7.4373 1.4942,-3.0255 1.1257,-4.7584 0.7936,-6.2347 -0.12,-1.4758 -4.1002,-9.0999 -8.6556,-10.211 -0.8542,-0.212 -1.6822,-0.2882 -2.4701,-0.2814 -3.4163,0 -6.0849,1.7282 -6.8504,2.1113 -0.7323,0.3638 -2.6304,0.9813 -4.4779,1.1449 -1.911,-0.2257 -3.792,-0.7743 -4.5316,-1.1449 -0.7653,-0.3775 -3.4338,-2.0832 -6.8508,-2.1113 z"
           sodipodi:nodetypes="ccsssccsssccsccscsssccsscccscccc"
           inkscape:export-filename="/home/joshuadesir/Documents/Projects/Graphics/Brand Kits/Nature's Secret/Product Labels/Sea Moss/g330238.png"
           inkscape:export-xdpi="304.5"
           inkscape:export-ydpi="304.5" /></g></g></g></svg>
