<svg width="474" height="501" viewBox="0 0 474 501" fill="none" xmlns="http://www.w3.org/2000/svg">
<g id="Layer 3">
<g id="Group">
<path id="path25348" d="M454.89 3.41014C454.72 3.41014 454.48 3.34014 454.25 3.41014C453.95 3.48014 452.7 3.87014 450.87 4.51014C449.04 5.14014 446.67 5.98014 444.2 6.90014C440.49 8.28014 436.75 9.64014 432.57 11.0801C428.39 12.5201 423.8 14.1001 418.39 15.8501C412.98 17.6001 406.78 19.6101 399.38 21.9201C391.97 24.2301 383.38 26.8801 373.21 29.9901C362.25 33.3401 352.72 36.3501 345.9 38.5301C342.49 39.6201 339.78 40.4401 337.86 41.0901C335.94 41.7401 334.83 42.1501 334.71 42.2601C334.64 42.3301 334.64 42.4401 334.71 42.4801C334.71 42.5501 334.8 42.5601 334.9 42.5801C335.11 42.6501 335.53 42.6801 336.13 42.6501C337.32 42.5801 339.27 42.4301 342.12 42.0501C344.7 41.7001 347.63 41.3301 350.81 40.9701C353.98 40.6101 357.38 40.1901 360.87 39.8401C364.36 39.4801 367.95 39.1401 371.49 38.8301C375.03 38.5201 378.54 38.2401 381.85 37.9801C384.29 37.7901 386.08 37.6501 387.41 37.5601C388.74 37.4801 389.57 37.4401 390.14 37.4801C390.43 37.4801 390.61 37.5501 390.76 37.5801C390.92 37.6501 391.03 37.7101 391.11 37.8101C391.27 38.0101 391.36 38.2601 391.46 38.6601C391.59 39.1101 391.71 39.5201 391.76 39.8101C391.83 40.1001 391.76 40.3201 391.76 40.4901C391.76 40.6601 391.69 40.8001 391.61 40.9201C391.5 41.0301 391.35 41.1301 391.15 41.2301C390.78 41.4201 389.99 41.6801 388.73 42.0201C387.47 42.3501 385.72 42.7201 383.47 43.2201C378.97 44.2201 372.43 45.5601 363.43 47.3401C354.29 49.1501 345.91 50.8601 338.16 52.5101C330.42 54.1701 323.3 55.8201 316.67 57.3901C313.35 58.1801 310.17 58.9201 307.08 59.7001C303.99 60.4801 301 61.2901 298.09 62.0701C295.19 62.8501 292.37 63.6301 289.62 64.4201C286.87 65.2101 284.18 66.0001 281.55 66.8101C280.57 67.1101 279.77 67.3601 279.07 67.6101C278.37 67.8601 277.76 68.1101 277.18 68.3801C276.6 68.6501 276.04 68.9601 275.42 69.3301C274.8 69.7001 274.12 70.1501 273.31 70.6901C271.64 71.8101 270.01 72.9401 268.43 74.0801C266.85 75.2201 265.31 76.3701 263.83 77.5301C262.34 78.6901 260.9 79.8601 259.5 81.0401C258.1 82.2201 256.75 83.4001 255.44 84.6001C254.13 85.8001 252.86 87.0101 251.65 88.2301C250.43 89.4501 249.25 90.6801 248.12 91.9201C246.99 93.1601 245.9 94.4101 244.86 95.6801C243.82 96.9401 242.82 98.2201 241.86 99.5101C240.91 100.8 239.99 102.1 239.12 103.41C238.25 104.72 237.43 106.04 236.65 107.38C235.87 108.72 235.13 110.07 234.43 111.43C233.73 112.79 233.08 114.17 232.47 115.55C231.86 116.94 231.29 118.34 230.76 119.75C230.23 121.16 229.75 122.59 229.31 124.03C228.87 125.47 228.47 126.93 228.12 128.4C227.77 129.87 227.45 131.36 227.18 132.85C226.99 133.93 226.81 135.01 226.66 136.11C226.51 137.21 226.37 138.31 226.26 139.43C226.15 140.55 226.07 141.68 225.99 142.82C225.92 143.96 225.88 145.11 225.86 146.28C225.86 147.44 225.86 148.62 225.86 149.81C225.86 151 225.93 152.21 225.99 153.42C226.12 155.85 226.33 158.33 226.64 160.88C226.95 163.42 227.34 166.02 227.82 168.68C228.3 171.34 228.87 174.06 229.53 176.85C230.19 179.64 230.94 182.49 231.78 185.41C232.62 188.33 233.55 191.33 234.57 194.4C235.57 197.4 236.55 200.23 237.62 203.18C238.7 206.14 239.88 209.22 241.27 212.72C242.67 216.22 244.29 220.15 246.25 224.8C248.21 229.45 250.5 234.82 253.25 241.21C255.91 247.38 258.12 252.56 260.02 257.06C261.92 261.56 263.49 265.36 264.87 268.76C266.24 272.16 267.41 275.16 268.5 278.05C269.58 280.94 270.58 283.71 271.6 286.65C272.25 288.51 272.86 290.33 273.44 292.14C274.03 293.94 274.57 295.72 275.1 297.47C275.62 299.22 276.12 300.95 276.58 302.66C277.04 304.37 277.48 306.06 277.89 307.74C278.3 309.41 278.67 311.07 279.02 312.72C279.37 314.36 279.7 316 279.99 317.62C280.28 319.24 280.56 320.85 280.8 322.46C281.05 324.07 281.26 325.67 281.45 327.27C281.63 328.79 281.77 330.75 281.88 332.91C281.99 335.07 282.04 337.44 282.05 339.77C282.05 342.11 282.05 344.41 281.96 346.46C281.89 348.51 281.77 350.3 281.61 351.59C281.34 353.7 281.02 355.76 280.64 357.78C280.26 359.8 279.83 361.77 279.34 363.69C278.85 365.61 278.3 367.49 277.7 369.33C277.09 371.17 276.44 372.96 275.72 374.71C275 376.46 274.22 378.18 273.38 379.85C272.54 381.53 271.64 383.16 270.68 384.76C269.72 386.36 268.71 387.93 267.63 389.46C266.55 390.99 265.41 392.49 264.2 393.95C263.03 395.37 261.8 396.79 260.5 398.2C259.2 399.61 257.83 401.02 256.4 402.42C254.97 403.82 253.47 405.21 251.9 406.6C250.34 407.99 248.71 409.37 247.02 410.74C245.33 412.11 243.57 413.48 241.75 414.84C239.93 416.2 238.04 417.55 236.1 418.9C234.15 420.25 232.14 421.58 230.06 422.91C227.98 424.24 225.85 425.56 223.65 426.88C221.45 428.19 219.19 429.5 216.86 430.79C214.54 432.09 212.15 433.38 209.7 434.66C207.25 435.94 204.75 437.21 202.18 438.47C199.61 439.73 196.99 440.98 194.3 442.23C191.61 443.47 188.87 444.71 186.06 445.93C183.25 447.15 180.39 448.36 177.47 449.56C174.55 450.76 171.57 451.95 168.53 453.13C165.49 454.31 162.39 455.48 159.24 456.64C156.7 457.57 153.64 458.66 150.3 459.8C146.97 460.95 143.36 462.16 139.75 463.35C136.14 464.54 132.52 465.71 129.16 466.78C125.79 467.84 122.68 468.8 120.08 469.56C118.5 470.03 116.83 470.57 115.22 471.14C113.61 471.71 112.07 472.3 110.72 472.86C109.37 473.42 108.22 473.94 107.4 474.36C106.99 474.58 106.67 474.76 106.45 474.93C106.23 475.09 106.11 475.22 106.11 475.31C106.11 475.41 106.41 475.73 106.9 476.18C107.38 476.63 108.05 477.2 108.79 477.79C109.63 478.47 110.5 479.12 111.38 479.76C112.26 480.4 113.16 481.03 114.09 481.64C115.01 482.25 115.95 482.84 116.91 483.42C117.87 484 118.85 484.56 119.83 485.1C120.82 485.64 121.8 486.21 122.83 486.72C123.85 487.23 124.9 487.72 125.96 488.2C127.02 488.67 128.09 489.14 129.17 489.58C130.25 490.02 131.36 490.44 132.47 490.85C133.58 491.25 134.7 491.65 135.84 492.02C136.98 492.39 138.14 492.73 139.3 493.06C141.62 493.72 143.99 494.29 146.4 494.8C148.81 495.3 151.25 495.73 153.73 496.08C156.21 496.43 158.72 496.71 161.26 496.89C162.49 496.98 164.33 497 166.46 497C168.59 497 171.02 497 173.48 496.92C175.94 496.84 178.43 496.7 180.65 496.56C182.87 496.42 184.86 496.29 186.27 496.11H186.6C189.05 495.72 191.99 495.28 194.88 494.77C197.77 494.26 200.66 493.68 203.6 493.02C206.54 492.35 209.56 491.61 212.55 490.79C215.54 489.97 218.48 489.04 221.51 488.06C224.54 487.08 227.62 486 230.71 484.86C233.79 483.72 236.93 482.49 240.06 481.19C243.19 479.89 246.32 478.53 249.5 477.08C252.68 475.62 255.89 474.08 259.11 472.47C262.34 470.86 265.64 469.21 268.92 467.44C272.2 465.67 275.5 463.84 278.83 461.91C282.15 459.98 285.5 457.95 288.87 455.86C292.24 453.77 295.64 451.58 299.06 449.34C302.48 447.09 305.92 444.77 309.39 442.36C312.86 439.96 316.35 437.48 319.86 434.91C323.38 432.35 326.87 429.65 330.44 426.93C334.01 424.21 337.66 421.47 341.28 418.59C344.86 415.74 348.16 413.08 351.23 410.46C352.77 409.15 354.29 407.86 355.74 406.57C357.19 405.28 358.58 404 359.96 402.71C361.33 401.43 362.63 400.1 363.95 398.8C365.28 397.5 366.58 396.19 367.88 394.86C370.48 392.19 373.03 389.44 375.66 386.51C377.77 384.15 379.86 381.73 381.91 379.26C383.96 376.79 386.29 374.5 388.27 371.93C390.26 369.36 392.14 366.67 394.06 364.01C395.98 361.34 397.9 358.64 399.75 355.88C401.6 353.12 403.35 350.25 405.14 347.38C406.93 344.52 408.68 341.61 410.4 338.65C412.12 335.69 413.75 332.64 415.4 329.59C417.05 326.54 418.57 323.39 420.15 320.25C421.73 317.11 423.28 313.92 424.8 310.68C426.31 307.45 427.8 304.16 429.24 300.84C430.68 297.52 432.09 294.15 433.47 290.73C434.84 287.32 436.09 283.79 437.4 280.29C438.7 276.79 439.97 273.25 441.2 269.66C442.43 266.07 443.62 262.44 444.78 258.77C445.94 255.1 447.07 251.39 448.16 247.63C449.24 243.88 450.29 240.05 451.3 236.22C452.22 232.71 453.11 229.19 453.97 225.61C454.83 222.03 455.64 218.41 456.43 214.77C457.22 211.13 457.98 207.47 458.7 203.77C459.42 200.08 460.11 196.36 460.77 192.62C461.42 188.89 462.05 185.1 462.63 181.34C463.21 177.57 463.74 173.83 464.25 170.04C464.76 166.25 465.41 162.51 465.85 158.71C466.29 154.91 466.59 151.09 466.95 147.29C467.31 143.49 467.66 139.68 467.95 135.88C468.24 132.09 468.49 128.28 468.7 124.5C468.91 120.73 469.03 116.97 469.17 113.22C469.31 109.47 469.41 105.74 469.47 102.04C469.54 98.3301 469.56 94.6501 469.54 90.9901C469.54 87.3301 469.46 83.6801 469.37 80.0801C469.27 76.4801 469.17 72.9201 468.99 69.3901C468.82 65.8601 468.56 62.3701 468.31 58.9101C468.06 55.4901 467.78 52.1401 467.45 48.9401C467.12 45.7401 466.81 42.6801 466.41 39.7201C466.01 36.7701 465.52 33.9601 465.06 31.2901C464.6 28.6201 464.07 26.0801 463.56 23.7201C463.04 21.3601 462.53 19.1901 461.97 17.1801C461.41 15.1701 460.84 13.3201 460.24 11.7001C459.94 10.8901 459.62 10.1201 459.31 9.41014C459 8.70014 458.75 8.04014 458.44 7.43014C458.13 6.82014 457.75 6.29014 457.43 5.79014C457.11 5.29014 456.77 4.84014 456.44 4.46014C456.24 4.22014 456.05 4.02014 455.89 3.87014C455.73 3.72014 455.55 3.64014 455.4 3.57014C455.25 3.50014 455.09 3.47014 454.92 3.46014L454.88 3.39014L454.89 3.41014Z" fill="#008080"/>
<path id="path25350" d="M357.66 44.0901C357.27 44.0901 356.62 44.0901 355.68 44.1601C354.74 44.2301 353.51 44.2901 351.96 44.4601C348.85 44.7901 344.48 45.4001 338.62 46.1801C335.85 46.5501 333.07 46.8801 330.33 47.2801C327.59 47.6801 324.88 48.1401 322.18 48.5701C319.48 49.0001 316.77 49.4101 314.11 49.8701C311.44 50.3201 308.82 50.8302 306.19 51.3102C303.56 51.8002 300.94 52.2501 298.34 52.7701C295.74 53.2901 293.16 53.8602 290.59 54.4002C288.02 54.9402 285.44 55.4601 282.91 56.0401C280.38 56.6101 277.9 57.2401 275.4 57.8401C272.91 58.4401 270.42 59.0201 267.96 59.6601C265.5 60.2901 263.05 60.9701 260.63 61.6301C258.2 62.2901 255.78 62.9201 253.39 63.6101C251 64.3001 248.64 65.0402 246.28 65.7602C243.92 66.4802 241.53 67.1702 239.21 67.9102C236.89 68.6602 234.63 69.4601 232.35 70.2401C230.06 71.0201 227.76 71.7601 225.51 72.5701C223.26 73.3701 221.05 74.2401 218.83 75.0701C216.61 75.9001 214.41 76.7202 212.22 77.5802C210.04 78.4402 207.87 79.3501 205.73 80.2501C203.58 81.1401 201.44 82.0202 199.32 82.9402C197.21 83.8602 195.13 84.8202 193.06 85.7602C190.98 86.7102 188.93 87.6702 186.88 88.6502C184.84 89.6302 182.81 90.6201 180.81 91.6301C178.81 92.6401 176.83 93.6501 174.86 94.6801C172.89 95.7201 170.9 96.7702 168.96 97.8302C167.02 98.8902 165.13 99.9801 163.23 101.07C161.33 102.16 159.45 103.27 157.58 104.39C155.72 105.51 153.87 106.65 152.04 107.8C150.21 108.95 148.4 110.11 146.61 111.29C144.82 112.47 143.04 113.66 141.29 114.87C139.53 116.08 137.79 117.3 136.07 118.53C134.35 119.76 132.65 121.01 130.96 122.28C129.28 123.54 127.61 124.82 125.96 126.12C124.17 127.52 122.37 128.97 120.57 130.47C118.77 131.96 116.96 133.5 115.16 135.07C113.36 136.64 111.57 138.25 109.79 139.88C108.01 141.51 106.25 143.17 104.5 144.84C102.75 146.51 101.03 148.22 99.3396 149.92C97.6496 151.63 95.9795 153.34 94.3495 155.06C92.7195 156.78 91.1395 158.51 89.5995 160.23C88.0595 161.95 86.5596 163.66 85.1196 165.37C83.9996 166.7 82.8796 168.04 81.7796 169.4C80.6796 170.76 79.5895 172.13 78.5095 173.52C77.4295 174.91 76.3696 176.31 75.3096 177.73C74.2596 179.15 73.2096 180.57 72.1796 182.02C71.1496 183.46 70.1296 184.91 69.1296 186.38C68.1196 187.85 67.1296 189.33 66.1496 190.82C65.1696 192.31 64.2096 193.82 63.2596 195.33C62.3096 196.85 61.3696 198.37 60.4396 199.92C59.5096 201.46 58.5996 203.01 57.6996 204.57C56.7996 206.13 55.9196 207.71 55.0496 209.29C54.1796 210.87 53.3196 212.47 52.4796 214.07C51.6396 215.67 50.8095 217.29 49.9995 218.91C49.1895 220.53 48.3896 222.17 47.5996 223.81C46.8196 225.45 46.0496 227.11 45.2896 228.77C44.5396 230.43 43.7996 232.1 43.0696 233.78C42.3496 235.46 41.6396 237.15 40.9396 238.85C40.1596 240.76 39.3995 242.67 38.6595 244.61C37.9195 246.54 37.1995 248.49 36.4995 250.46C35.7995 252.42 35.1196 254.4 34.4496 256.39C33.7896 258.38 33.1396 260.39 32.5196 262.41C31.8896 264.43 31.2896 266.46 30.6996 268.51C30.1096 270.56 29.5396 272.61 28.9896 274.69C28.4396 276.76 27.9096 278.84 27.3996 280.94C26.8896 283.04 26.3996 285.15 25.9196 287.27C25.4496 289.39 24.9996 291.52 24.5596 293.67C24.1296 295.81 23.7096 297.97 23.3196 300.14C22.9296 302.31 22.5496 304.48 22.1996 306.67C21.8496 308.86 21.5096 311.06 21.1896 313.27C20.8696 315.48 20.5796 317.7 20.2896 319.93C20.0096 322.16 19.7496 324.4 19.5096 326.65C19.2696 328.9 19.0496 331.16 18.8496 333.42C18.6496 335.69 18.4596 337.97 18.2996 340.25C18.1396 342.54 17.9896 344.83 17.8696 347.13C17.7396 349.43 17.6496 351.75 17.5596 354.07C17.4696 356.39 17.4096 358.72 17.3696 361.05C17.2996 363.38 17.2896 365.73 17.2896 368.08C17.2896 370.43 17.2896 372.79 17.3596 375.15C17.3596 377.51 17.4496 379.88 17.5096 382.26C17.5796 384.64 17.6396 387.02 17.7596 389.41C17.8696 391.8 18.0396 394.2 18.1896 396.6C18.3396 399 18.5096 401.4 18.6996 403.81C18.8896 406.22 19.0996 408.64 19.3296 411.06C19.5596 413.48 19.8096 415.91 20.0796 418.34C20.3496 420.77 20.6396 423.2 20.9496 425.64C21.2596 428.08 21.5796 430.52 21.9396 432.97C22.2896 435.42 22.6596 437.86 23.0396 440.31C23.4296 442.76 23.8396 445.22 24.2696 447.68C24.6996 450.14 25.1396 452.6 25.6096 455.06C26.1896 458.12 26.8596 461.41 27.5896 464.74C28.3096 468.08 29.0796 471.47 29.8496 474.71C30.6196 477.95 31.3996 481.04 32.1296 483.8C32.8596 486.56 33.5496 488.98 34.1496 490.87C34.3696 491.57 34.5296 492.1 34.7196 492.47C34.8196 492.65 34.9296 492.8 35.0596 492.92C35.1896 493.03 35.3496 493.11 35.5496 493.16C35.7496 493.23 35.9796 493.23 36.2796 493.23C36.5796 493.23 36.9196 493.16 37.3296 493.1C38.1596 492.96 39.2595 492.72 40.7495 492.41C43.0595 491.92 45.4296 491.38 47.8496 490.8C50.2696 490.22 52.7296 489.59 55.2196 488.92C57.7096 488.26 60.2195 487.55 62.7495 486.81C65.2795 486.07 67.8096 485.3 70.3396 484.5C72.8695 483.7 75.3796 482.87 77.8796 482.02C80.3696 481.17 82.8395 480.3 85.2695 479.41C87.6895 478.52 90.0696 477.62 92.3896 476.7C94.7096 475.78 96.9696 474.86 99.1496 473.92C101.4 472.96 103.61 471.98 105.78 470.99C107.95 470 110.08 468.99 112.17 467.96C114.26 466.93 116.32 465.89 118.33 464.84C120.34 463.78 122.33 462.75 124.26 461.67C126.2 460.58 128.09 459.43 129.95 458.32C131.81 457.2 133.62 456.07 135.4 454.92C137.18 453.77 138.92 452.6 140.62 451.42C142.32 450.24 144.03 449.08 145.65 447.87C147.27 446.66 148.84 445.44 150.39 444.2C151.93 442.96 153.4 441.66 154.86 440.39C156.32 439.12 157.79 437.88 159.18 436.58C160.56 435.28 161.89 433.95 163.19 432.62C164.49 431.29 165.72 429.92 166.94 428.56C168.16 427.2 169.4 425.9 170.54 424.51C171.68 423.12 172.79 421.68 173.84 420.26C174.9 418.84 175.89 417.46 176.87 416.01C177.61 414.92 178.31 413.82 178.99 412.72C179.68 411.62 180.35 410.5 180.98 409.39C181.61 408.28 182.25 407.15 182.83 406.03C183.42 404.91 183.95 403.81 184.49 402.67C185.03 401.54 185.56 400.36 186.05 399.21C186.54 398.06 187.06 396.93 187.5 395.78C187.94 394.62 188.34 393.45 188.73 392.27C189.12 391.1 189.49 389.91 189.84 388.72C190.18 387.53 190.51 386.31 190.8 385.11C191.09 383.91 191.31 382.69 191.55 381.47C191.8 380.25 192.02 379.02 192.22 377.78C192.41 376.54 192.58 375.3 192.74 374.04C192.89 372.78 193.03 371.53 193.13 370.26C193.23 368.99 193.38 367.68 193.44 366.39C193.51 365.1 193.53 363.8 193.53 362.49V358.49C193.46 357.23 193.37 356.03 193.31 354.83C193.24 353.64 193.22 352.44 193.13 351.3C193.03 350.15 192.93 349.02 192.8 347.9C192.67 346.78 192.53 345.65 192.36 344.54C192.19 343.42 192.09 342.22 191.89 341.08C191.68 339.94 191.46 338.82 191.2 337.65C190.7 335.3 190.03 332.86 189.34 330.24C188.75 328.02 188.16 325.86 187.48 323.67C186.8 321.48 185.99 319.3 185.2 317.11C184.41 314.92 183.74 312.68 182.84 310.46C181.94 308.25 180.98 306.02 179.96 303.76C178.93 301.5 177.83 299.21 176.67 296.88C175.51 294.55 174.28 292.18 172.97 289.75C171.66 287.32 170.19 284.86 168.72 282.3C167.25 279.75 165.69 277.13 164.05 274.43C161.86 270.83 159.93 267.57 158.18 264.52C157.31 262.99 156.43 261.55 155.64 260.11C154.86 258.67 154.07 257.25 153.36 255.88C152.65 254.5 152 253.16 151.34 251.81C150.68 250.46 150.03 249.1 149.41 247.75C148.79 246.39 148.18 245.05 147.59 243.65C147 242.26 146.49 240.8 145.9 239.34C145.31 237.88 144.75 236.43 144.21 234.98C143.67 233.53 143.16 232.1 142.68 230.66C142.2 229.22 141.66 227.8 141.22 226.37C140.79 224.94 140.38 223.51 140 222.08C139.61 220.66 139.34 219.23 139.01 217.82C138.68 216.41 138.39 215.02 138.11 213.62C137.84 212.22 137.57 210.82 137.35 209.43C137.13 208.04 136.87 206.66 136.7 205.29C136.53 203.91 136.39 202.54 136.27 201.18C136.16 199.82 136.08 198.49 136.01 197.14C135.94 195.79 135.92 194.4 135.92 193.06C135.92 191.72 135.99 190.49 136.04 189.17C136.11 187.85 136.17 186.47 136.27 185.17C136.37 183.87 136.45 182.61 136.6 181.33C136.75 180.04 136.88 178.73 137.08 177.46C137.28 176.19 137.51 174.93 137.77 173.68C137.97 172.7 138.19 171.72 138.43 170.74C138.67 169.76 138.87 168.79 139.14 167.83C139.41 166.87 139.69 165.9 140 164.94C140.3 163.98 140.61 163.05 140.95 162.1C141.28 161.15 141.64 160.18 142 159.24C142.37 158.3 142.75 157.36 143.16 156.43C143.56 155.5 143.98 154.58 144.42 153.66C144.85 152.73 145.28 151.81 145.75 150.9C146.68 149.07 147.7 147.24 148.76 145.45C149.82 143.65 150.95 141.87 152.15 140.1C153.34 138.34 154.58 136.62 155.9 134.9C157.23 133.18 158.64 131.47 160.1 129.78C161.55 128.09 163.1 126.49 164.68 124.84C166.26 123.19 167.9 121.57 169.61 119.96C171.32 118.35 173.12 116.76 174.95 115.19C176.79 113.62 178.66 112.02 180.62 110.49C182.58 108.96 184.61 107.45 186.7 105.96C188.79 104.47 190.9 102.98 193.12 101.53C195.33 100.08 197.63 98.7101 199.97 97.3101C202.31 95.9101 204.71 94.5201 207.17 93.1701C209.27 92.0101 211.4 90.8301 213.58 89.7001C215.76 88.5701 217.99 87.4601 220.25 86.3601C222.51 85.2601 224.79 84.1801 227.14 83.1101C229.48 82.0401 231.94 80.9701 234.37 79.9301C236.8 78.8901 239.23 77.8701 241.75 76.8601C244.27 75.8501 246.82 74.8502 249.43 73.8702C252.04 72.8802 254.66 71.9101 257.35 70.9501C260.05 69.9901 262.8 69.0701 265.58 68.1301C268.37 67.2001 271.23 66.2601 274.11 65.3601C276.99 64.4601 279.91 63.5701 282.9 62.6901C285.88 61.8101 288.93 60.9501 292.01 60.0901C295.09 59.2301 298.2 58.3801 301.38 57.5401C304.56 56.7101 307.8 55.9201 311.08 55.1101C314.37 54.3001 317.71 53.5001 321.1 52.7101C324.49 51.9201 327.92 51.1002 331.42 50.3302C334.92 49.5602 338.48 48.8002 342.08 48.0602C349.77 46.4702 354.08 45.5701 356.28 45.0401C357.38 44.7801 358.09 44.6201 358.28 44.5101C358.35 44.5101 358.28 44.3701 358.2 44.3601C358.2 44.3601 358.33 44.2402 358.27 44.2402H357.71L357.62 44.1801L357.66 44.0901Z" fill="#008080"/>
<path id="Vector" d="M459.02 2.11014C457.75 0.790142 456.68 0.100142 455.25 0.0101419C453.82 -0.0798581 452.02 0.430142 449.3 1.50014C443.25 3.88014 429.19 8.80014 418.7 12.2101C409.28 15.2801 398.87 18.5201 363.65 29.3501C342.62 35.8201 328.11 40.5601 318.09 44.2501C311.53 46.6601 310.4 46.9601 299.47 49.1001C238.74 61.0101 188.88 79.9101 146.95 106.92C72.7096 154.75 28.2796 227.26 16.8396 319.23C10.5896 369.47 14.2596 426.78 26.9996 477.95C27.3896 479.5 27.7996 481.05 28.1596 482.61C28.5096 484.06 28.8296 485.52 29.1496 486.98C29.3096 487.7 29.4996 488.42 29.6396 489.15C29.7796 489.89 30.0396 490.63 30.0196 491.39C30.0196 491.63 29.9796 491.88 29.8396 492.07C29.6796 492.29 29.4296 492.41 29.1796 492.52C27.0596 493.41 24.7396 493.97 22.4996 494.43C21.1896 494.69 19.8296 494.8 18.5096 494.92C16.7096 495.09 14.8796 495.32 13.0696 495.23C11.3996 495.15 9.77956 494.82 8.15956 494.41C7.06956 494.13 3.37956 490.91 2.27956 491.16C1.50956 491.34 0.60956 491.45 0.06956 492.1C-0.44044 492.71 2.00956 493.53 2.35956 493.7C4.90956 494.91 7.53956 495.97 10.2896 496.61C14.3696 497.57 18.5296 497.57 22.6796 497.58C31.0996 497.61 39.3896 496.38 47.5896 494.39C48.7996 494.1 49.9996 493.8 51.1996 493.5C55.7796 492.36 60.3096 490.96 64.8896 489.81C66.1696 489.44 67.4496 489.06 68.7296 488.66C79.3696 485.35 86.8296 482.66 100.51 477.2C101.85 476.66 101.87 476.67 103.19 477.77C114.12 486.89 124.06 492.24 137.28 496.14C144.06 498.14 153.92 499.85 161.45 500.33C165.66 500.6 174.69 500.54 179.17 500.22C226.95 496.76 281.86 470.31 343.98 420.82C353.31 413.39 358.65 408.73 365.73 401.85C382.15 385.88 397.01 367.05 409.84 345.95C447.53 284.01 469.57 201.25 472.78 109.71C474.51 60.2901 468.31 11.8401 459.01 2.12014L459.02 2.11014ZM99.1696 473.88C81.7296 481.35 59.2696 488.45 40.7896 492.36C34.8396 493.62 35.0696 493.67 34.1796 490.86C31.7796 483.29 27.9596 467.26 25.6396 455.04C10.6696 376.22 16.0996 299.79 40.9996 238.85C52.0896 211.7 67.1496 186.64 85.1696 165.36C96.6996 151.74 111.7 137.33 126.02 126.11C178.8 84.7601 249.99 58.0101 338.68 46.1801C350.38 44.6201 356.18 44.0001 357.71 44.1201C359.37 44.2601 357.45 44.7301 342.08 47.9101C284.34 59.8701 240.78 74.4201 207.1 93.0001C167.72 114.73 144.13 142.11 137.68 173.58C133.57 193.63 136.32 215.98 145.74 239.31C150.46 251 155.12 260 163.88 274.4C177.03 295.99 184.52 312.51 189.2 330.23C191.97 340.73 193.11 348.36 193.39 358.45C193.99 379.8 188.61 398.47 176.84 415.87C161.2 438.99 135.1 458.48 99.1596 473.87L99.1696 473.88ZM196.26 347.07C193.68 328.75 188.02 311.62 178.22 292.45C174.53 285.24 171.45 279.84 165.25 269.7C160.01 261.13 153.57 248.8 150.42 241.34C146 230.85 142.51 219.33 140.93 210.01C135.47 177.68 144.72 149.63 168.8 125.5C174.75 119.53 179.76 115.28 187.32 109.74C204.87 96.9101 228.3 85.0701 256.02 75.0201C259.43 73.7801 262.39 72.7701 262.6 72.7701C263.63 72.7701 262.58 73.9801 258.69 77.1001C253.57 81.2301 245.51 89.1801 241.77 93.7801C221.97 118.13 217.46 146.08 227.38 183.02C231.4 198 236.69 211.91 250.6 244.14C258.57 262.59 262.69 272.63 266.05 281.77C279.85 319.28 282.12 346.05 273.59 370.52C269.41 382.49 261.24 393.74 248.91 404.5C225.71 424.74 190.94 442.45 141.76 459.09C129.77 463.15 129.38 463.03 137.37 457.82C148.23 450.73 155.73 444.78 163.78 436.89C182.27 418.77 192.89 398.59 196.24 375.25C197.15 369.03 197.14 353.45 196.24 347.07H196.26ZM451.26 236.27C435.09 297.65 409.41 348.62 375.59 386.46C365.1 398.2 355.49 407.15 341.2 418.54C283.35 464.6 231.79 490.4 186.29 496.05C180.62 496.76 166.22 497.23 161.29 496.87C141.02 495.4 122.32 488.61 108.83 477.83C107.36 476.65 106.15 475.54 106.15 475.35C106.15 474.6 113.77 471.46 120.11 469.6C130.5 466.55 149.12 460.4 159.27 456.68C209.73 438.15 245.56 416.75 264.22 393.99C273.84 382.26 279.48 368.52 281.62 351.63C282.28 346.44 282.19 333.4 281.45 327.3C279.91 314.52 276.77 301.55 271.6 286.69C267.5 274.91 263.87 265.91 253.25 241.25C242.25 215.7 238.56 206.45 234.57 194.44C226.42 169.89 224.05 150.12 227.18 132.89C231.55 108.91 246.57 88.6701 273.31 70.7201C276.56 68.5401 277.63 68.0301 281.54 66.8401C302.62 60.4001 326.84 54.6501 363.43 47.4201C381.42 43.8601 389.68 42.0301 391.14 41.2601C391.93 40.8401 391.97 40.5501 391.45 38.7301C391 37.1601 391.58 37.2001 381.8 37.9501C368.52 38.9601 352.39 40.5901 342.07 41.9801C336.38 42.7401 334.2 42.8501 334.73 42.3501C335.2 41.9101 351.28 36.7701 373.2 30.0601C413.9 17.6001 429.4 12.5801 444.24 7.06014C449.18 5.22014 453.71 3.65014 454.32 3.56014C455.23 3.43014 455.6 3.56014 456.4 4.53014C461.65 10.6301 466.22 31.6201 468.24 58.9501C472.33 114.18 466 180.13 451.22 236.26L451.26 236.27Z" fill="#008080"/>
</g>
</g>
</svg>
