<?xml version="1.0" encoding="UTF-8" standalone="no"?>
<!-- Created with Inkscape (http://www.inkscape.org/) -->

<svg
   width="81.008301mm"
   height="111.65002mm"
   viewBox="0 0 81.008301 111.65002"
   version="1.1"
   id="svg3298"
   inkscape:version="1.2 (dc2aedaf03, 2022-05-15)"
   sodipodi:docname="Immunity.svg"
   xml:space="preserve"
   xmlns:inkscape="http://www.inkscape.org/namespaces/inkscape"
   xmlns:sodipodi="http://sodipodi.sourceforge.net/DTD/sodipodi-0.dtd"
   xmlns="http://www.w3.org/2000/svg"
   xmlns:svg="http://www.w3.org/2000/svg"><sodipodi:namedview
     id="namedview3300"
     pagecolor="#505050"
     bordercolor="#ffffff"
     borderopacity="1"
     inkscape:pageshadow="0"
     inkscape:pageopacity="0"
     inkscape:pagecheckerboard="1"
     inkscape:document-units="mm"
     showgrid="false"
     inkscape:zoom="1.1664753"
     inkscape:cx="-14.145178"
     inkscape:cy="305.62156"
     inkscape:window-width="1920"
     inkscape:window-height="1051"
     inkscape:window-x="-9"
     inkscape:window-y="-9"
     inkscape:window-maximized="1"
     inkscape:current-layer="layer1"
     showguides="true"
     inkscape:guide-bbox="true"
     inkscape:snap-global="false"
     inkscape:snap-bbox="true"
     inkscape:snap-bbox-edge-midpoints="false"
     inkscape:showpageshadow="2"
     inkscape:deskcolor="#505050"><sodipodi:guide
       position="3399.0684,-2121.6556"
       orientation="1,0"
       id="guide34946"
       inkscape:locked="false" /></sodipodi:namedview><defs
     id="defs3295" /><g
     inkscape:label="Layer 1"
     inkscape:groupmode="layer"
     id="layer1"
     transform="translate(1590.212,-1373.3487)"><path
       fill="#000000"
       d="m -1590.212,1386.7243 v 23.3074 c 0,29.4997 14.4971,57.3101 38.8515,74.4424 0.4851,0.3651 1.0592,0.5246 1.6627,0.5246 0.5881,0 1.162,-0.161 1.6628,-0.5246 24.293,-17.1323 38.8314,-44.9427 38.8314,-74.4424 v -23.3074 c 0,-1.5283 -1.2512,-2.7949 -2.8184,-2.7949 -10.119,0 -20.2369,-2.3724 -29.3016,-6.7963 l -7.076,-3.4995 c -0.8092,-0.3798 -1.7251,-0.3798 -2.5359,0 l -7.0761,3.4995 c -9.0647,4.4628 -19.1823,6.7963 -29.3012,6.7963 -1.6628,0 -2.8992,1.2707 -2.8992,2.7949 z m 5.6562,2.7159 c 10.0583,-0.3798 20.0345,-2.9373 29.0174,-7.3612 l 5.7994,-2.8554 5.7989,2.8554 c 8.9831,4.4239 18.9605,6.9371 29.0177,7.3612 v 20.5915 c 0,27.0267 -12.9771,52.5226 -34.8166,68.6913 -21.8193,-16.1687 -34.8168,-41.7061 -34.8168,-68.6913 z m 0,0"
       fill-opacity="1"
       fill-rule="nonzero"
       id="path95013"
       style="fill:#000000;stroke-width:5.16939"
       inkscape:export-filename="/home/joshuadesir/Documents/Projects/Graphics/Brand Kits/Nature's Secret/Product Labels/Sea Moss/g330238.png"
       inkscape:export-xdpi="304.5"
       inkscape:export-ydpi="304.5" /><path
       id="path95015"
       style="fill:#008080;fill-opacity:1;stroke-width:16.1018"
       d="m -1549.7011,1379.2236 -5.7989,2.8554 c -0.5615,0.2764 -1.127,0.5462 -1.6958,0.8078 -0.5692,0.2615 -1.1418,0.5166 -1.7178,0.7634 -0.5759,0.2469 -1.1557,0.4858 -1.7382,0.7179 -0.5828,0.2335 -1.1689,0.4563 -1.7579,0.6736 -0.5889,0.2175 -1.1805,0.4267 -1.7751,0.6279 -0.5947,0.2027 -1.1925,0.3959 -1.7924,0.5825 -0.5999,0.1866 -1.2021,0.3649 -1.807,0.5354 -0.6049,0.1715 -1.2123,0.3341 -1.8216,0.4884 -0.6091,0.1555 -1.2209,0.3018 -1.834,0.4414 -0.6133,0.1383 -1.2284,0.2711 -1.8451,0.3931 -0.6168,0.1212 -1.2352,0.2388 -1.855,0.3449 -0.6196,0.1077 -1.2411,0.2067 -1.8636,0.2965 -0.6229,0.094 -1.2462,0.173 -1.871,0.2468 -0.6247,0.081 -1.2507,0.1397 -1.8771,0.1972 -0.6265,0.054 -1.2535,0.1077 -1.8813,0.1476 -0.6278,0.04 -1.2565,0.067 -1.8851,0.094 v 20.5915 c 0,0.4212 0,0.8426 0,1.264 0,0.42 0.027,0.8413 0.03,1.2612 0,0.42 0.028,0.84 0.047,1.2587 0.025,0.42 0.042,0.8386 0.066,1.2559 0.026,0.4186 0.053,0.8373 0.083,1.2546 0.031,0.4173 0.066,0.8347 0.1024,1.2505 0.036,0.416 0.079,0.832 0.1212,1.2479 0.044,0.4147 0.089,0.8293 0.1393,1.2439 0.05,0.4133 0.1024,0.8266 0.1577,1.2399 0.055,0.4132 0.1132,0.8252 0.1762,1.2371 0.063,0.4106 0.1266,0.8225 0.1946,1.2331 0.069,0.4093 0.1392,0.8185 0.2129,1.2277 0.074,0.4081 0.1498,0.8173 0.2313,1.2239 0.079,0.4079 0.163,0.8144 0.2471,1.2196 0.1709,0.8119 0.355,1.6209 0.5497,2.4261 0.1946,0.805 0.402,1.6075 0.6199,2.4057 0.2183,0.7985 0.4475,1.5928 0.6888,2.3832 0.2418,0.7917 0.4939,1.578 0.7579,2.3616 0.2636,0.7822 0.5386,1.5618 0.8249,2.3361 0.2863,0.7742 0.5834,1.5443 0.8917,2.3105 0.3087,0.7649 0.6287,1.527 0.9591,2.2825 0.3305,0.7568 0.6714,1.5082 1.0235,2.2542 0.3522,0.7474 0.715,1.488 1.0886,2.2248 0.3735,0.7366 0.7576,1.4666 1.1524,2.1924 0.3947,0.7247 0.7998,1.4452 1.2156,2.1591 0.4157,0.7152 0.8423,1.4223 1.2785,2.1254 0.4365,0.7017 0.883,1.3982 1.3396,2.0878 0.457,0.6911 0.9232,1.3741 1.4003,2.0517 0.4768,0.6776 0.964,1.3485 1.4608,2.0113 0.4969,0.6642 1.0035,1.3218 1.5201,1.9725 0.5163,0.6508 1.0423,1.2935 1.5781,1.9295 0.5358,0.6374 1.0812,1.2653 1.6365,1.8867 0.555,0.6225 1.1199,1.2358 1.6938,1.8423 0.5738,0.6064 1.1569,1.2048 1.7496,1.7953 0.2962,0.2952 0.5948,0.589 0.8959,0.8802 0.3007,0.2913 0.6036,0.5811 0.909,0.8682 0.3055,0.2871 0.6136,0.5729 0.9235,0.856 0.31,0.2832 0.6223,0.5636 0.9367,0.8427 0.3147,0.2792 0.6309,0.5569 0.9501,0.8306 0.3188,0.275 0.6404,0.5488 0.9637,0.8185 0.3236,0.2711 0.6491,0.5395 0.9773,0.805 0.3278,0.2657 0.6577,0.5301 0.99,0.7917 0.3322,0.2617 0.6666,0.5206 1.0034,0.7784 0.3365,0.2576 0.6748,0.5111 1.0158,0.7634 0.3412,-0.2524 0.6804,-0.5058 1.0172,-0.7634 0.3369,-0.2578 0.6721,-0.5167 1.0047,-0.7784 0.3325,-0.2615 0.6627,-0.526 0.9909,-0.7917 0.328,-0.2655 0.654,-0.5339 0.9776,-0.805 0.3239,-0.2697 0.6447,-0.5421 0.9641,-0.8171 0.3191,-0.2751 0.6364,-0.5516 0.9511,-0.8306 0.3147,-0.2792 0.6267,-0.5596 0.9369,-0.8427 0.3102,-0.2831 0.6186,-0.5675 0.9243,-0.8548 0.3055,-0.2871 0.6087,-0.5769 0.9096,-0.8681 0.301,-0.2912 0.5997,-0.585 0.896,-0.8802 0.5927,-0.5903 1.1766,-1.1889 1.7508,-1.7953 0.5741,-0.6052 1.1389,-1.2184 1.6941,-1.8396 0.555,-0.6214 1.1005,-1.2507 1.6364,-1.8867 0.5359,-0.6346 1.0624,-1.2774 1.5787,-1.9282 0.5166,-0.6494 1.0232,-1.3069 1.5201,-1.9697 0.4969,-0.6642 0.9839,-1.3351 1.4608,-2.0115 0.477,-0.6761 0.9436,-1.3605 1.4002,-2.0502 0.4567,-0.6896 0.9033,-1.3848 1.3396,-2.0879 0.4362,-0.7017 0.8624,-1.4089 1.278,-2.1228 0.4154,-0.7137 0.8202,-1.4329 1.2148,-2.1589 0.3946,-0.7246 0.7783,-1.4545 1.1518,-2.1912 0.3733,-0.7353 0.7366,-1.4773 1.0886,-2.2233 0.3519,-0.7462 0.6924,-1.4975 1.0227,-2.2529 0.3302,-0.7568 0.6499,-1.5177 0.9583,-2.2824 0.3083,-0.7663 0.6049,-1.5364 0.8909,-2.3107 0.2862,-0.7742 0.5616,-1.5524 0.8253,-2.3362 0.2636,-0.7822 0.5156,-1.5699 0.7565,-2.3602 0.2408,-0.7917 0.4706,-1.5859 0.6885,-2.3843 0.218,-0.7985 0.4245,-1.6008 0.6192,-2.4059 0.097,-0.4025 0.1914,-0.8064 0.2829,-1.2117 0.092,-0.4039 0.1798,-0.8091 0.2656,-1.2143 0.086,-0.4065 0.1686,-0.8132 0.2482,-1.2211 0.079,-0.4079 0.1565,-0.8158 0.2302,-1.225 0.074,-0.4093 0.1444,-0.8185 0.2123,-1.2291 0.067,-0.4106 0.1333,-0.8225 0.1947,-1.2345 0.062,-0.4119 0.1198,-0.8225 0.1761,-1.2358 0.055,-0.4133 0.1078,-0.8279 0.158,-1.2425 0.05,-0.4146 0.097,-0.8293 0.1402,-1.2452 0.043,-0.4147 0.083,-0.832 0.1212,-1.248 0.038,-0.4173 0.071,-0.8346 0.1037,-1.2518 0.031,-0.4173 0.059,-0.836 0.085,-1.2546 0.027,-0.4201 0.047,-0.8387 0.066,-1.2586 0.019,-0.4187 0.035,-0.84 0.047,-1.2601 0.014,-0.4213 0.022,-0.8425 0.028,-1.2639 0.013,-0.4214 0.013,-0.8441 0.013,-1.2653 v -20.5915 c -0.6286,-0.027 -1.257,-0.054 -1.8846,-0.1077 -0.6278,-0.04 -1.2548,-0.094 -1.8813,-0.153 -0.6264,-0.054 -1.2523,-0.1212 -1.8771,-0.2013 -0.6247,-0.081 -1.2483,-0.157 -1.8707,-0.2482 -0.6225,-0.094 -1.244,-0.1907 -1.8639,-0.2978 -0.6198,-0.1078 -1.2381,-0.2214 -1.8548,-0.3449 -0.6168,-0.1212 -1.2318,-0.2537 -1.8452,-0.3919 -0.6132,-0.1395 -1.2247,-0.2844 -1.8341,-0.4387 -0.6092,-0.1543 -1.2158,-0.3167 -1.8208,-0.4871 -0.6049,-0.1703 -1.2077,-0.3476 -1.8077,-0.5327 -0.5999,-0.1851 -1.1977,-0.3784 -1.7923,-0.5796 -0.595,-0.2015 -1.1862,-0.408 -1.7753,-0.6254 -0.5889,-0.216 -1.1751,-0.4387 -1.7578,-0.6709 -0.5828,-0.2308 -1.1621,-0.4696 -1.7383,-0.7165 -0.5761,-0.2469 -1.1487,-0.5004 -1.7175,-0.7621 -0.569,-0.2616 -1.1347,-0.53 -1.6962,-0.8078 z" /><path
       fill="#000000"
       d="m -1585.9899,1391.1523 v 20.876 c 0,26.4256 12.9857,51.3364 34.8015,66.6841 0.4337,0.3274 0.9489,0.4655 1.49,0.4655 0.529,0 1.0406,-0.1447 1.4892,-0.4655 21.7609,-15.3477 34.7833,-40.2585 34.7833,-66.6841 v -20.876 c 0,-1.3686 -1.1208,-2.5038 -2.5245,-2.5038 -9.0646,0 -18.1277,-2.1254 -26.247,-6.0892 l -6.3392,-3.1344 c -0.7276,-0.3422 -1.545,-0.3422 -2.2711,0 l -6.3381,3.1344 c -8.12,4.0001 -17.1829,6.0892 -26.2474,6.0892 -1.4892,0 -2.5967,1.1366 -2.5967,2.5038 z m 5.0666,2.4313 c 9.0095,-0.342 17.9463,-2.6299 25.9928,-6.5922 l 5.1946,-2.5589 5.1942,2.5589 c 8.0474,3.9623 16.9843,6.214 25.9937,6.5922 v 18.4447 c 0,24.2103 -11.6246,47.0493 -31.1879,61.5328 -19.5444,-14.4835 -31.1874,-37.3587 -31.1874,-61.5328 z m 0,0"
       fill-opacity="1"
       fill-rule="nonzero"
       id="path95017"
       style="fill:#fcee31;stroke-width:4.63056;fill-opacity:1"
       inkscape:export-filename="/home/joshuadesir/Documents/Projects/Graphics/Brand Kits/Nature's Secret/Product Labels/Sea Moss/g330238.png"
       inkscape:export-xdpi="304.5"
       inkscape:export-ydpi="304.5" /><path
       fill="#000000"
       d="m -1538.6919,1445.0946 v -7.2565 h 7.3449 c 2.0275,0 3.6858,-1.6102 3.6858,-3.6041 v -14.5144 c 0,-1.9833 -1.662,-3.6284 -3.6858,-3.6284 h -7.3449 v -7.231 c 0,-2.0086 -1.6616,-3.6282 -3.6855,-3.6282 h -14.6891 c -2.0266,0 -3.6847,1.6088 -3.6847,3.6282 v 7.231 h -7.3452 c -2.0265,0 -3.6584,1.6491 -3.6584,3.6284 v 14.5144 c 0,1.9859 1.6242,3.6041 3.6584,3.6041 h 7.3452 v 7.2565 c 0,1.9831 1.662,3.6282 3.6847,3.6282 h 14.6891 c 2.0275,0 3.6855,-1.6477 3.6855,-3.6282 z m -7.3445,-10.8606 v 7.231 h -7.3699 v -7.231 c 0,-2.0101 -1.6233,-3.627 -3.6602,-3.627 h -7.3431 v -7.2578 h 7.3431 c 2.0284,0 3.6602,-1.6102 3.6602,-3.6296 v -7.2566 h 7.3699 v 7.2566 c 0,2.01 1.6233,3.6296 3.659,3.6296 h 7.3455 v 7.2578 h -7.3455 c -2.0528,0 -3.659,1.6101 -3.659,3.627 z m 0,0"
       fill-opacity="1"
       fill-rule="nonzero"
       id="path95019"
       style="fill:#fcee31;fill-opacity:1;stroke:#000000;stroke-width:7.036;stroke-miterlimit:4;stroke-dasharray:none;stroke-opacity:0"
       inkscape:export-filename="/home/joshuadesir/Documents/Projects/Graphics/Brand Kits/Nature's Secret/Product Labels/Sea Moss/g330238.png"
       inkscape:export-xdpi="304.5"
       inkscape:export-ydpi="304.5" /></g></svg>
