<?xml version="1.0" encoding="UTF-8" standalone="no"?>
<!-- Created with Inkscape (http://www.inkscape.org/) -->

<svg
   width="90.728943mm"
   height="82.244141mm"
   viewBox="0 0 90.728943 82.244141"
   version="1.1"
   id="svg3298"
   inkscape:version="1.2 (dc2aedaf03, 2022-05-15)"
   sodipodi:docname="bodily-healing.svg"
   xml:space="preserve"
   xmlns:inkscape="http://www.inkscape.org/namespaces/inkscape"
   xmlns:sodipodi="http://sodipodi.sourceforge.net/DTD/sodipodi-0.dtd"
   xmlns="http://www.w3.org/2000/svg"
   xmlns:svg="http://www.w3.org/2000/svg"><sodipodi:namedview
     id="namedview3300"
     pagecolor="#505050"
     bordercolor="#ffffff"
     borderopacity="1"
     inkscape:pageshadow="0"
     inkscape:pageopacity="0"
     inkscape:pagecheckerboard="1"
     inkscape:document-units="mm"
     showgrid="false"
     inkscape:zoom="1.8101934"
     inkscape:cx="72.644174"
     inkscape:cy="172.08107"
     inkscape:window-width="1920"
     inkscape:window-height="1051"
     inkscape:window-x="-9"
     inkscape:window-y="-9"
     inkscape:window-maximized="1"
     inkscape:current-layer="layer1"
     showguides="true"
     inkscape:guide-bbox="true"
     inkscape:snap-global="false"
     inkscape:snap-bbox="true"
     inkscape:snap-bbox-edge-midpoints="false"
     inkscape:showpageshadow="2"
     inkscape:deskcolor="#505050"><sodipodi:guide
       position="2754.3914,-1799.9854"
       orientation="1,0"
       id="guide34946"
       inkscape:locked="false" /></sodipodi:namedview><defs
     id="defs3295" /><g
     inkscape:label="Layer 1"
     inkscape:groupmode="layer"
     id="layer1"
     transform="translate(945.53506,-1724.4248)"><path
       id="rect96175"
       style="fill:#73f140;fill-opacity:1;stroke:#000000;stroke-width:0;stroke-opacity:0"
       d="m -880.78246,1729.8115 c -0.35735,0.01 -0.7127,0.029 -1.06609,0.06 -0.35338,0.031 -0.70434,0.074 -1.05368,0.1287 -0.34934,0.054 -0.69709,0.1199 -1.04231,0.1969 -0.34523,0.077 -0.68837,0.1653 -1.0294,0.2651 -0.34103,0.1 -0.67971,0.2107 -1.01647,0.3333 -0.33677,0.1226 -0.67114,0.2567 -1.00356,0.4021 -0.33242,0.1454 -0.66264,0.3026 -0.99064,0.4707 -0.328,0.1682 -0.65421,0.3476 -0.97771,0.5385 -0.32351,0.1909 -0.64432,0.3935 -0.96325,0.6072 -0.31894,0.2137 -0.63605,0.4384 -0.95033,0.6749 -0.31429,0.2364 -0.62578,0.4844 -0.93535,0.7436 -0.30175,0.2558 -0.59718,0.5171 -0.88573,0.7839 -0.28855,0.2669 -0.5706,0.5392 -0.84594,0.8171 -0.27534,0.2778 -0.54403,0.5612 -0.80616,0.85 -0.26212,0.2889 -0.51747,0.5833 -0.76636,0.8832 -0.24889,0.2999 -0.49144,0.6053 -0.72708,0.9162 -0.23565,0.3109 -0.46439,0.6274 -0.68678,0.9493 -0.2224,0.3219 -0.43838,0.6495 -0.64751,0.9824 -0.20914,0.3329 -0.41134,0.671 -0.6072,1.0149 -0.0564,0.1096 -0.11979,0.2144 -0.19017,0.3142 -0.0704,0.1 -0.14767,0.1944 -0.23202,0.2847 -0.0843,0.09 -0.17359,0.1731 -0.26821,0.2501 -0.0946,0.077 -0.19469,0.148 -0.30024,0.2124 -0.1049,0.064 -0.21371,0.1194 -0.32556,0.168 -0.11185,0.049 -0.227,0.09 -0.3452,0.124 -0.11885,0.034 -0.23831,0.058 -0.35915,0.075 -0.12083,0.017 -0.24307,0.025 -0.36587,0.025 -0.1229,0 -0.24451,-0.01 -0.36535,-0.025 -0.12084,-0.017 -0.24082,-0.041 -0.35967,-0.074 -0.1182,-0.034 -0.23334,-0.075 -0.34519,-0.124 -0.11185,-0.049 -0.22015,-0.1043 -0.32505,-0.168 -0.1056,-0.064 -0.20563,-0.1353 -0.30024,-0.2124 -0.0946,-0.077 -0.18385,-0.1605 -0.2682,-0.2501 -0.0836,-0.09 -0.16063,-0.185 -0.23099,-0.2847 -0.0704,-0.1 -0.13411,-0.2046 -0.19121,-0.3142 -0.1962,-0.3434 -0.39887,-0.6814 -0.60823,-1.0139 -0.20935,-0.3325 -0.42551,-0.6593 -0.64802,-0.9808 -0.22252,-0.3215 -0.45162,-0.6372 -0.6873,-0.9478 -0.23568,-0.3105 -0.47772,-0.6156 -0.72657,-0.9152 -0.24885,-0.2995 -0.50434,-0.594 -0.76636,-0.8826 -0.26202,-0.2886 -0.53095,-0.5714 -0.80615,-0.849 -0.2752,-0.2776 -0.55704,-0.5499 -0.84543,-0.8165 -0.28838,-0.2666 -0.58312,-0.5278 -0.8847,-0.7834 -0.21985,-0.1843 -0.44075,-0.3626 -0.66301,-0.5354 -0.22225,-0.1728 -0.44613,-0.34 -0.67076,-0.5013 -0.22463,-0.1613 -0.4505,-0.3168 -0.67748,-0.4666 -0.22697,-0.1498 -0.45489,-0.2937 -0.68419,-0.432 -0.2293,-0.1383 -0.45984,-0.2711 -0.69143,-0.3979 -0.23159,-0.1269 -0.46429,-0.248 -0.69815,-0.3633 -0.23386,-0.1153 -0.46877,-0.2248 -0.70487,-0.3287 -0.2361,-0.1038 -0.47327,-0.2017 -0.71158,-0.294 -0.23831,-0.092 -0.47781,-0.1791 -0.7183,-0.2599 -0.2405,-0.081 -0.48185,-0.1561 -0.72451,-0.2254 -0.24265,-0.069 -0.48643,-0.1324 -0.73122,-0.1901 -0.24479,-0.058 -0.49053,-0.1099 -0.73742,-0.1561 -0.24689,-0.046 -0.49518,-0.087 -0.74414,-0.1214 -0.24897,-0.035 -0.49881,-0.064 -0.74983,-0.087 -0.25102,-0.023 -0.50298,-0.04 -0.75602,-0.052 -0.25304,-0.012 -0.50719,-0.018 -0.76223,-0.018 -0.43388,0 -0.86583,0.02 -1.29553,0.052 -0.4297,0.032 -0.85712,0.079 -1.28261,0.14 -0.42549,0.061 -0.84896,0.1373 -1.27021,0.2279 -0.42124,0.091 -0.84033,0.1961 -1.25728,0.3163 -0.32103,0.092 -0.63893,0.1903 -0.95395,0.2971 -0.31502,0.1068 -0.6274,0.2216 -0.93638,0.3437 -0.30898,0.1221 -0.61486,0.2516 -0.91777,0.3891 -0.30291,0.1375 -0.60237,0.2826 -0.89917,0.4356 -0.29675,0.1531 -0.58954,0.3133 -0.87747,0.4801 -0.28792,0.1669 -0.57106,0.3407 -0.85007,0.5214 -0.27902,0.1807 -0.55372,0.3682 -0.82373,0.5628 -0.27,0.1945 -0.53543,0.3956 -0.79633,0.6041 -0.26095,0.2084 -0.51638,0.4231 -0.76584,0.6433 -0.24947,0.2203 -0.49277,0.4465 -0.73071,0.6786 -0.23794,0.232 -0.47022,0.4698 -0.6966,0.7136 -0.22638,0.2438 -0.4472,0.4937 -0.66197,0.7493 -0.2151,0.256 -0.42342,0.5166 -0.62477,0.7819 -0.20135,0.2652 -0.39578,0.5347 -0.58343,0.8092 -0.18764,0.2746 -0.3681,0.5539 -0.54208,0.8377 -0.17399,0.2838 -0.34141,0.5724 -0.50178,0.8656 -0.12785,0.2352 -0.25125,0.4704 -0.37,0.7054 -0.11876,0.235 -0.23281,0.4696 -0.34262,0.7043 -0.10981,0.2347 -0.21525,0.4695 -0.31626,0.7039 -0.101,0.2343 -0.19756,0.4687 -0.2899,0.7028 -0.0924,0.234 -0.18023,0.4675 -0.26407,0.7012 -0.0838,0.2337 -0.16379,0.4675 -0.23926,0.7007 -0.0755,0.2333 -0.1467,0.4659 -0.21394,0.6987 -0.0673,0.2328 -0.13049,0.4658 -0.18966,0.6982 -0.0592,0.2323 -0.11412,0.4642 -0.16536,0.696 -0.0512,0.2318 -0.0987,0.4633 -0.14211,0.6946 -0.0869,0.4625 -0.15835,0.9238 -0.21497,1.3839 -0.0566,0.46 -0.0986,0.9187 -0.12609,1.3761 -0.0275,0.4574 -0.0408,0.9135 -0.0403,1.3679 4.4e-4,0.4544 0.0146,0.9074 0.0419,1.3586 0.0272,0.4511 0.0675,0.9001 0.1204,1.3477 0.0529,0.4476 0.11853,0.8936 0.19586,1.3374 0.0773,0.4438 0.16652,0.8857 0.26716,1.3255 0.10064,0.4397 0.2126,0.8772 0.33538,1.3125 0.12279,0.4354 0.25621,0.8685 0.39998,1.2992 0.14377,0.4307 0.29787,0.8589 0.46147,1.2847 0.1636,0.4258 0.33657,0.849 0.51883,1.2697 0.18226,0.4206 0.37385,0.8385 0.57361,1.2536 0.19976,0.4151 0.40815,0.8278 0.62425,1.2372 0.2161,0.4093 0.43999,0.8157 0.67128,1.219 0.23128,0.4033 0.4699,0.8034 0.7152,1.2004 0.2453,0.3971 0.49735,0.7909 0.75551,1.1814 0.25816,0.3904 0.52234,0.7775 0.7922,1.1611 0.26986,0.3836 0.54539,0.7641 0.82579,1.1405 0.28039,0.3765 0.56547,0.7493 0.85524,1.1183 0.28977,0.3691 0.58414,0.7342 0.88212,1.0956 0.29798,0.3613 0.59982,0.7189 0.90485,1.0722 0.30504,0.3534 0.61305,0.7024 0.92398,1.0475 0.31092,0.3452 0.62485,0.6861 0.94051,1.0227 0.31565,0.3366 0.63317,0.669 0.9524,0.9968 0.31922,0.3278 0.64006,0.6513 0.96169,0.97 0.32163,0.3187 0.64399,0.6327 0.96687,0.9421 0.32288,0.3093 0.64597,0.6139 0.96893,0.9136 0.70343,0.6537 1.4195,1.303 2.14302,1.9472 0.72353,0.6441 1.4547,1.2835 2.18902,1.9177 0.73432,0.6342 1.47181,1.2633 2.20762,1.8872 0.73581,0.6239 1.4698,1.2426 2.19779,1.8557 l 0.046,0.039 c 2.09134,1.7621 4.19071,3.5485 6.27662,5.3325 2.08591,1.7839 4.1584,3.5655 6.196,5.3169 l 3.06338,2.6335 3.04736,-2.619 c 2.03965,-1.7534 4.11517,-3.5367 6.20375,-5.3232 2.08859,-1.7864 4.19046,-3.576 6.28386,-5.3407 l 0.046,-0.039 c 0.72635,-0.6131 1.45901,-1.2318 2.19366,-1.8557 0.73466,-0.6239 1.47132,-1.2531 2.20504,-1.8872 0.73372,-0.6342 1.46444,-1.2732 2.18798,-1.9172 0.72354,-0.644 1.43993,-1.2928 2.14405,-1.9461 h 10e-4 c 0.32267,-0.2998 0.64529,-0.6043 0.9679,-0.9137 0.3226,-0.3094 0.64497,-0.6238 0.96635,-0.9426 0.32137,-0.3187 0.64167,-0.6421 0.96066,-0.9699 0.31899,-0.3279 0.63645,-0.6602 0.95188,-0.9969 0.31544,-0.3366 0.62927,-0.6775 0.93999,-1.0226 0.31073,-0.3452 0.61862,-0.6946 0.92346,-1.048 0.30485,-0.3534 0.60653,-0.711 0.90434,-1.0723 0.29781,-0.3614 0.59147,-0.7265 0.88108,-1.0956 0.28961,-0.369 0.575,-0.7418 0.85525,-1.1182 0.28025,-0.3765 0.55555,-0.7569 0.82527,-1.1405 0.26973,-0.3837 0.53416,-0.7707 0.7922,-1.1612 0.25804,-0.3905 0.5098,-0.7843 0.75499,-1.1813 0.2452,-0.3971 0.4835,-0.7976 0.71469,-1.201 0.23119,-0.4034 0.45525,-0.8096 0.67128,-1.219 0.21602,-0.4094 0.42404,-0.8215 0.62373,-1.2367 0.19969,-0.4151 0.39089,-0.8335 0.57309,-1.2541 0.1822,-0.4207 0.35529,-0.8439 0.51883,-1.2697 0.16355,-0.4259 0.31774,-0.854 0.46147,-1.2847 0.14373,-0.4308 0.27723,-0.8638 0.39998,-1.2992 0.12275,-0.4353 0.23477,-0.8733 0.33538,-1.3131 0.10061,-0.4397 0.18985,-0.8811 0.26717,-1.3249 0.0773,-0.4439 0.14248,-0.8898 0.19533,-1.3374 0.0529,-0.4477 0.0932,-0.8971 0.12041,-1.3483 0.0272,-0.4511 0.0414,-0.9041 0.0419,-1.3585 4.4e-4,-0.4545 -0.0128,-0.9105 -0.0403,-1.3679 -0.0275,-0.4574 -0.0695,-0.9161 -0.12609,-1.3762 -0.0566,-0.4601 -0.12758,-0.9218 -0.21446,-1.3844 -0.0434,-0.2312 -0.0909,-0.4627 -0.14211,-0.6945 -0.0512,-0.2318 -0.10672,-0.4637 -0.16588,-0.6961 -0.0592,-0.2323 -0.1219,-0.4648 -0.18914,-0.6976 -0.0672,-0.2328 -0.13848,-0.4659 -0.21394,-0.6992 -0.0754,-0.2333 -0.15544,-0.467 -0.23926,-0.7007 -0.0838,-0.2337 -0.17173,-0.4672 -0.26406,-0.7013 -0.0923,-0.234 -0.18892,-0.4684 -0.28991,-0.7028 -0.10099,-0.2344 -0.20647,-0.4691 -0.31626,-0.7038 -0.10979,-0.2347 -0.22388,-0.4699 -0.34261,-0.7049 -0.11874,-0.235 -0.24218,-0.4696 -0.37001,-0.7048 -0.16035,-0.2935 -0.32718,-0.5826 -0.50126,-0.8667 -0.17408,-0.284 -0.35539,-0.563 -0.54312,-0.8376 -0.18773,-0.2747 -0.38213,-0.5445 -0.58342,-0.8098 -0.2013,-0.2653 -0.40948,-0.5259 -0.62426,-0.7819 -0.21477,-0.2559 -0.43507,-0.5062 -0.66145,-0.7503 -0.22639,-0.2442 -0.45866,-0.4824 -0.6966,-0.7147 -0.23795,-0.2323 -0.48178,-0.4586 -0.73122,-0.679 -0.24945,-0.2204 -0.50443,-0.4349 -0.76533,-0.6434 -0.2609,-0.2085 -0.52632,-0.4099 -0.79634,-0.6046 -0.27001,-0.1947 -0.54469,-0.3824 -0.82372,-0.5633 -0.27902,-0.1808 -0.56265,-0.355 -0.85059,-0.5219 -0.28794,-0.167 -0.5802,-0.3265 -0.87695,-0.4796 -0.2968,-0.1527 -0.59676,-0.2981 -0.89969,-0.4356 -0.30293,-0.1375 -0.60871,-0.2674 -0.91777,-0.3896 -0.30906,-0.1223 -0.62118,-0.2369 -0.93638,-0.3437 -0.3152,-0.1068 -0.63363,-0.2059 -0.95498,-0.2971 -0.37604,-0.1058 -0.75048,-0.2003 -1.12293,-0.2832 -0.37245,-0.083 -0.74277,-0.1544 -1.11156,-0.2145 -0.36879,-0.06 -0.73565,-0.1085 -1.10071,-0.1457 -0.36505,-0.037 -0.72861,-0.063 -1.08985,-0.078 -0.36124,-0.014 -0.72062,-0.017 -1.07797,-0.01 z"
       inkscape:export-filename="..\..\Brand Assets\Vectors\Benefits\bodily-healing.svg"
       inkscape:export-xdpi="304.5"
       inkscape:export-ydpi="304.5" /><path
       style="fill:#fcee31;fill-opacity:1;stroke:#000000;stroke-width:0;stroke-opacity:1"
       d="m -941.33788,1749.9707 c 0,0 31.83268,4.9609 44.64844,3.7207 12.81575,-1.2403 38.44726,-2.4805 38.44726,-2.4805 0,0 -2.48047,14.4694 -8.26823,21.9108 -5.78776,7.4414 -9.09505,7.4414 -9.09505,7.4414 l -51.67643,0.4134 c 0,0 -14.4694,-18.6035 -14.88281,-23.5644 -0.41341,-4.961 0.82682,-7.4414 0.82682,-7.4414 z"
       id="path100246" /><g
       id="g97582"
       transform="translate(-420.02609,113.57012)"><path
         fill="#000000"
         d="m -438.37046,1624.1175 c -0.405,-0.7422 -0.8472,-1.4633 -1.3239,-2.1618 -0.478,-0.6984 -0.9879,-1.3717 -1.5324,-2.0196 -0.5444,-0.6468 -1.118,-1.2668 -1.7235,-1.8577 -0.6055,-0.5896 -1.2389,-1.1486 -1.8989,-1.6771 -0.6612,-0.5272 -1.3464,-1.0211 -2.0555,-1.4805 -0.7105,-0.4595 -1.4408,-0.8831 -2.1923,-1.2709 -0.7516,-0.3864 -1.5204,-0.7355 -2.3066,-1.0464 -0.786,-0.3106 -1.5854,-0.5816 -2.3981,-0.8126 -7.7865,-2.1963 -15.2545,-0.5112 -21.5937,4.8734 -1.7648,1.5149 -3.349,3.2014 -4.7485,5.0591 -1.4022,-1.859 -2.9877,-3.5455 -4.7551,-5.0591 -6.3392,-5.3846 -13.8058,-7.0697 -21.5925,-4.8734 -0.8126,0.2324 -1.612,0.5033 -2.3982,0.8139 -0.786,0.3109 -1.5549,0.6587 -2.3052,1.0465 -0.7515,0.3864 -1.4817,0.81 -2.1922,1.2695 -0.709,0.4607 -1.3942,0.9533 -2.0541,1.4818 -0.66,0.5272 -1.2934,1.0862 -1.899,1.6771 -0.6042,0.5909 -1.1791,1.2096 -1.7235,1.8577 -0.5431,0.648 -1.053,1.3213 -1.5311,2.0183 -0.4766,0.6985 -0.9176,1.4196 -1.3238,2.1618 -4.3621,8.0216 -4.7511,16.5917 -1.1579,25.4698 2.7526,6.804 7.7839,13.6306 14.9544,20.2925 2.9094,2.7035 5.9728,5.2836 8.9326,7.7801 l 0.049,0.039 c 4.1615,3.5068 8.3655,7.1213 12.4301,10.6162 l 4.8189,4.1363 c 0.1209,0.1037 0.2496,0.1953 0.3864,0.2763 0.1368,0.08 0.2802,0.1487 0.4289,0.2031 0.1501,0.056 0.3027,0.097 0.4595,0.1249 0.1552,0.028 0.3134,0.043 0.4727,0.043 0.1579,0 0.316,-0.015 0.4727,-0.043 0.1566,-0.028 0.3094,-0.07 0.4581,-0.1249 0.1487,-0.055 0.2921,-0.1235 0.4288,-0.2031 0.1369,-0.081 0.267,-0.1726 0.3878,-0.2763 1.6015,-1.3729 3.2028,-2.7499 4.8016,-4.1282 4.0699,-3.4977 8.2792,-7.1161 12.4475,-10.6283 l 0.048,-0.039 c 2.9611,-2.4964 6.0232,-5.0778 8.9339,-7.78 7.1678,-6.6618 12.2004,-13.4897 14.9531,-20.2924 3.5932,-8.8755 3.2042,-17.4456 -1.1579,-25.4673 z m -17.4535,41.8159 c -2.8165,2.6133 -5.8253,5.1535 -8.7307,7.6061 l -0.046,0.039 c -4.1868,3.5295 -8.4081,7.1572 -12.4874,10.6641 l -3.0474,2.6186 -3.0634,-2.6333 c -4.0752,-3.5029 -8.2899,-7.1252 -12.4726,-10.6494 l -0.046,-0.039 c -2.912,-2.4526 -5.9237,-4.9928 -8.7374,-7.6075 -10.3348,-9.5911 -20.9232,-24.187 -12.7409,-39.2411 0.6415,-1.1726 1.3917,-2.2706 2.2521,-3.2945 0.8591,-1.0224 1.8112,-1.9506 2.855,-2.7845 1.0436,-0.8337 2.1604,-1.5562 3.3474,-2.1684 1.1872,-0.612 2.4234,-1.0995 3.7075,-1.4659 1.6678,-0.4808 3.3701,-0.725 5.1056,-0.7356 4.0806,0 7.9074,1.4805 11.4251,4.4283 2.4126,2.045 4.4031,4.4418 5.9727,7.1891 0.1142,0.2192 0.2549,0.4183 0.4222,0.5989 0.1687,0.1792 0.3572,0.3333 0.5684,0.4622 0.2098,0.1274 0.4341,0.2242 0.6705,0.292 0.2377,0.066 0.4793,0.1 0.7251,0.1 0.2456,0 0.4873,-0.033 0.725,-0.1 0.2364,-0.068 0.4607,-0.1646 0.6705,-0.292 0.2111,-0.1289 0.3997,-0.283 0.5683,-0.4622 0.1687,-0.1806 0.3094,-0.3797 0.4223,-0.5989 1.5669,-2.7513 3.5587,-5.1508 5.9727,-7.1971 4.953,-4.1469 10.5154,-5.3844 16.532,-3.6913 1.2854,0.3651 2.5216,0.8551 3.7088,1.4659 1.187,0.6121 2.3039,1.3358 3.3475,2.1697 1.0436,0.834 1.9958,1.7634 2.8549,2.7873 0.8591,1.0237 1.6107,2.1219 2.2521,3.2957 8.181,15.0554 -2.4074,29.6513 -12.733,39.2438 z m 0,0"
         fill-opacity="1"
         fill-rule="nonzero"
         id="path96117"
         style="fill:#000000;fill-opacity:1;stroke-width:0.339936" /><path
         style="fill:none;fill-opacity:1;stroke:#000000;stroke-width:4.2206;stroke-miterlimit:4;stroke-dasharray:none;stroke-opacity:1"
         d="m -522.48396,1637.6087 c 0.5069,10.51 6.0503,20.1222 13.9863,27.0916 0.6841,0.6013 1.3813,1.1976 2.0835,1.7909 16.1617,2.2348 33.5761,2.6024 52.9836,0 0.702,-0.5929 1.3991,-1.1889 2.0834,-1.7897 7.9289,-6.9702 12.7803,-16.5824 13.2873,-27.0928 -28.2277,2.5557 -56.3761,2.7608 -84.4241,0 z"
         id="path96119"
         sodipodi:nodetypes="ccccccc" /></g><path
       id="path96121"
       style="fill:#b8452e;fill-opacity:1;stroke:#fcee31;stroke-width:2.789;stroke-miterlimit:4;stroke-dasharray:none;stroke-opacity:1"
       d="m -903.09215,1757.9472 c -0.1449,0 -0.2617,0.1168 -0.2617,0.2618 v 6.1036 h -6.1037 c -0.1449,0 -0.2616,0.1168 -0.2616,0.2618 v 5.8429 c 0,0.1449 0.1167,0.2617 0.2616,0.2617 h 6.1037 v 6.1037 c 0,0.145 0.1168,0.2617 0.2617,0.2617 h 5.843 c 0.145,0 0.2618,-0.1167 0.2618,-0.2617 v -6.1037 h 6.1036 c 0.145,0 0.2617,-0.1168 0.2617,-0.2617 v -5.8429 c 0,-0.145 -0.1167,-0.2618 -0.2617,-0.2618 h -6.1036 v -6.1036 c 0,-0.145 -0.1168,-0.2618 -0.2618,-0.2618 z" /></g></svg>
