<?xml version="1.0" encoding="UTF-8" standalone="no"?>
<!-- Created with Inkscape (http://www.inkscape.org/) -->

<svg
   width="113.6582mm"
   height="118.13086mm"
   viewBox="0 0 113.6582 118.13086"
   version="1.1"
   id="svg3298"
   inkscape:version="1.2 (dc2aedaf03, 2022-05-15)"
   sodipodi:docname="antioxidants.svg"
   xml:space="preserve"
   xmlns:inkscape="http://www.inkscape.org/namespaces/inkscape"
   xmlns:sodipodi="http://sodipodi.sourceforge.net/DTD/sodipodi-0.dtd"
   xmlns="http://www.w3.org/2000/svg"
   xmlns:svg="http://www.w3.org/2000/svg"><sodipodi:namedview
     id="namedview3300"
     pagecolor="#505050"
     bordercolor="#ffffff"
     borderopacity="1"
     inkscape:pageshadow="0"
     inkscape:pageopacity="0"
     inkscape:pagecheckerboard="1"
     inkscape:document-units="mm"
     showgrid="false"
     inkscape:zoom="1.6496452"
     inkscape:cx="62.134573"
     inkscape:cy="238.53614"
     inkscape:window-width="1920"
     inkscape:window-height="1051"
     inkscape:window-x="-9"
     inkscape:window-y="-9"
     inkscape:window-maximized="1"
     inkscape:current-layer="layer1"
     showguides="true"
     inkscape:guide-bbox="true"
     inkscape:snap-global="false"
     inkscape:snap-bbox="true"
     inkscape:snap-bbox-edge-midpoints="false"
     inkscape:showpageshadow="2"
     inkscape:deskcolor="#505050"><sodipodi:guide
       position="3429.7522,-675.3941"
       orientation="1,0"
       id="guide34946"
       inkscape:locked="false" /></sodipodi:namedview><defs
     id="defs3295" /><g
     inkscape:label="Layer 1"
     inkscape:groupmode="layer"
     id="layer1"
     transform="translate(1620.896,-2813.1293)"><path
       id="path108610"
       style="fill:#000000;fill-opacity:1;stroke-width:0.34696"
       sodipodi:type="inkscape:offset"
       inkscape:radius="3.897676"
       inkscape:original="M -899.41797 2136.9824 C -904.49497 2136.9824 -908.62305 2141.1075 -908.62305 2146.1777 C -908.62305 2146.896 -908.52244 2147.5889 -908.36523 2148.2598 L -936.34961 2163.0137 C -938.03427 2161.161 -940.44204 2159.9688 -943.14453 2159.9688 C -948.22153 2159.9688 -952.34961 2164.0939 -952.34961 2169.1641 C -952.34961 2173.436 -949.40282 2177.0032 -945.44531 2178.0332 L -945.44531 2206.2676 C -949.40282 2207.2976 -952.34961 2210.8642 -952.34961 2215.1348 C -952.34961 2220.2064 -948.22153 2224.3301 -943.14453 2224.3301 C -940.44204 2224.3301 -938.03427 2223.1398 -936.34961 2221.2871 L -908.36523 2236.0391 C -908.52244 2236.71 -908.62305 2237.4041 -908.62305 2238.1211 C -908.62305 2243.1927 -904.49497 2247.3164 -899.41797 2247.3164 C -894.34233 2247.3164 -890.21289 2243.1927 -890.21289 2238.1211 C -890.21289 2237.4041 -890.31289 2236.71 -890.46875 2236.0391 L -862.48633 2221.2871 C -860.80168 2223.1398 -858.39585 2224.3301 -855.69336 2224.3301 C -850.61636 2224.3301 -846.48828 2220.2064 -846.48828 2215.1348 C -846.48828 2210.8642 -849.43177 2207.2976 -853.39062 2206.2676 L -853.39062 2178.0332 C -849.43177 2177.0032 -846.48828 2173.436 -846.48828 2169.1641 C -846.48828 2164.0939 -850.61636 2159.9688 -855.69336 2159.9688 C -858.39585 2159.9688 -860.80168 2161.161 -862.48633 2163.0137 L -890.46875 2148.2598 C -890.31289 2147.5889 -890.21289 2146.896 -890.21289 2146.1777 C -890.21289 2141.1075 -894.34233 2136.9824 -899.41797 2136.9824 z M -906.21094 2152.3281 C -904.52629 2154.1808 -902.12047 2155.3711 -899.41797 2155.3711 C -896.71684 2155.3711 -894.30966 2154.1808 -892.625 2152.3281 L -864.64062 2167.082 C -864.79648 2167.7529 -864.89844 2168.4471 -864.89844 2169.1641 C -864.89844 2173.436 -861.95301 2177.0032 -857.99414 2178.0332 L -857.99414 2206.2676 C -861.95301 2207.2976 -864.89844 2210.8642 -864.89844 2215.1348 C -864.89844 2215.8531 -864.79648 2216.5479 -864.64062 2217.2188 L -892.625 2231.9707 C -894.30966 2230.1179 -896.71684 2228.9277 -899.41797 2228.9277 C -902.12047 2228.9277 -904.52629 2230.1179 -906.21094 2231.9707 L -934.19531 2217.2188 C -934.03809 2216.5478 -933.93945 2215.8531 -933.93945 2215.1348 C -933.93945 2210.8642 -936.88488 2207.2976 -940.84375 2206.2676 L -940.84375 2178.0332 C -936.88488 2177.0032 -933.93945 2173.436 -933.93945 2169.1641 C -933.93945 2168.4471 -934.03809 2167.7529 -934.19531 2167.082 L -906.21094 2152.3281 z M -899.41797 2166.8652 C -901.31547 2166.8652 -903.01778 2168.0288 -903.70898 2169.7988 L -919.81836 2211.1738 C -920.73786 2213.5401 -919.56367 2216.2027 -917.19727 2217.123 C -914.84207 2218.0377 -912.16179 2216.8697 -911.24219 2214.502 L -907.01367 2203.6426 L -891.82812 2203.6426 L -887.59766 2214.502 C -886.88906 2216.3235 -885.15029 2217.4336 -883.30859 2217.4336 C -882.75159 2217.4336 -882.18998 2217.3344 -881.64258 2217.123 C -879.27258 2216.2027 -878.09775 2213.5361 -879.02344 2211.1738 L -895.12891 2169.7988 C -895.82011 2168.0288 -897.52217 2166.8652 -899.41797 2166.8652 z M -899.41797 2184.1465 L -895.4043 2194.4473 L -903.43164 2194.4473 L -899.41797 2184.1465 z "
       d="m -899.41797,2133.084 c -7.14015,0 -13.01141,5.8326 -13.08984,12.9531 l -23.36719,12.3203 c -2.07679,-1.4067 -4.5658,-2.2871 -7.26953,-2.2871 -7.18826,0 -13.10352,5.9079 -13.10352,13.0938 0,4.9326 2.84172,9.1197 6.9043,11.3418 v 23.2871 c -4.06257,2.2216 -6.9043,6.4097 -6.9043,11.3418 0,7.1866 5.91597,13.0937 13.10352,13.0937 2.70274,0 5.19019,-0.8806 7.26758,-2.2871 l 23.36914,12.3203 c 0.0784,7.1213 5.9504,12.9531 13.08984,12.9531 7.13869,0 13.01145,-5.8311 13.08985,-12.9531 l 23.36914,-12.3183 c 2.07633,1.4055 4.56384,2.2851 7.26562,2.2851 7.18754,0 13.10352,-5.9071 13.10352,-13.0937 0,-4.9302 -2.84004,-9.1177 -6.90235,-11.3399 v -23.289 c 4.06241,-2.2226 6.90235,-6.411 6.90235,-11.3418 0,-7.1859 -5.91526,-13.0938 -13.10352,-13.0938 -2.70355,0 -5.19149,0.8806 -7.26758,2.2871 l -23.36718,-12.3203 c -0.0784,-7.1212 -5.95049,-12.9531 -13.08985,-12.9531 z m -7.26562,23.9004 c 2.07633,1.4055 4.56384,2.2851 7.26562,2.2851 2.70123,0 5.18907,-0.8795 7.26563,-2.2851 l 23.38086,12.3261 c 0.057,4.8674 2.85837,8.9963 6.8789,11.1954 v 23.2871 c -4.02105,2.199 -6.82261,6.3296 -6.8789,11.1972 l -23.37891,12.3243 c -2.07687,-1.4063 -4.56581,-2.2852 -7.26758,-2.2852 -2.70232,0 -5.19093,0.879 -7.26758,2.2852 l -23.38086,-12.3243 c -0.0563,-4.8676 -2.85785,-8.9982 -6.8789,-11.1972 v -23.2871 c 4.02053,-2.1991 6.82191,-6.328 6.8789,-11.1954 z m 7.26562,5.9824 c -3.49094,0 -6.65245,2.1634 -7.92187,5.4141 a 3.8980658,3.8980658 0 0 0 -0.002,0 l -16.10937,41.375 a 3.8980658,3.8980658 0 0 0 0,0 c -1.68277,4.3306 0.51443,9.3112 4.84179,10.9942 a 3.8980658,3.8980658 0 0 0 0.002,0 c 4.3287,1.6811 9.3091,-0.494 10.99804,-4.8399 v -0 l 3.25977,-8.3731 h 9.85742 l 3.26367,8.375 h -0.002 c 1.29569,3.3307 4.51394,5.416 7.92188,5.416 1.01977,0 2.06941,-0.1857 3.07031,-0.5722 a 3.8980658,3.8980658 0 0 0 0.006,-0 c 4.33311,-1.6826 6.53583,-6.6709 4.83789,-11.0039 l -16.10156,-41.3672 a 3.8980658,3.8980658 0 0 0 -0.002,-0 c -1.26931,-3.2504 -4.42925,-5.4141 -7.91992,-5.4141 z"
       transform="translate(-664.64798,680.04523)" /><path
       id="path108612"
       style="fill:#fcee31;fill-opacity:1;stroke-width:0.34696"
       d="m -1564.0654,2817.0279 c -5.077,0 -9.2052,4.1241 -9.2052,9.1943 0,0.7183 0.1002,1.4122 0.2574,2.0831 l -27.9843,14.7526 c -1.6847,-1.8527 -4.092,-3.0438 -6.7945,-3.0438 -5.077,0 -9.2051,4.1241 -9.2051,9.1943 0,4.2719 2.9465,7.8392 6.904,8.8692 v 28.235 c -3.9575,1.03 -6.904,4.5976 -6.904,8.8682 0,5.0716 4.1281,9.1943 9.2051,9.1943 2.7025,0 5.1098,-1.19 6.7945,-3.0427 l 27.9843,14.7525 c -0.1572,0.6709 -0.2574,1.3651 -0.2574,2.0821 0,5.0716 4.1282,9.1943 9.2052,9.1943 5.0756,0 9.2051,-4.1227 9.2051,-9.1943 0,-0.717 -0.1015,-1.4112 -0.2574,-2.0821 l 27.9833,-14.7525 c 1.6847,1.8527 4.0915,3.0427 6.7939,3.0427 5.077,0 9.2052,-4.1227 9.2052,-9.1943 0,-4.2706 -2.9451,-7.8382 -6.904,-8.8682 v -28.235 c 3.9589,-1.03 6.904,-4.5973 6.904,-8.8692 0,-5.0702 -4.1282,-9.1943 -9.2052,-9.1943 -2.7024,0 -5.1092,1.1911 -6.7939,3.0438 l -27.9833,-14.7526 c 0.1559,-0.6709 0.2574,-1.3648 0.2574,-2.0831 0,-5.0702 -4.1295,-9.1943 -9.2051,-9.1943 z m -6.7945,15.3464 c 1.6847,1.8527 4.092,3.0427 6.7945,3.0427 2.7011,0 5.1082,-1.19 6.7928,-3.0427 l 27.9844,14.7526 c -0.1559,0.6709 -0.2574,1.3645 -0.2574,2.0815 0,4.2719 2.9451,7.8392 6.904,8.8692 v 28.235 c -3.9589,1.03 -6.904,4.5976 -6.904,8.8682 0,0.7183 0.1015,1.4122 0.2574,2.0831 l -27.9844,14.7526 c -1.6846,-1.8528 -4.0917,-3.0443 -6.7928,-3.0443 -2.7025,0 -5.1098,1.1915 -6.7945,3.0443 l -27.9843,-14.7526 c 0.1572,-0.6709 0.2574,-1.3648 0.2574,-2.0831 0,-4.2706 -2.9451,-7.8382 -6.904,-8.8682 v -28.235 c 3.9589,-1.03 6.904,-4.5973 6.904,-8.8692 0,-0.717 -0.1002,-1.4106 -0.2574,-2.0815 z m 6.7945,14.5355 c -1.8975,0 -3.6,1.1642 -4.2912,2.9342 l -16.1091,41.3753 c -0.9195,2.3663 0.2536,5.0282 2.62,5.9485 2.3552,0.9147 5.035,-0.2539 5.9546,-2.6216 l 4.2303,-10.8588 h 15.1856 l 4.2297,10.8588 c 0.7086,1.8215 2.4475,2.9332 4.2892,2.9332 0.557,0 1.1186,-0.1002 1.666,-0.3116 2.37,-0.9203 3.5441,-3.5862 2.6185,-5.9485 l -16.1045,-41.3753 c -0.6912,-1.77 -2.3933,-2.9342 -4.2891,-2.9342 z m 0,17.2817 4.0126,10.3017 h -8.0274 z" /></g></svg>
