<?xml version="1.0" encoding="UTF-8" standalone="no"?>
<!-- Created with Inkscape (http://www.inkscape.org/) -->

<svg
   width="85.903687mm"
   height="106.87671mm"
   viewBox="0 0 85.903687 106.87671"
   version="1.1"
   id="svg3298"
   inkscape:version="1.2 (dc2aedaf03, 2022-05-15)"
   sodipodi:docname="mucus.svg"
   xml:space="preserve"
   xmlns:inkscape="http://www.inkscape.org/namespaces/inkscape"
   xmlns:sodipodi="http://sodipodi.sourceforge.net/DTD/sodipodi-0.dtd"
   xmlns="http://www.w3.org/2000/svg"
   xmlns:svg="http://www.w3.org/2000/svg"><sodipodi:namedview
     id="namedview3300"
     pagecolor="#505050"
     bordercolor="#ffffff"
     borderopacity="1"
     inkscape:pageshadow="0"
     inkscape:pageopacity="0"
     inkscape:pagecheckerboard="1"
     inkscape:document-units="mm"
     showgrid="false"
     inkscape:zoom="1.6496452"
     inkscape:cx="44.555035"
     inkscape:cy="237.92995"
     inkscape:window-width="1920"
     inkscape:window-height="1051"
     inkscape:window-x="-9"
     inkscape:window-y="-9"
     inkscape:window-maximized="1"
     inkscape:current-layer="layer1"
     showguides="true"
     inkscape:guide-bbox="true"
     inkscape:snap-global="false"
     inkscape:snap-bbox="true"
     inkscape:snap-bbox-edge-midpoints="false"
     inkscape:showpageshadow="2"
     inkscape:deskcolor="#505050"><sodipodi:guide
       position="3399.6304,-1088.5579"
       orientation="1,0"
       id="guide34946"
       inkscape:locked="false" /></sodipodi:namedview><defs
     id="defs3295" /><g
     inkscape:label="Layer 1"
     inkscape:groupmode="layer"
     id="layer1"
     transform="translate(1590.7742,-2411.2197)"><path
       id="path95027"
       style="fill:#fdfc21;fill-opacity:1;stroke:none;stroke-width:5.35691;stroke-dasharray:none;stroke-opacity:1"
       d="m -1578.2506,2482.5106 6e-4,0.019 c -0.1507,0.2698 -0.2921,0.538 -0.4244,0.8052 -0.132,0.2671 -0.2559,0.5331 -0.3696,0.7981 -0.1131,0.265 -0.2177,0.5294 -0.3124,0.7927 -0.094,0.2632 -0.18,0.5259 -0.2554,0.7877 -0.075,0.2618 -0.141,0.5228 -0.1969,0.7836 -0.057,0.2609 -0.1023,0.5213 -0.1378,0.7815 -0.036,0.2602 -0.062,0.5202 -0.077,0.7801 -0.016,0.2599 -0.022,0.5194 -0.018,0.7794 0,0.1931 0.019,0.3772 0.04,0.5525 0.023,0.1752 0.053,0.3418 0.091,0.5003 0.039,0.1585 0.085,0.3088 0.1392,0.4517 0.054,0.143 0.1158,0.2786 0.1838,0.4071 0.069,0.1279 0.1424,0.25 0.2234,0.3653 0.081,0.1158 0.1678,0.2239 0.2601,0.3271 0.093,0.1037 0.1903,0.2006 0.2931,0.293 0.1023,0.093 0.2102,0.1797 0.3221,0.2623 0.1118,0.081 0.2296,0.1592 0.3536,0.2325 0.1239,0.073 0.2538,0.1415 0.3896,0.2059 0.1359,0.065 0.2783,0.1239 0.4259,0.1796 0.1478,0.055 0.3006,0.1064 0.46,0.151 0.1593,0.046 0.3246,0.086 0.4955,0.1198 0.171,0.035 0.3478,0.065 0.5303,0.088 0.1824,0.024 0.3711,0.042 0.565,0.054 0.1939,0.014 0.3932,0.019 0.5985,0.019 0.2099,0 0.4126,0 0.6082,-0.017 0.1957,-0.014 0.3845,-0.028 0.5664,-0.05 0.1819,-0.022 0.3567,-0.05 0.5255,-0.082 0.1686,-0.032 0.3312,-0.07 0.4871,-0.1131 0.1558,-0.043 0.3047,-0.09 0.4481,-0.1426 0.1434,-0.052 0.2813,-0.1091 0.4128,-0.1712 0.1319,-0.062 0.2565,-0.1293 0.3763,-0.199 0.1199,-0.07 0.2343,-0.1452 0.3432,-0.2241 0.109,-0.081 0.2139,-0.1652 0.3152,-0.2561 0.101,-0.092 0.1986,-0.1877 0.2909,-0.2909 0.093,-0.1037 0.1796,-0.213 0.2616,-0.3299 0.082,-0.1172 0.1585,-0.2404 0.229,-0.3722 0.07,-0.132 0.1346,-0.2721 0.192,-0.4204 0.058,-0.1483 0.1077,-0.3055 0.1511,-0.4718 0.043,-0.1663 0.079,-0.3417 0.1077,-0.5274 0.028,-0.1859 0.047,-0.3815 0.058,-0.5881 v -0.027 c 0.014,-0.1714 0.014,-0.3502 0,-0.5338 0,-0.1835 -0.018,-0.3716 -0.038,-0.5615 -0.019,-0.19 -0.046,-0.3822 -0.078,-0.5727 -0.032,-0.1906 -0.071,-0.3799 -0.1145,-0.5651 -0.044,-0.1853 -0.093,-0.3665 -0.1474,-0.5408 -0.055,-0.1741 -0.1145,-0.3409 -0.1782,-0.4982 -0.063,-0.1572 -0.1319,-0.304 -0.2039,-0.4384 -0.073,-0.1346 -0.1482,-0.2561 -0.2275,-0.3619 -0.08,-0.1064 -0.1457,-0.2162 -0.1991,-0.3292 -0.054,-0.1131 -0.094,-0.2297 -0.1239,-0.3506 -0.3545,-0.1266 -0.7088,-0.2479 -1.0633,-0.3647 -0.3544,-0.1171 -0.7088,-0.2289 -1.0633,-0.3354 -0.3405,-0.1024 -0.6657,-0.1902 -0.9742,-0.2659 -0.3087,-0.075 -0.6004,-0.1391 -0.8741,-0.192 -0.2737,-0.053 -0.5291,-0.096 -0.7648,-0.1293 -0.2357,-0.034 -0.4518,-0.061 -0.6465,-0.079 -0.3893,-0.039 -0.6935,-0.053 -0.9005,-0.055 -0.2069,0 -0.3166,0 -0.3166,0 h -0.1997 c 0,0 -0.5958,-0.052 -0.8456,-0.079 z" /><path
       id="path95029"
       style="fill:#fcee31;fill-opacity:1;stroke:none;stroke-width:5.35691;stroke-dasharray:none;stroke-opacity:1"
       d="m -1546.4986,2416.6174 c -0.3357,0 -0.6785,0 -1.0257,0.016 -0.3472,0.014 -0.6989,0.036 -1.0535,0.067 -0.3547,0.031 -0.7121,0.071 -1.0703,0.1225 -0.3582,0.051 -0.7167,0.1104 -1.0745,0.1817 -0.3578,0.071 -0.7146,0.152 -1.0681,0.2442 -0.3536,0.093 -0.7042,0.1954 -1.0494,0.3104 -0.3454,0.1145 -0.6856,0.2416 -1.0189,0.3806 -0.3331,0.139 -0.6592,0.2902 -0.9763,0.4545 -0.2262,0.1171 -0.449,0.239 -0.6681,0.3667 -0.2189,0.1279 -0.434,0.2614 -0.645,0.4009 -0.211,0.1395 -0.418,0.2852 -0.6201,0.4376 -0.202,0.1525 -0.3993,0.3115 -0.5915,0.4781 -0.1921,0.1666 -0.3789,0.3408 -0.5602,0.5226 -0.1812,0.1819 -0.3572,0.3715 -0.5268,0.57 -0.1695,0.1984 -0.3329,0.4054 -0.4899,0.6214 -0.1569,0.2161 -0.3075,0.4415 -0.451,0.6764 -0.1432,0.235 -0.2795,0.4793 -0.4084,0.7342 -0.1293,0.2549 -0.2505,0.5199 -0.364,0.7961 -0.1131,0.2762 -0.2193,0.5637 -0.3166,0.8622 -0.097,0.2986 -0.1858,0.6083 -0.2658,0.9304 -0.08,0.3221 -0.1511,0.6566 -0.2129,1.0035 -0.062,0.3468 -0.1145,0.7058 -0.1573,1.0786 -0.043,0.3728 -0.075,0.7595 -0.098,1.1594 -0.023,0.3998 -0.035,0.8132 -0.038,1.2415 10e-5,0 0.014,0.2143 7e-4,0.6068 0,0.1962 -0.014,0.438 -0.027,0.723 -0.015,0.2849 -0.038,0.6129 -0.07,0.9813 -0.032,0.3681 -0.075,0.7771 -0.132,1.2232 -0.056,0.4463 -0.1265,0.9296 -0.2137,1.4482 -0.086,0.5187 -0.1896,1.0726 -0.3124,1.6584 -0.1225,0.5856 -0.2655,1.2031 -0.4308,1.8502 -0.1652,0.6474 -0.3532,1.3245 -0.567,2.0279 -0.1064,0.3518 -0.2201,0.7097 -0.3403,1.0745 -0.1199,0.3647 -0.2477,0.7363 -0.3821,1.1134 -0.1346,0.3771 -0.2759,0.7602 -0.4252,1.149 -0.1492,0.3887 -0.3061,0.7832 -0.4711,1.183 -0.1649,0.3996 -0.3384,0.8042 -0.5199,1.2142 -0.1814,0.4101 -0.3713,0.8254 -0.5699,1.245 -0.1986,0.4197 -0.4055,0.8442 -0.6222,1.2728 -0.2165,0.4287 -0.4423,0.8616 -0.6777,1.2986 -0.2354,0.4368 -0.4806,0.8776 -0.7355,1.3221 -0.255,0.4445 -0.5202,0.8924 -0.7955,1.3438 -0.2753,0.4514 -0.5609,0.9056 -0.8573,1.3632 -0.2964,0.4576 -0.6031,0.9183 -0.9213,1.3814 -0.3184,0.4631 -0.648,0.9293 -0.9889,1.3974 -0.3409,0.4679 -0.6933,0.9383 -1.0577,1.4104 -0.1867,0.2419 -0.3766,0.4757 -0.5693,0.7023 -0.1927,0.2265 -0.3882,0.446 -0.586,0.6582 -0.1977,0.2123 -0.3981,0.4172 -0.5998,0.616 -0.2017,0.1986 -0.4049,0.3908 -0.6096,0.5769 -0.2047,0.1859 -0.4107,0.3663 -0.6173,0.5406 -0.2065,0.1743 -0.4134,0.3432 -0.6207,0.5066 -0.4145,0.3269 -0.8292,0.6324 -1.2401,0.9207 -0.4108,0.2882 -0.8173,0.5589 -1.2157,0.8156 -0.3985,0.2566 -0.7889,0.4988 -1.1663,0.7306 -0.3775,0.2319 -0.742,0.4535 -1.0897,0.6674 -0.3479,0.214 -0.6789,0.4206 -0.9882,0.6235 -0.3078,0.2017 -0.5972,0.3939 -0.8686,0.5832 -0.2712,0.1892 -0.5245,0.3755 -0.7584,0.5644 -0.1172,0.094 -0.2293,0.1894 -0.3368,0.2859 -0.1077,0.097 -0.2103,0.1954 -0.3084,0.2959 -0.098,0.1 -0.1913,0.2026 -0.2797,0.3082 -0.089,0.105 -0.1718,0.214 -0.2504,0.3264 -0.078,0.1118 -0.1525,0.2287 -0.2214,0.3493 -0.069,0.1212 -0.1333,0.2461 -0.1921,0.3764 -0.059,0.1307 -0.1117,0.2661 -0.1614,0.4079 -0.049,0.1417 -0.093,0.2894 -0.132,0.444 -0.039,0.1546 -0.073,0.3161 -0.101,0.4849 -0.028,0.169 -0.053,0.3456 -0.071,0.5303 -0.019,0.1849 -0.031,0.3782 -0.04,0.5804 -0.013,0.2023 -0.013,0.4136 -0.013,0.6347 0,0.2114 0.013,0.4141 0.026,0.6089 0.015,0.1948 0.038,0.3818 0.066,0.5609 0.028,0.179 0.063,0.3501 0.1036,0.5143 0.04,0.1642 0.088,0.3209 0.1392,0.471 0.053,0.1502 0.1104,0.2937 0.1726,0.4308 0.063,0.1371 0.1306,0.2676 0.2032,0.3924 0.073,0.1253 0.1505,0.2442 0.2324,0.3578 0.082,0.1132 0.1681,0.2218 0.2582,0.325 0.09,0.1037 0.1841,0.2008 0.2818,0.2944 0.098,0.094 0.1989,0.183 0.3034,0.2678 0.1051,0.085 0.2124,0.1658 0.3229,0.2429 0.1105,0.077 0.2239,0.1503 0.3397,0.2206 0.2316,0.1406 0.4729,0.2685 0.7208,0.3869 0.2481,0.1185 0.5026,0.2273 0.7607,0.3306 0.2564,0.1023 0.5144,0.1923 0.769,0.272 0.2545,0.08 0.5055,0.1494 0.7494,0.2096 0.244,0.061 0.4808,0.1117 0.7056,0.1544 0.2249,0.043 0.4376,0.08 0.6347,0.1077 0.3941,0.058 0.724,0.092 0.9554,0.1091 0.2315,0.019 0.3647,0.022 0.3647,0.022 l -0.2109,0.026 c 0,0 0.1888,-0.014 0.5296,-7e-4 0.1705,0 0.3789,0.013 0.6208,0.023 0.2417,0.013 0.5171,0.031 0.821,0.058 0.304,0.027 0.6363,0.063 0.9932,0.1104 0.3567,0.047 0.7379,0.1064 1.1384,0.1782 0.4005,0.073 0.8205,0.1594 1.2553,0.2623 0.435,0.1023 0.8852,0.2219 1.3452,0.3605 0.2954,0.089 0.619,0.1849 0.9646,0.2922 0.3454,0.1077 0.7129,0.2256 1.0953,0.3577 0.3823,0.1319 0.7796,0.278 1.1857,0.4413 0.4062,0.163 0.8208,0.3436 1.2373,0.5441 0.2084,0.1 0.4172,0.2053 0.6257,0.3159 0.2084,0.1105 0.4165,0.2267 0.6235,0.3487 0.2069,0.1225 0.4127,0.2501 0.6166,0.384 0.2037,0.1347 0.4057,0.2742 0.6046,0.4211 0.1991,0.1468 0.3957,0.3002 0.5881,0.4607 0.1926,0.1604 0.3814,0.3283 0.5657,0.5031 0.1845,0.1748 0.364,0.357 0.5387,0.547 0.1746,0.19 0.344,0.3876 0.5072,0.5936 0.1226,0.1537 0.2587,0.3045 0.4086,0.4523 0.1499,0.1478 0.3131,0.2923 0.4892,0.4335 0.1762,0.1414 0.365,0.2797 0.5658,0.4141 0.2007,0.1347 0.4137,0.2654 0.6375,0.3924 0.2236,0.1266 0.4582,0.2498 0.7034,0.3689 0.2453,0.1185 0.5011,0.2344 0.7663,0.3451 0.265,0.1104 0.5392,0.217 0.8225,0.3188 0.2832,0.1023 0.5749,0.1991 0.8746,0.2915 0.2999,0.093 0.608,0.1805 0.9229,0.2631 0.3148,0.082 0.6363,0.1601 0.9644,0.2325 0.3282,0.073 0.6628,0.1396 1.0029,0.201 0.3399,0.062 0.6853,0.1172 1.0354,0.167 0.3501,0.05 0.7047,0.094 1.0633,0.1333 0.3587,0.039 0.7214,0.07 1.087,0.097 0.3656,0.026 0.7342,0.046 1.105,0.059 0.371,0.014 0.7445,0.02 1.1191,0.02 0.3754,6e-4 0.7503,0 1.1239,-0.017 0.3734,-0.013 0.7456,-0.032 1.1154,-0.058 0.3699,-0.026 0.7377,-0.058 1.1024,-0.096 0.3645,-0.038 0.7258,-0.082 1.0835,-0.132 0.3576,-0.05 0.7115,-0.1064 1.0604,-0.1678 0.3491,-0.062 0.6927,-0.1279 1.0314,-0.201 0.3386,-0.073 0.672,-0.1511 0.9985,-0.2346 0.3267,-0.083 0.6462,-0.1721 0.959,-0.2658 0.3129,-0.093 0.6185,-0.1922 0.9158,-0.2957 0.2975,-0.1037 0.5867,-0.212 0.8671,-0.325 0.2804,-0.1131 0.552,-0.2309 0.8135,-0.3528 0.2615,-0.1225 0.5133,-0.248 0.7544,-0.3785 0.241,-0.1307 0.4714,-0.2651 0.6903,-0.4038 0.2188,-0.1385 0.4256,-0.2815 0.6208,-0.4279 0.195,-0.1463 0.3781,-0.296 0.5475,-0.4495 0.1696,-0.1535 0.3255,-0.3108 0.4677,-0.4711 0.192,-0.216 0.3878,-0.4244 0.5866,-0.6256 0.1989,-0.2012 0.4007,-0.395 0.6054,-0.5818 0.2049,-0.1869 0.4122,-0.3669 0.6222,-0.54 0.2099,-0.1731 0.4217,-0.3392 0.636,-0.499 0.2142,-0.1597 0.4309,-0.3128 0.6487,-0.4599 0.2177,-0.1472 0.4371,-0.2883 0.6575,-0.4231 0.2205,-0.1349 0.4417,-0.2638 0.6639,-0.387 0.2222,-0.1226 0.4455,-0.2408 0.6688,-0.3528 0.2232,-0.1118 0.4466,-0.2187 0.6702,-0.3201 0.2234,-0.101 0.4465,-0.1976 0.6694,-0.2888 0.2228,-0.091 0.4452,-0.1772 0.6666,-0.2589 0.2213,-0.082 0.4421,-0.1585 0.6612,-0.231 0.4382,-0.1451 0.8708,-0.2723 1.295,-0.3842 0.4241,-0.1117 0.8394,-0.208 1.2428,-0.2908 0.4035,-0.082 0.7951,-0.1523 1.1712,-0.2102 0.3761,-0.058 0.7365,-0.1037 1.0786,-0.1413 0.3422,-0.038 0.6663,-0.065 0.968,-0.086 0.3018,-0.02 0.5812,-0.034 0.8358,-0.042 0.5091,-0.016 0.9174,-0.014 1.1983,0 0.281,0.013 0.4349,0.02 0.4349,0.02 l -0.4105,-0.026 c 0,0 0.1333,0 0.3646,-0.022 0.2315,-0.019 0.5608,-0.051 0.9548,-0.109 0.197,-0.03 0.4106,-0.065 0.6353,-0.1091 0.2248,-0.043 0.461,-0.094 0.705,-0.1545 0.2439,-0.061 0.4957,-0.1293 0.7502,-0.2087 0.2544,-0.08 0.5117,-0.1701 0.7682,-0.2722 0.2581,-0.1036 0.5127,-0.2121 0.7606,-0.3304 0.2479,-0.1185 0.4892,-0.2465 0.721,-0.387 0.1158,-0.07 0.2289,-0.1435 0.3395,-0.2206 0.1104,-0.077 0.2183,-0.158 0.3229,-0.2428 0.105,-0.085 0.2063,-0.1744 0.3041,-0.268 0.098,-0.093 0.1923,-0.1919 0.2826,-0.295 0.09,-0.1037 0.1769,-0.2108 0.2589,-0.3243 0.082,-0.1131 0.1594,-0.2328 0.2324,-0.3577 0.073,-0.1252 0.1414,-0.2554 0.2045,-0.3925 0.063,-0.1371 0.1212,-0.2805 0.1734,-0.4308 0.052,-0.1502 0.1,-0.3069 0.1412,-0.4711 0.042,-0.1641 0.075,-0.3353 0.1051,-0.5142 0.03,-0.179 0.053,-0.3662 0.069,-0.5609 0.016,-0.1947 0.026,-0.3975 0.028,-0.609 0,-0.2211 0,-0.4324 -0.013,-0.6346 -0.013,-0.2022 -0.023,-0.3955 -0.042,-0.5803 -0.019,-0.1849 -0.043,-0.3613 -0.071,-0.5303 -0.03,-0.169 -0.063,-0.3305 -0.1023,-0.485 -0.039,-0.1546 -0.083,-0.3022 -0.132,-0.444 -0.049,-0.1418 -0.1037,-0.2781 -0.1628,-0.4085 -0.059,-0.1306 -0.1225,-0.2551 -0.1914,-0.3758 -0.069,-0.1212 -0.1432,-0.2369 -0.222,-0.3493 -0.078,-0.1131 -0.162,-0.2214 -0.2505,-0.3271 -0.089,-0.1051 -0.1816,-0.2079 -0.2798,-0.3083 -0.098,-0.101 -0.2005,-0.1983 -0.3083,-0.295 -0.1077,-0.097 -0.2203,-0.1923 -0.3374,-0.2867 -0.2345,-0.1889 -0.4878,-0.3752 -0.7599,-0.5644 -0.2722,-0.1893 -0.5633,-0.3815 -0.8726,-0.5832 -0.3095,-0.2028 -0.6398,-0.4095 -0.9875,-0.6235 -0.3479,-0.2138 -0.7131,-0.4348 -1.0905,-0.6667 -0.3775,-0.2318 -0.7672,-0.4747 -1.1657,-0.7314 -0.3984,-0.2565 -0.8055,-0.5273 -1.2164,-0.8155 -0.4107,-0.2883 -0.8256,-0.5939 -1.2401,-0.9207 -0.2071,-0.1633 -0.4142,-0.3317 -0.6207,-0.5059 -0.2064,-0.1743 -0.4119,-0.3546 -0.6166,-0.5407 -0.2045,-0.1861 -0.4084,-0.3781 -0.6103,-0.5769 -0.2017,-0.1987 -0.4013,-0.4037 -0.5991,-0.6158 -0.1978,-0.2122 -0.3932,-0.4319 -0.5859,-0.6584 -0.1927,-0.2265 -0.3827,-0.4604 -0.5692,-0.7021 -0.338,-0.4381 -0.6655,-0.8741 -0.9833,-1.3082 -0.3178,-0.4343 -0.626,-0.8666 -0.9242,-1.2966 -0.2983,-0.4298 -0.5872,-0.8575 -0.8663,-1.2825 -0.2793,-0.425 -0.5492,-0.8476 -0.8102,-1.2672 -0.2608,-0.4196 -0.5132,-0.8362 -0.7564,-1.2498 -0.2432,-0.4135 -0.4773,-0.8239 -0.7034,-1.2311 -0.2263,-0.4071 -0.4439,-0.8107 -0.6536,-1.2107 -0.2096,-0.4003 -0.4108,-0.7967 -0.6046,-1.1894 -0.1939,-0.3925 -0.3803,-0.7817 -0.5588,-1.1663 -0.1786,-0.3846 -0.3496,-0.7645 -0.5136,-1.1406 -0.1639,-0.376 -0.3205,-0.7479 -0.4704,-1.1147 -0.15,-0.367 -0.2935,-0.7291 -0.4301,-1.0864 -0.1366,-0.3572 -0.2665,-0.7099 -0.3904,-1.0569 -0.1239,-0.3472 -0.2411,-0.6887 -0.3528,-1.0251 -0.2235,-0.6729 -0.4233,-1.3243 -0.602,-1.9513 -0.1786,-0.6271 -0.3357,-1.2296 -0.4745,-1.8066 -0.1389,-0.5769 -0.2594,-1.1279 -0.3634,-1.6506 -0.1037,-0.5227 -0.1917,-1.0173 -0.2658,-1.4815 -0.074,-0.4642 -0.1347,-0.8977 -0.1837,-1.2993 -0.048,-0.4015 -0.088,-0.7712 -0.1158,-1.1058 -0.03,-0.3347 -0.05,-0.6348 -0.065,-0.8983 -0.028,-0.5271 -0.032,-0.9078 -0.031,-1.1253 v 0 c 0,0 0,-0.1955 -0.023,-0.5407 -0.013,-0.1726 -0.026,-0.3825 -0.048,-0.6243 -0.023,-0.2416 -0.053,-0.5149 -0.091,-0.8141 -0.039,-0.2993 -0.088,-0.6242 -0.1475,-0.9693 -0.061,-0.3453 -0.1306,-0.7108 -0.2164,-1.0905 -0.085,-0.3798 -0.1849,-0.7741 -0.3,-1.1769 -0.1145,-0.4026 -0.2459,-0.8139 -0.3953,-1.2281 -0.1493,-0.4142 -0.3113,-0.8248 -0.4892,-1.2276 -0.089,-0.2014 -0.1818,-0.4006 -0.279,-0.5977 -0.097,-0.1972 -0.1986,-0.3921 -0.3048,-0.5839 -0.1063,-0.1919 -0.2174,-0.3807 -0.3334,-0.5664 -0.1158,-0.1857 -0.2367,-0.3685 -0.3632,-0.547 -0.1265,-0.1786 -0.2582,-0.3537 -0.396,-0.524 -0.1376,-0.1705 -0.281,-0.3363 -0.4307,-0.4976 -0.1497,-0.1613 -0.3052,-0.3177 -0.4676,-0.469 -0.1624,-0.1514 -0.3321,-0.2975 -0.508,-0.4378 -0.176,-0.1403 -0.3589,-0.2753 -0.5492,-0.4036 -0.1901,-0.1279 -0.3876,-0.2506 -0.5929,-0.366 -0.2052,-0.1158 -0.4177,-0.2241 -0.6387,-0.3256 -0.2211,-0.101 -0.45,-0.1958 -0.6876,-0.2827 -0.2375,-0.086 -0.4835,-0.1663 -0.7383,-0.2373 -0.2548,-0.071 -0.5185,-0.1333 -0.7913,-0.1878 -0.2376,-0.047 -0.4864,-0.09 -0.7452,-0.128 -0.259,-0.038 -0.5279,-0.07 -0.8052,-0.097 -0.2773,-0.027 -0.5631,-0.047 -0.8559,-0.062 -0.2928,-0.015 -0.5925,-0.024 -0.8978,-0.027 z" /><path
       style="fill:#73f140;fill-opacity:1;stroke:#000000;stroke-width:0;stroke-dasharray:none;stroke-opacity:1"
       d="m -1517.9252,2500.5786 2.3159,12.114 -8.9074,3.3848 -8.373,-5.8789 8.7293,-16.3896 z"
       id="path95033" /><path
       style="fill:#73f140;fill-opacity:1;stroke:#000000;stroke-width:0;stroke-dasharray:none;stroke-opacity:1"
       d="m -1567.2722,2491.6712 -5.7009,3.3847 -6.5913,-1.6033 -3.2068,-3.9192 1.7815,-9.2638 9.4419,0.8908 5.7007,2.316 z"
       id="path95035" /><path
       id="path95153"
       style="color:#000000;fill:#000000;stroke-width:1.34663"
       d="m -1546.9341,2411.2208 c -0.7852,0 -1.5908,0.039 -2.4092,0.1198 v 7e-4 c -2.6192,0.2588 -5.3643,0.9547 -7.954,2.2957 -5.1217,2.6522 -9.3081,8.2384 -9.309,16.8113 v 0 c 0,0 0.5845,11.8201 -10.359,26.0012 -2.3381,3.023 -5.2365,4.3838 -8.1587,6.3083 -2.935,1.9246 -5.6828,4.7726 -5.6457,9.3995 0.039,4.7916 3.557,7.7756 6.8524,9.0876 0.1499,0.058 0.2979,0.086 0.4475,0.1447 -1.2686,2.4397 -1.9896,4.938 -1.9276,7.4947 0.05,2.4785 1.2313,4.6557 3.2213,6.1231 2.0019,1.4679 4.7132,2.1971 7.5114,2.1971 2.7732,0 5.4588,-0.6806 7.4489,-2.1386 1.9898,-1.4577 3.1589,-3.6258 3.2832,-6.1238 v -0.026 -0.027 c 3.9299,2.8671 9.9493,4.0625 15.8564,4.0625 7.2003,0 14.6988,-1.7206 18.5664,-6.0849 4.589,-5.1612 10.8692,-4.3347 10.8692,-4.3347 l 0.1997,0.027 h 0.2136 c 0,0 3.2082,-0.03 6.5038,-1.341 3.2957,-1.312 6.8152,-4.2964 6.8525,-9.0883 0.039,-4.6269 -2.7116,-7.4745 -5.634,-9.3993 -2.9346,-1.9245 -5.8323,-3.2853 -8.1704,-6.3083 -10.9438,-14.1813 -10.3618,-26.0006 -10.3618,-26.0006 v 0 c 0,-0.478 -0.093,-4.0491 -1.54,-8.0556 -1.5515,-4.3023 -5.0165,-9.3891 -11.5644,-10.691 -1.4308,-0.2846 -3.0568,-0.4586 -4.7841,-0.4551 z m 0.4355,5.3966 c 1.2211,0.013 2.3539,0.1239 3.3041,0.3131 4.3648,0.8679 6.375,3.9402 7.57,7.254 1.1948,3.3139 1.2227,6.4439 1.2227,6.4439 v 0 c -0.014,1.7404 0.3014,13.9252 11.1183,27.9442 2.9846,3.8683 6.8272,5.7345 9.302,7.3576 2.4747,1.6137 3.768,2.6343 3.7431,6.1725 -0.039,3.3826 -1.8777,4.578 -3.9421,5.4043 -2.0516,0.8166 -4.1782,0.8748 -4.1782,0.8748 l 0.4106,0.026 c 0,0 -9.8377,-0.8069 -15.9812,6.1037 -2.2755,2.566 -8.1453,4.2866 -14.1516,4.2769 -5.9944,0 -11.6153,-1.7299 -13.5678,-4.1892 -2.6114,-3.2951 -6.7903,-4.4999 -9.1531,-5.2094 -3.681,-1.1085 -6.7035,-0.9917 -6.7035,-0.9917 l 0.2109,-0.026 c 0,0 -2.1269,-0.058 -4.1787,-0.8748 -2.0646,-0.8263 -3.9047,-2.0217 -3.9298,-5.4043 -0.036,-3.538 1.2686,-4.5583 3.7307,-6.1718 2.4746,-1.6234 6.318,-3.4897 9.3027,-7.3584 11.6602,-15.1115 11.1191,-28.2495 11.1175,-28.2879 0.032,-6.8508 2.7949,-10.0055 6.414,-11.8796 2.5372,-1.3137 5.6505,-1.7993 8.3367,-1.7779 z m -31.752,65.8932 c 0.2498,0.027 0.8455,0.079 0.8455,0.079 h 0.1997 c 0,0 1.753,-0.1 4.4767,0.7195 0.7089,0.2131 1.4176,0.4472 2.1266,0.7001 0.061,0.2419 0.1635,0.4661 0.3236,0.6798 0.6344,0.8458 1.057,2.702 0.9825,4.0725 v 0.027 c -0.086,1.6526 -0.7341,2.6152 -1.6046,3.2569 -0.8705,0.6314 -2.0888,1.0006 -3.7676,1.0006 -1.6417,0 -2.9229,-0.3982 -3.8184,-1.0494 -0.8954,-0.6609 -1.5172,-1.6138 -1.5545,-3.1593 -0.036,-2.0799 0.5851,-4.1505 1.7911,-6.3083 z m 54.532,8.4272 c -1.0444,0.027 -1.8158,0.3886 -2.3131,1.1079 0,0 -2.0517,2.9842 -4.1162,6.6192 -2.0519,3.6354 -4.2532,7.6987 -4.2532,11.0716 0,4.588 4.8375,8.3591 10.732,8.3591 5.9074,0 10.7453,-3.7711 10.7453,-8.3591 0,-3.3729 -2.2017,-7.4362 -4.2659,-11.0716 -2.0521,-3.635 -4.1161,-6.6192 -4.1161,-6.6192 -0.5104,-0.7579 -1.3184,-1.1176 -2.4128,-1.1079 z m 0.05,6.8817 c 0.659,1.0497 0.7953,1.1472 1.579,2.5273 1.9649,3.4699 3.7933,7.7569 3.7933,9.3897 0,2.3329 -2.3754,4.1795 -5.3723,4.1795 -2.9849,0 -5.3604,-1.8466 -5.3604,-4.1795 0,-1.6328 1.8284,-5.9198 3.7933,-9.3897 0.7835,-1.3801 0.9077,-1.4776 1.5671,-2.5273 z" /></g></svg>
