<?xml version="1.0" encoding="UTF-8" standalone="no"?>
<!-- Created with Inkscape (http://www.inkscape.org/) -->

<svg
   width="80.467163mm"
   height="80.448242mm"
   viewBox="0 0 80.467163 80.448242"
   version="1.1"
   id="svg3298"
   inkscape:version="1.2 (dc2aedaf03, 2022-05-15)"
   sodipodi:docname="blood-flow.svg"
   xml:space="preserve"
   xmlns:inkscape="http://www.inkscape.org/namespaces/inkscape"
   xmlns:sodipodi="http://sodipodi.sourceforge.net/DTD/sodipodi-0.dtd"
   xmlns="http://www.w3.org/2000/svg"
   xmlns:svg="http://www.w3.org/2000/svg"><sodipodi:namedview
     id="namedview3300"
     pagecolor="#505050"
     bordercolor="#ffffff"
     borderopacity="1"
     inkscape:pageshadow="0"
     inkscape:pageopacity="0"
     inkscape:pagecheckerboard="1"
     inkscape:document-units="mm"
     showgrid="false"
     inkscape:zoom="1.8101934"
     inkscape:cx="80.930581"
     inkscape:cy="172.63349"
     inkscape:window-width="1920"
     inkscape:window-height="1051"
     inkscape:window-x="-9"
     inkscape:window-y="-9"
     inkscape:window-maximized="1"
     inkscape:current-layer="layer1"
     showguides="true"
     inkscape:guide-bbox="true"
     inkscape:snap-global="false"
     inkscape:snap-bbox="true"
     inkscape:snap-bbox-edge-midpoints="false"
     inkscape:showpageshadow="2"
     inkscape:deskcolor="#505050"><sodipodi:guide
       position="3402.5104,-835.73445"
       orientation="1,0"
       id="guide34946"
       inkscape:locked="false" /></sodipodi:namedview><defs
     id="defs3295"><clipPath
       clipPathUnits="userSpaceOnUse"
       id="clipPath88121"><path
         d="m 65.13248,240.99976 h 262.49925 v 24 H 65.13248 Z m 0,0"
         clip-rule="nonzero"
         id="path88123"
         style="stroke-width:0.999997" /></clipPath><clipPath
       clipPathUnits="userSpaceOnUse"
       id="clipPath88128"><path
         d="M 65.13248,98.000261 H 327.63173 V 117.00001 H 65.13248 Z m 0,0"
         clip-rule="nonzero"
         id="path88130"
         style="stroke-width:0.999997" /></clipPath><clipPath
       clipPathUnits="userSpaceOnUse"
       id="clipPath88135"><path
         d="M 138.99998,37.500012 H 274.99973 V 65.000261 H 138.99998 Z m 0,0"
         clip-rule="nonzero"
         id="path88137"
         style="stroke-width:0.999997" /></clipPath><clipPath
       clipPathUnits="userSpaceOnUse"
       id="clipPath88149"><path
         d="m 65.13248,221.00026 h 262.49925 v 18.99975 H 65.13248 Z m 0,0"
         clip-rule="nonzero"
         id="path88151"
         style="stroke-width:0.999997" /></clipPath><clipPath
       clipPathUnits="userSpaceOnUse"
       id="clipPath88156"><path
         d="m 65.13248,72.000011 h 262.49925 v 24 H 65.13248 Z m 0,0"
         clip-rule="nonzero"
         id="path88158"
         style="stroke-width:0.999997" /></clipPath></defs><g
     inkscape:label="Layer 1"
     inkscape:groupmode="layer"
     id="layer1"
     transform="translate(1593.6541,-2690.4716)"><path
       fill="#790c0c"
       d="m -1514.5288,2758.8512 c -25.8788,-5.9408 -51.8062,-5.9408 -77.7833,0 v -56.3261 c 25.9771,5.918 51.9045,5.918 77.7833,0 z m 0,0"
       fill-opacity="1"
       fill-rule="nonzero"
       id="path16395"
       style="fill:#73f140;fill-opacity:1;stroke-width:0.307491" /><path
       fill="#931818"
       d="m -1514.5288,2710.2929 c -12.8645,1.9674 -25.8047,2.9548 -38.8172,2.9608 -13.0639,-0.01 -26.052,-0.9982 -38.9661,-2.9632 v -7.7654 c 25.9771,5.918 51.9045,5.918 77.7833,0 z m 0,40.7905 c -12.8645,-1.9674 -25.8047,-2.9548 -38.8172,-2.9608 -13.0639,0.01 -26.052,0.9982 -38.9661,2.9632 v 7.7654 c 25.9771,-5.918 51.9045,-5.918 77.7833,0 z m -61.6904,-21.7357 c 0,-0.1766 -0.01,-0.352 -0.026,-0.5261 -0.017,-0.1754 -0.044,-0.3483 -0.079,-0.5213 -0.035,-0.1717 -0.078,-0.3423 -0.1273,-0.5105 -0.052,-0.1681 -0.1107,-0.3327 -0.1778,-0.496 -0.07,-0.1622 -0.1421,-0.3208 -0.2249,-0.4757 -0.087,-0.1549 -0.1726,-0.3051 -0.271,-0.4516 -0.098,-0.1453 -0.2023,-0.2871 -0.3138,-0.4228 -0.1116,-0.1358 -0.2293,-0.2655 -0.353,-0.3891 -0.1238,-0.125 -0.2546,-0.2427 -0.3905,-0.3545 -0.136,-0.1116 -0.2763,-0.2161 -0.4228,-0.3134 -0.1455,-0.097 -0.2963,-0.1874 -0.4515,-0.2703 -0.1551,-0.083 -0.3138,-0.1585 -0.4759,-0.2257 -0.1621,-0.067 -0.3277,-0.1262 -0.4959,-0.1766 -0.1683,-0.051 -0.3374,-0.094 -0.5108,-0.1286 -0.1717,-0.034 -0.346,-0.06 -0.5195,-0.077 -0.1761,-0.017 -0.3513,-0.026 -0.5265,-0.026 -0.1752,0 -0.3504,0.01 -0.5264,0.026 -0.1735,0.017 -0.3478,0.044 -0.5195,0.077 -0.1735,0.035 -0.3426,0.077 -0.5108,0.1286 -0.1682,0.051 -0.3338,0.1093 -0.4959,0.1766 -0.1622,0.067 -0.3208,0.1428 -0.4759,0.2257 -0.1552,0.083 -0.306,0.173 -0.4515,0.2703 -0.1465,0.097 -0.2868,0.2018 -0.4228,0.3134 -0.136,0.1118 -0.2667,0.2295 -0.3905,0.3545 -0.1237,0.1236 -0.2423,0.2533 -0.353,0.3891 -0.1116,0.1357 -0.2161,0.2775 -0.3138,0.4228 -0.099,0.1465 -0.1882,0.2967 -0.271,0.4516 -0.087,0.1549 -0.1578,0.3135 -0.2249,0.4757 -0.07,0.1633 -0.1255,0.3279 -0.1778,0.496 -0.052,0.1682 -0.093,0.3388 -0.1273,0.5105 -0.035,0.173 -0.061,0.3459 -0.078,0.5213 -0.017,0.1741 -0.026,0.3495 -0.026,0.5261 0,0.1754 0.01,0.3507 0.026,0.5249 0.017,0.1754 0.044,0.3483 0.078,0.5213 0.035,0.1717 0.078,0.3423 0.1273,0.5105 0.052,0.1682 0.1107,0.3327 0.1778,0.4961 0.07,0.1621 0.142,0.3206 0.2249,0.4756 0.078,0.1549 0.1725,0.3051 0.271,0.4516 0.098,0.1454 0.2022,0.2871 0.3138,0.4228 0.1107,0.1357 0.2293,0.2654 0.353,0.3892 0.1238,0.1249 0.2545,0.2426 0.3905,0.3543 0.136,0.1118 0.2763,0.2162 0.4228,0.3135 0.1455,0.097 0.2963,0.1874 0.4515,0.2702 0.1551,0.083 0.3137,0.1586 0.4759,0.2259 0.1621,0.067 0.3277,0.1261 0.4959,0.1766 0.1682,0.051 0.3373,0.094 0.5108,0.1285 0.1717,0.034 0.346,0.06 0.5195,0.077 0.176,0.017 0.3512,0.026 0.5264,0.026 0.1752,0 0.3504,-0.01 0.5265,-0.026 0.1735,-0.017 0.3478,-0.044 0.5195,-0.077 0.1734,-0.035 0.3425,-0.077 0.5108,-0.1285 0.1682,-0.051 0.3338,-0.1093 0.4959,-0.1766 0.1621,-0.067 0.3208,-0.143 0.4759,-0.2259 0.1552,-0.083 0.306,-0.1729 0.4515,-0.2702 0.1465,-0.097 0.2868,-0.2017 0.4228,-0.3135 0.1359,-0.1117 0.2667,-0.2294 0.3905,-0.3543 0.1237,-0.1238 0.2414,-0.2535 0.353,-0.3892 0.1115,-0.1357 0.2161,-0.2774 0.3138,-0.4228 0.099,-0.1465 0.1882,-0.2967 0.271,-0.4516 0.078,-0.155 0.1578,-0.3135 0.2249,-0.4756 0.07,-0.1634 0.1255,-0.3279 0.1778,-0.4961 0.052,-0.1682 0.093,-0.3388 0.1273,-0.5105 0.035,-0.173 0.061,-0.3459 0.079,-0.5213 0.017,-0.1742 0.026,-0.3495 0.026,-0.5249 z m 25.4802,-1.3417 c 0,-0.2642 -0.026,-0.526 -0.078,-0.7843 -0.052,-0.2595 -0.1272,-0.5117 -0.2275,-0.7555 -0.1011,-0.2438 -0.2257,-0.4757 -0.373,-0.6955 -0.1465,-0.2198 -0.3129,-0.4228 -0.4995,-0.6089 -0.1874,-0.1874 -0.3905,-0.3544 -0.6101,-0.5009 -0.2197,-0.1465 -0.4515,-0.2702 -0.6956,-0.3724 -0.2431,-0.1008 -0.4959,-0.1766 -0.7539,-0.2282 -0.2598,-0.051 -0.5213,-0.078 -0.7854,-0.078 -0.2649,0 -0.5264,0.026 -0.7844,0.078 -0.2598,0.051 -0.5108,0.1274 -0.7557,0.2282 -0.2441,0.1022 -0.4759,0.2259 -0.6956,0.3724 -0.2196,0.1465 -0.4227,0.3135 -0.6092,0.5009 -0.1874,0.1861 -0.3539,0.3891 -0.5004,0.6089 -0.1464,0.2198 -0.2702,0.4517 -0.3713,0.6955 -0.1019,0.2438 -0.1778,0.496 -0.2292,0.7555 -0.052,0.2583 -0.078,0.5201 -0.078,0.7843 0,0.2643 0.026,0.5261 0.078,0.7844 0.052,0.2595 0.1273,0.5116 0.2292,0.7555 0.1011,0.2438 0.2249,0.4756 0.3713,0.6955 0.1465,0.2198 0.313,0.4227 0.5004,0.6089 0.1865,0.1874 0.3896,0.3544 0.6092,0.5009 0.2197,0.1465 0.4515,0.2702 0.6956,0.3724 0.2449,0.1008 0.4959,0.1765 0.7557,0.2282 0.258,0.051 0.5195,0.078 0.7844,0.078 0.2641,0 0.5256,-0.026 0.7854,-0.078 0.258,-0.052 0.5108,-0.1274 0.7539,-0.2282 0.2441,-0.1022 0.4759,-0.2259 0.6956,-0.3724 0.2196,-0.1465 0.4227,-0.3135 0.6101,-0.5009 0.1866,-0.1862 0.353,-0.3891 0.4995,-0.6089 0.1473,-0.2199 0.2719,-0.4517 0.373,-0.6955 0.1003,-0.2439 0.1761,-0.496 0.2275,-0.7555 0.052,-0.2583 0.078,-0.5201 0.078,-0.7844 z m 32.1859,-2.6821 c 0,-0.1754 -0.01,-0.3507 -0.026,-0.5261 -0.017,-0.1741 -0.044,-0.3483 -0.078,-0.5201 -0.035,-0.1729 -0.078,-0.3423 -0.1273,-0.5105 -0.052,-0.1681 -0.1098,-0.3338 -0.1778,-0.496 -0.07,-0.1622 -0.1412,-0.3207 -0.224,-0.4757 -0.087,-0.155 -0.1735,-0.3063 -0.272,-0.4516 -0.097,-0.1465 -0.2013,-0.2871 -0.3129,-0.4228 -0.1115,-0.1357 -0.2301,-0.2666 -0.353,-0.3904 -0.1255,-0.1237 -0.2554,-0.2426 -0.3905,-0.3531 -0.1359,-0.1118 -0.2763,-0.2163 -0.4227,-0.3135 -0.1456,-0.099 -0.2972,-0.1886 -0.4524,-0.2715 -0.1543,-0.083 -0.3129,-0.1573 -0.475,-0.2246 -0.1621,-0.067 -0.3278,-0.1261 -0.496,-0.1778 -0.1682,-0.051 -0.3382,-0.094 -0.5107,-0.1272 -0.1718,-0.035 -0.3461,-0.06 -0.5204,-0.079 -0.1752,-0.017 -0.3504,-0.025 -0.5256,-0.025 -0.1752,0 -0.3514,0.01 -0.5266,0.025 -0.1744,0.018 -0.3487,0.044 -0.5204,0.079 -0.1726,0.034 -0.3434,0.077 -0.5099,0.1272 -0.1682,0.051 -0.3338,0.1105 -0.496,0.1778 -0.1621,0.067 -0.3207,0.1418 -0.4759,0.2246 -0.1551,0.083 -0.3059,0.173 -0.4515,0.2715 -0.1464,0.097 -0.2876,0.2017 -0.4227,0.3135 -0.136,0.1105 -0.2667,0.2294 -0.3905,0.3531 -0.1238,0.1238 -0.2432,0.2547 -0.353,0.3904 -0.1116,0.1357 -0.2162,0.2763 -0.3138,0.4228 -0.099,0.1453 -0.1883,0.2966 -0.2711,0.4516 -0.087,0.155 -0.1577,0.3135 -0.2248,0.4757 -0.07,0.1622 -0.1264,0.3279 -0.1779,0.496 -0.052,0.1682 -0.094,0.3376 -0.1272,0.5105 -0.035,0.1718 -0.061,0.346 -0.078,0.5201 -0.017,0.1754 -0.026,0.3507 -0.026,0.5261 0,0.1754 0.01,0.3508 0.026,0.5261 0.017,0.1742 0.044,0.3483 0.078,0.5201 0.035,0.173 0.078,0.3423 0.1272,0.5105 0.052,0.1681 0.1107,0.3339 0.1779,0.4961 0.07,0.1621 0.142,0.3207 0.2248,0.4756 0.078,0.1549 0.1726,0.3063 0.2711,0.4516 0.098,0.1465 0.2022,0.287 0.3138,0.4228 0.1098,0.1358 0.2292,0.2667 0.353,0.3904 0.1238,0.1237 0.2545,0.2414 0.3905,0.3531 0.1351,0.1117 0.2763,0.2162 0.4227,0.3135 0.1456,0.099 0.2964,0.1886 0.4515,0.2715 0.1552,0.083 0.3138,0.1573 0.4759,0.2246 0.1622,0.067 0.3278,0.1261 0.496,0.1777 0.1665,0.051 0.3373,0.094 0.5099,0.1274 0.1717,0.035 0.346,0.06 0.5204,0.078 0.1752,0.017 0.3514,0.025 0.5266,0.025 0.1752,0 0.3504,-0.01 0.5256,-0.025 0.1743,-0.018 0.3486,-0.044 0.5204,-0.078 0.1725,-0.034 0.3425,-0.077 0.5107,-0.1274 0.1682,-0.051 0.3339,-0.1105 0.496,-0.1777 0.1621,-0.067 0.3207,-0.1417 0.475,-0.2246 0.1552,-0.083 0.3068,-0.173 0.4524,-0.2715 0.1464,-0.097 0.2868,-0.2018 0.4227,-0.3135 0.1351,-0.1117 0.265,-0.2294 0.3905,-0.3531 0.1229,-0.1237 0.2415,-0.2546 0.353,-0.3904 0.1116,-0.1358 0.2162,-0.2763 0.3129,-0.4228 0.099,-0.1453 0.1892,-0.2967 0.272,-0.4516 0.078,-0.1549 0.1569,-0.3135 0.224,-0.4756 0.07,-0.1622 0.1264,-0.328 0.1778,-0.4961 0.052,-0.1682 0.094,-0.3375 0.1273,-0.5105 0.035,-0.1718 0.061,-0.3459 0.078,-0.5201 0.017,-0.1753 0.026,-0.3507 0.026,-0.5261 z m -18.775,4.0238 c 0,-0.1766 -0.017,-0.3507 -0.052,-0.5237 -0.035,-0.1729 -0.087,-0.3411 -0.1526,-0.5033 -0.07,-0.1621 -0.1499,-0.3171 -0.2484,-0.4636 -0.098,-0.1466 -0.2092,-0.2823 -0.3329,-0.406 -0.1247,-0.1249 -0.2607,-0.2366 -0.4071,-0.3339 -0.1464,-0.099 -0.2998,-0.1802 -0.4637,-0.2487 -0.1621,-0.067 -0.3303,-0.1176 -0.5029,-0.1525 -0.1717,-0.034 -0.3469,-0.051 -0.523,-0.051 -0.1761,0 -0.3504,0.018 -0.523,0.051 -0.1734,0.035 -0.3399,0.085 -0.5038,0.1525 -0.1621,0.069 -0.3172,0.1502 -0.4637,0.2487 -0.1464,0.097 -0.2824,0.209 -0.4062,0.3339 -0.1246,0.1237 -0.2353,0.2594 -0.3338,0.406 -0.097,0.1465 -0.1795,0.3015 -0.2475,0.4636 -0.07,0.1622 -0.1186,0.3304 -0.1526,0.5033 -0.035,0.173 -0.052,0.3471 -0.052,0.5237 0,0.1754 0.017,0.3495 0.052,0.5225 0.035,0.173 0.087,0.3411 0.1526,0.5033 0.07,0.1634 0.1508,0.3171 0.2475,0.4636 0.099,0.1465 0.2092,0.2823 0.3338,0.406 0.1238,0.1249 0.2598,0.2366 0.4062,0.334 0.1465,0.098 0.3016,0.1801 0.4637,0.2485 0.1639,0.067 0.3304,0.1178 0.5038,0.1526 0.1726,0.034 0.3469,0.051 0.523,0.051 0.1761,0 0.3513,-0.018 0.523,-0.051 0.1726,-0.035 0.3408,-0.085 0.5029,-0.1526 0.1639,-0.069 0.3173,-0.1501 0.4637,-0.2485 0.1464,-0.097 0.2824,-0.2091 0.4071,-0.334 0.1237,-0.1237 0.2353,-0.2595 0.3329,-0.406 0.099,-0.1465 0.1813,-0.3002 0.2484,-0.4636 0.07,-0.1622 0.1177,-0.3303 0.1526,-0.5033 0.035,-0.173 0.052,-0.3471 0.052,-0.5225 z m -29.5028,6.7047 c 0,-0.1765 -0.017,-0.3507 -0.052,-0.5237 -0.035,-0.1718 -0.087,-0.3399 -0.1526,-0.502 -0.07,-0.1634 -0.1508,-0.3183 -0.2493,-0.4649 -0.097,-0.1453 -0.2092,-0.281 -0.3321,-0.406 -0.1255,-0.1249 -0.2606,-0.2354 -0.4079,-0.3339 -0.1464,-0.097 -0.2998,-0.1801 -0.4637,-0.2474 -0.1621,-0.067 -0.3295,-0.1177 -0.5029,-0.1526 -0.1726,-0.035 -0.3469,-0.051 -0.5221,-0.051 -0.177,0 -0.3513,0.017 -0.5239,0.051 -0.1734,0.035 -0.3416,0.086 -0.5038,0.1526 -0.1621,0.067 -0.3164,0.1502 -0.4637,0.2474 -0.1464,0.099 -0.2815,0.209 -0.4053,0.3339 -0.1255,0.125 -0.2371,0.2607 -0.3338,0.406 -0.099,0.1466 -0.1804,0.3015 -0.2476,0.4649 -0.07,0.1621 -0.1194,0.3302 -0.1542,0.502 -0.035,0.173 -0.052,0.3472 -0.052,0.5237 0,0.1766 0.017,0.3508 0.052,0.5237 0.035,0.1718 0.087,0.3399 0.1542,0.5033 0.07,0.1622 0.1491,0.3171 0.2476,0.4637 0.097,0.1465 0.2083,0.281 0.3338,0.4059 0.1238,0.125 0.2589,0.2354 0.4053,0.3339 0.1473,0.097 0.3016,0.1802 0.4637,0.2475 0.1622,0.067 0.3304,0.1189 0.5038,0.1525 0.1726,0.035 0.3469,0.051 0.5239,0.051 0.1752,0 0.3495,-0.016 0.5221,-0.051 0.1734,-0.034 0.3408,-0.085 0.5029,-0.1525 0.1639,-0.067 0.3173,-0.1501 0.4637,-0.2475 0.1473,-0.099 0.2824,-0.2089 0.4079,-0.3339 0.1229,-0.1249 0.2354,-0.2594 0.3321,-0.4059 0.099,-0.1466 0.1813,-0.3015 0.2493,-0.4637 0.07,-0.1634 0.1177,-0.3315 0.1526,-0.5033 0.035,-0.1729 0.052,-0.3471 0.052,-0.5237 z m 0,0"
       fill-opacity="1"
       fill-rule="nonzero"
       id="path16397"
       style="fill:#008080;fill-opacity:1;stroke-width:0.307491" /><path
       fill="#1e120b"
       d="m 68.90625,81.386719 c 42.01953,9.628906 84.58203,14.460937 127.69141,14.5 42.95312,-0.01953 85.35546,-4.851563 127.21093,-14.5 0.28125,-0.06641 0.55078,-0.15625 0.8125,-0.273438 0.26172,-0.117187 0.50782,-0.257812 0.74219,-0.425781 0.23047,-0.164062 0.44531,-0.351562 0.64453,-0.558594 0.19531,-0.210937 0.3711,-0.433594 0.52344,-0.679687 0.14844,-0.242188 0.27734,-0.496094 0.37891,-0.765625 0.10156,-0.265625 0.17578,-0.542969 0.22265,-0.824219 0.0508,-0.28125 0.0703,-0.566406 0.0625,-0.851563 -0.0117,-0.285156 -0.0469,-0.570312 -0.10937,-0.847656 -0.0664,-0.28125 -0.15625,-0.550781 -0.27344,-0.8125 -0.11719,-0.261718 -0.25781,-0.507812 -0.42578,-0.742187 -0.16406,-0.234375 -0.35156,-0.449219 -0.5586,-0.644531 -0.21093,-0.195313 -0.43359,-0.371094 -0.67578,-0.523438 -0.24609,-0.152344 -0.5,-0.277344 -0.76562,-0.378906 -0.26953,-0.101563 -0.54297,-0.179688 -0.82813,-0.226563 -0.28125,-0.04687 -0.5664,-0.06641 -0.85156,-0.05859 -0.28516,0.0078 -0.57031,0.04297 -0.84766,0.109374 -82.96093,19.042969 -167.41406,19.042969 -251.01562,0 -0.277344,-0.0625 -0.5625,-0.09766 -0.847656,-0.101562 -0.285156,-0.0078 -0.566406,0.01172 -0.847656,0.0625 -0.28125,0.05078 -0.554688,0.125 -0.820313,0.226562 -0.265625,0.105469 -0.519531,0.230469 -0.761719,0.382813 -0.242187,0.152344 -0.464844,0.328125 -0.671875,0.523437 -0.207031,0.199219 -0.390625,0.414063 -0.554687,0.644532 -0.167969,0.234375 -0.308594,0.480468 -0.421875,0.742187 -0.117188,0.261719 -0.207031,0.53125 -0.269531,0.808594 -0.0625,0.277344 -0.101563,0.558594 -0.109376,0.84375 -0.0078,0.285156 0.01172,0.570313 0.05859,0.851563 0.05078,0.28125 0.125,0.554687 0.226563,0.820312 0.09766,0.265625 0.226562,0.519531 0.375,0.761719 0.152343,0.242187 0.328125,0.46875 0.523437,0.675781 0.195313,0.207031 0.40625,0.394531 0.640625,0.5625 0.230469,0.164062 0.476563,0.308594 0.734375,0.425781 0.261719,0.117188 0.53125,0.207031 0.808594,0.273438 z m 0,0"
       fill-opacity="1"
       fill-rule="nonzero"
       id="path16399"
       style="fill:#000000;fill-opacity:1"
       transform="matrix(0.30749039,0,0,0.30749039,-1613.7985,2678.8076)"
       clip-path="url(#clipPath88156)" /><path
       fill="#1e120b"
       d="m 69.21875,106.69922 c 42.21875,6.42187 84.67578,9.65234 127.37891,9.6875 42.54296,-0.0234 84.83984,-3.25391 126.89453,-9.67969 0.28125,-0.0469 0.55468,-0.12109 0.82031,-0.21875 0.26562,-0.10156 0.52344,-0.22265 0.76562,-0.375 0.24219,-0.14844 0.46485,-0.32031 0.67579,-0.51172 0.20703,-0.19531 0.39453,-0.40625 0.5625,-0.63672 0.16796,-0.23046 0.3125,-0.47265 0.42968,-0.73046 0.1211,-0.25782 0.21485,-0.52735 0.28125,-0.80079 0.0664,-0.27734 0.10938,-0.55859 0.1211,-0.84375 0.0117,-0.28515 -0.004,-0.5664 -0.0469,-0.84765 -0.043,-0.28125 -0.11328,-0.55469 -0.21094,-0.82422 -0.0937,-0.26563 -0.21484,-0.52344 -0.36328,-0.76563 -0.14843,-0.242184 -0.3164,-0.472652 -0.50781,-0.68359 -0.19141,-0.207031 -0.39844,-0.398438 -0.62891,-0.570312 -0.22656,-0.167969 -0.46875,-0.3125 -0.72656,-0.4375 -0.25781,-0.121094 -0.52344,-0.21875 -0.80078,-0.289063 -0.27344,-0.06641 -0.55469,-0.109375 -0.83984,-0.125 -0.28125,-0.01563 -0.56641,-0.0039 -0.84766,0.03516 -41.61719,6.363275 -83.47656,9.558595 -125.57812,9.582025 -42.26563,-0.0352 -84.28516,-3.23047 -126.070316,-9.589837 -0.28125,-0.04297 -0.566406,-0.05859 -0.851563,-0.04687 -0.285156,0.01563 -0.570312,0.05469 -0.847656,0.125 -0.277344,0.06641 -0.546875,0.164062 -0.804687,0.285156 -0.261719,0.121094 -0.503907,0.265625 -0.734376,0.4375 -0.230468,0.167969 -0.445312,0.359375 -0.636718,0.570312 -0.191406,0.210938 -0.363282,0.441407 -0.511719,0.687499 -0.148437,0.24219 -0.269531,0.5 -0.367187,0.76953 -0.09766,0.26954 -0.167969,0.54688 -0.210938,0.82813 -0.04297,0.28516 -0.05859,0.57031 -0.04687,0.85547 0.01563,0.28515 0.05469,0.5664 0.125,0.84765 0.06641,0.27735 0.164063,0.54688 0.285156,0.80469 0.121094,0.25781 0.265625,0.50391 0.4375,0.73438 0.167969,0.23047 0.359375,0.4414 0.570313,0.63672 0.210937,0.1914 0.441406,0.36328 0.6875,0.51171 0.242187,0.14844 0.5,0.26954 0.769531,0.36719 0.269531,0.0977 0.546875,0.16797 0.828125,0.21094 z m 0,0"
       fill-opacity="1"
       fill-rule="nonzero"
       id="path16401"
       style="fill:#000000;fill-opacity:1"
       transform="matrix(0.30749039,0,0,0.30749039,-1613.7985,2678.8076)"
       clip-path="url(#clipPath88128)" /><path
       fill="#1e120b"
       d="m -1527.9407,2737.3941 c 0,0.088 -0.01,0.1742 -0.026,0.2606 -0.017,0.086 -0.044,0.1706 -0.078,0.2523 -0.035,0.082 -0.079,0.1585 -0.1238,0.2318 -0.052,0.073 -0.1046,0.1405 -0.1673,0.203 -0.061,0.063 -0.1299,0.1177 -0.2031,0.1669 -0.07,0.05 -0.1499,0.09 -0.2319,0.1237 -0.078,0.034 -0.1638,0.059 -0.251,0.077 -0.087,0.017 -0.1743,0.025 -0.2615,0.025 -0.088,0 -0.1752,-0.01 -0.2624,-0.025 -0.087,-0.018 -0.1699,-0.043 -0.251,-0.077 -0.078,-0.034 -0.1577,-0.074 -0.231,-0.1237 -0.07,-0.049 -0.142,-0.1045 -0.2048,-0.1669 -0.061,-0.063 -0.1177,-0.1298 -0.1656,-0.203 -0.052,-0.073 -0.091,-0.1502 -0.1246,-0.2318 -0.035,-0.082 -0.061,-0.1658 -0.078,-0.2523 -0.017,-0.086 -0.026,-0.1729 -0.026,-0.2606 0,-0.089 0.01,-0.1754 0.026,-0.2618 0.017,-0.086 0.044,-0.1706 0.078,-0.2523 0.035,-0.08 0.078,-0.1585 0.1246,-0.2318 0.052,-0.073 0.1046,-0.1405 0.1656,-0.203 0.061,-0.063 0.1307,-0.1177 0.2048,-0.1669 0.07,-0.05 0.15,-0.09 0.231,-0.1237 0.078,-0.034 0.1648,-0.059 0.251,-0.076 0.087,-0.018 0.1744,-0.026 0.2624,-0.026 0.087,0 0.1752,0.01 0.2615,0.026 0.087,0.017 0.17,0.042 0.251,0.076 0.078,0.034 0.1587,0.074 0.2319,0.1237 0.07,0.049 0.142,0.1045 0.2031,0.1669 0.061,0.063 0.1194,0.1298 0.1673,0.203 0.052,0.073 0.09,0.1514 0.1238,0.2318 0.035,0.082 0.061,0.1658 0.078,0.2523 0.017,0.086 0.026,0.1729 0.026,0.2618 z m 0,0"
       fill-opacity="1"
       fill-rule="nonzero"
       id="path16403"
       style="fill:#008080;fill-opacity:1;stroke-width:0.307491" /><path
       fill="#1e120b"
       d="m -1548.0561,2737.3941 c 0,0.088 -0.01,0.1742 -0.026,0.2606 -0.017,0.086 -0.044,0.1706 -0.078,0.2523 -0.035,0.082 -0.078,0.1585 -0.1238,0.2318 -0.052,0.073 -0.1046,0.1405 -0.1673,0.203 -0.061,0.063 -0.1308,0.1177 -0.2031,0.1669 -0.07,0.05 -0.1508,0.09 -0.2319,0.1237 -0.078,0.034 -0.1656,0.059 -0.2519,0.077 -0.087,0.017 -0.1734,0.025 -0.2615,0.025 -0.088,0 -0.176,-0.01 -0.2623,-0.025 -0.087,-0.018 -0.1691,-0.043 -0.2511,-0.077 -0.078,-0.034 -0.1586,-0.074 -0.2318,-0.1237 -0.07,-0.049 -0.1403,-0.1045 -0.2031,-0.1669 -0.061,-0.063 -0.1177,-0.1298 -0.1665,-0.203 -0.052,-0.073 -0.091,-0.1502 -0.1237,-0.2318 -0.035,-0.082 -0.061,-0.1658 -0.078,-0.2523 -0.017,-0.086 -0.026,-0.1729 -0.026,-0.2606 0,-0.089 0.01,-0.1754 0.026,-0.2618 0.017,-0.086 0.044,-0.1706 0.078,-0.2523 0.035,-0.08 0.07,-0.1585 0.1237,-0.2318 0.052,-0.073 0.1046,-0.1405 0.1665,-0.203 0.061,-0.063 0.1299,-0.1177 0.2031,-0.1669 0.07,-0.05 0.1499,-0.09 0.2318,-0.1237 0.078,-0.034 0.1657,-0.059 0.2511,-0.076 0.087,-0.018 0.1743,-0.026 0.2623,-0.026 0.088,0 0.1752,0.01 0.2615,0.026 0.087,0.017 0.1709,0.042 0.2519,0.076 0.078,0.034 0.1587,0.074 0.2319,0.1237 0.07,0.049 0.1403,0.1045 0.2031,0.1669 0.061,0.063 0.1176,0.1298 0.1673,0.203 0.052,0.073 0.09,0.1514 0.1238,0.2318 0.035,0.082 0.061,0.1658 0.078,0.2523 0.017,0.086 0.026,0.1729 0.026,0.2618 z m 0,0"
       fill-opacity="1"
       fill-rule="nonzero"
       id="path16405"
       style="fill:#008080;fill-opacity:1;stroke-width:0.307491" /><path
       fill="#1e120b"
       d="m -1566.8309,2723.9822 c 0,0.089 -0.01,0.1754 -0.026,0.2619 -0.017,0.086 -0.044,0.1705 -0.078,0.2522 -0.035,0.08 -0.079,0.1586 -0.1256,0.2319 -0.052,0.073 -0.1046,0.1405 -0.1656,0.203 -0.061,0.063 -0.1307,0.1176 -0.2039,0.1669 -0.07,0.05 -0.15,0.09 -0.2319,0.1238 -0.078,0.034 -0.1647,0.059 -0.251,0.077 -0.087,0.016 -0.1743,0.025 -0.2624,0.025 -0.087,0 -0.1752,-0.01 -0.2615,-0.025 -0.087,-0.018 -0.1691,-0.044 -0.251,-0.077 -0.078,-0.034 -0.1586,-0.075 -0.2318,-0.1238 -0.07,-0.049 -0.1421,-0.1045 -0.2031,-0.1669 -0.061,-0.063 -0.1186,-0.1298 -0.1665,-0.203 -0.052,-0.073 -0.091,-0.1514 -0.1238,-0.2319 -0.035,-0.082 -0.061,-0.1658 -0.078,-0.2522 -0.017,-0.086 -0.026,-0.173 -0.026,-0.2619 0,-0.088 0.01,-0.1741 0.026,-0.2606 0.017,-0.086 0.044,-0.1706 0.078,-0.2522 0.035,-0.082 0.078,-0.1586 0.1238,-0.2319 0.044,-0.073 0.1037,-0.1405 0.1665,-0.203 0.061,-0.063 0.1298,-0.1177 0.2031,-0.1669 0.07,-0.05 0.1499,-0.09 0.2318,-0.1237 0.078,-0.034 0.1648,-0.059 0.251,-0.077 0.087,-0.017 0.1744,-0.025 0.2615,-0.025 0.088,0 0.1761,0.01 0.2624,0.025 0.087,0.018 0.17,0.044 0.251,0.077 0.078,0.034 0.1587,0.074 0.2319,0.1237 0.07,0.049 0.1412,0.1045 0.2039,0.1669 0.061,0.063 0.1177,0.1298 0.1656,0.203 0.052,0.073 0.091,0.1502 0.1256,0.2319 0.035,0.082 0.061,0.1657 0.078,0.2522 0.017,0.086 0.026,0.1729 0.026,0.2606 z m 0,0"
       fill-opacity="1"
       fill-rule="nonzero"
       id="path16407"
       style="fill:#008080;fill-opacity:1;stroke-width:0.307491" /><path
       fill="#1e120b"
       d="m 144.01953,55.328125 c 15.21875,0 22.62109,2.042969 30.45703,4.203125 8.05469,2.21875 16.38281,4.519531 32.78125,4.519531 16.39844,0 24.72656,-2.300781 32.78125,-4.519531 5.66797,-1.5625 11.15235,-3.054688 19.48828,-3.761719 l -0.83593,0.835938 c -0.19532,0.207031 -0.3711,0.425781 -0.52735,0.664062 -0.15234,0.238281 -0.28125,0.488281 -0.38672,0.75 -0.10547,0.265625 -0.18359,0.535157 -0.23437,0.8125 -0.0547,0.277344 -0.0781,0.558594 -0.0742,0.84375 0,0.28125 0.0312,0.5625 0.0859,0.839844 0.0586,0.277344 0.14062,0.546875 0.25,0.808594 0.10937,0.261719 0.24609,0.507812 0.40234,0.742187 0.15625,0.238282 0.33594,0.453125 0.53906,0.65625 0.19922,0.199219 0.41797,0.378906 0.65235,0.535156 0.23437,0.160157 0.48047,0.292969 0.74218,0.402344 0.26172,0.109375 0.53125,0.191406 0.8086,0.25 0.27734,0.05469 0.55859,0.08594 0.83984,0.08984 0.28516,0 0.56641,-0.02344 0.84375,-0.07813 0.27735,-0.05078 0.55078,-0.128906 0.8125,-0.234375 0.26172,-0.105469 0.51172,-0.234375 0.75,-0.386719 0.23828,-0.15625 0.46094,-0.328125 0.66406,-0.527343 l 8.72266,-8.722657 c 0.19922,-0.203125 0.37891,-0.425781 0.53516,-0.664062 0.15625,-0.238281 0.28906,-0.488281 0.39843,-0.753907 0.10938,-0.265624 0.1875,-0.535156 0.2461,-0.816406 0.0547,-0.28125 0.082,-0.5625 0.082,-0.851562 0,-0.285156 -0.0273,-0.566406 -0.082,-0.847656 -0.0586,-0.28125 -0.13672,-0.554688 -0.2461,-0.816407 -0.10937,-0.265625 -0.24218,-0.515625 -0.39843,-0.753906 -0.15625,-0.242187 -0.33594,-0.460937 -0.53516,-0.664063 l -8.72266,-8.722656 c -0.20312,-0.199218 -0.42578,-0.375 -0.66406,-0.527344 -0.23828,-0.152343 -0.48828,-0.285156 -0.75,-0.386718 -0.26172,-0.105469 -0.53515,-0.183594 -0.8125,-0.238282 -0.27734,-0.05078 -0.55859,-0.07422 -0.84375,-0.07422 -0.28125,0.0039 -0.5625,0.03125 -0.83984,0.08984 -0.27735,0.05859 -0.54688,0.140624 -0.8086,0.25 -0.26171,0.109374 -0.50781,0.242187 -0.74218,0.402343 -0.23438,0.15625 -0.45313,0.335938 -0.65235,0.535157 -0.20312,0.199218 -0.38281,0.417968 -0.53906,0.652343 -0.15625,0.234375 -0.29297,0.484375 -0.40234,0.746094 -0.10938,0.261719 -0.19141,0.53125 -0.25,0.808594 -0.0547,0.277343 -0.0859,0.554687 -0.0859,0.839843 -0.004,0.28125 0.0195,0.5625 0.0742,0.84375 0.0508,0.277344 0.1289,0.546876 0.23437,0.808594 0.10547,0.265625 0.23438,0.515625 0.38672,0.753906 0.15625,0.238282 0.33203,0.457032 0.52735,0.660157 l 1.6289,1.632812 c -10.03515,0.71875 -16.41797,2.460938 -22.60156,4.164063 -7.83594,2.164062 -15.24219,4.207031 -30.46094,4.207031 -15.21875,0 -22.625,-2.042969 -30.46094,-4.203125 -8.05468,-2.222656 -16.3789,-4.519531 -32.77734,-4.519531 -0.28906,0 -0.57031,0.02734 -0.85156,0.08203 -0.28125,0.05469 -0.55469,0.140625 -0.82031,0.25 -0.26172,0.109375 -0.51563,0.242188 -0.75391,0.402344 -0.23828,0.160156 -0.45703,0.339844 -0.66016,0.542968 -0.20312,0.203126 -0.38281,0.421876 -0.54297,0.660157 -0.16015,0.238281 -0.29296,0.488281 -0.40234,0.753906 -0.10937,0.265625 -0.19141,0.539063 -0.24609,0.816406 -0.0586,0.28125 -0.0859,0.566407 -0.0859,0.851563 0,0.289062 0.0273,0.570312 0.0859,0.851562 0.0547,0.28125 0.13672,0.554688 0.24609,0.816406 0.10938,0.265626 0.24219,0.519532 0.40234,0.757813 0.16016,0.234375 0.33985,0.457031 0.54297,0.660156 0.20313,0.203125 0.42188,0.382813 0.66016,0.542969 0.23828,0.15625 0.49219,0.292969 0.75391,0.402344 0.26562,0.109375 0.53906,0.191406 0.82031,0.246094 0.28125,0.05859 0.5625,0.08594 0.85156,0.08594 z m 0,0"
       fill-opacity="1"
       fill-rule="nonzero"
       id="path16409"
       style="fill:#000000;fill-opacity:1"
       transform="matrix(0.30749039,0,0,0.30749039,-1613.7985,2678.8076)"
       clip-path="url(#clipPath88135)" /><path
       fill="#1e120b"
       d="m -1534.253,2770.5274 c 0.061,0.063 0.1298,0.1177 0.2031,0.1669 0.07,0.05 0.1499,0.09 0.2318,0.1238 0.078,0.034 0.1656,0.059 0.2519,0.077 0.087,0.017 0.1735,0.025 0.2606,0.025 0.089,0 0.1761,-0.01 0.2624,-0.025 0.087,-0.018 0.1699,-0.044 0.2519,-0.077 0.078,-0.034 0.1586,-0.074 0.2318,-0.1238 0.07,-0.05 0.1404,-0.1045 0.2031,-0.1669 l 2.682,-2.6822 c 0.061,-0.063 0.1168,-0.1309 0.1648,-0.2041 0.052,-0.073 0.089,-0.1502 0.122,-0.2318 0.035,-0.082 0.061,-0.1646 0.078,-0.2511 0.017,-0.086 0.026,-0.173 0.026,-0.2618 0,-0.088 -0.01,-0.1742 -0.026,-0.2607 -0.017,-0.086 -0.044,-0.1705 -0.078,-0.251 -0.035,-0.082 -0.078,-0.1586 -0.122,-0.2318 -0.052,-0.074 -0.1038,-0.1417 -0.1648,-0.2042 l -2.682,-2.6822 c -0.061,-0.061 -0.1307,-0.1153 -0.2039,-0.1621 -0.07,-0.047 -0.1508,-0.086 -0.231,-0.1189 -0.078,-0.032 -0.1648,-0.057 -0.2493,-0.073 -0.087,-0.016 -0.1726,-0.023 -0.2597,-0.023 -0.087,0 -0.1735,0.01 -0.2581,0.028 -0.087,0.018 -0.1682,0.044 -0.2492,0.077 -0.078,0.034 -0.1561,0.075 -0.2284,0.1238 -0.07,0.048 -0.1386,0.1033 -0.2005,0.1645 -0.061,0.061 -0.1176,0.1285 -0.1656,0.2006 -0.052,0.073 -0.09,0.149 -0.1238,0.2294 -0.035,0.08 -0.061,0.1634 -0.079,0.2487 -0.017,0.085 -0.026,0.1705 -0.026,0.2582 0,0.086 0.01,0.173 0.026,0.2595 0.017,0.085 0.044,0.1681 0.07,0.2486 0.035,0.082 0.07,0.1586 0.1195,0.2318 0.044,0.073 0.1019,0.1405 0.1621,0.203 l 0.2571,0.2583 c -2.5634,-0.2186 -4.25,-0.6763 -5.9924,-1.1568 -2.4772,-0.6822 -5.038,-1.3897 -10.0804,-1.3897 -5.0423,0 -7.6032,0.7075 -10.0795,1.3897 -2.41,0.6643 -4.6858,1.2925 -9.3656,1.2925 -0.089,0 -0.1752,0.01 -0.2615,0.026 -0.087,0.017 -0.1708,0.042 -0.2527,0.076 -0.079,0.034 -0.1587,0.076 -0.2319,0.1237 -0.07,0.05 -0.1403,0.1045 -0.2031,0.1669 -0.061,0.063 -0.1177,0.131 -0.1665,0.2043 -0.052,0.072 -0.091,0.1501 -0.1237,0.2317 -0.035,0.08 -0.061,0.1646 -0.079,0.2511 -0.017,0.086 -0.026,0.173 -0.026,0.2619 0,0.088 0.01,0.1753 0.026,0.2618 0.017,0.086 0.044,0.1694 0.079,0.251 0.035,0.082 0.07,0.1586 0.1237,0.2318 0.052,0.073 0.1046,0.1406 0.1665,0.203 0.061,0.063 0.1299,0.1178 0.2031,0.167 0.07,0.05 0.1517,0.09 0.2319,0.1237 0.078,0.034 0.1656,0.06 0.2527,0.077 0.087,0.017 0.1726,0.025 0.2615,0.025 5.0424,0 7.6023,-0.7062 10.0786,-1.3897 2.4092,-0.6642 4.6868,-1.2924 9.3665,-1.2924 4.6798,0 6.9573,0.6282 9.3665,1.2924 1.901,0.5248 3.8639,1.0606 6.9495,1.2816 l -0.5003,0.5009 c -0.061,0.063 -0.1177,0.1309 -0.1674,0.2042 -0.052,0.073 -0.09,0.1501 -0.1237,0.2318 -0.035,0.08 -0.061,0.1646 -0.078,0.251 -0.017,0.086 -0.026,0.1742 -0.026,0.2619 0,0.088 0.01,0.1753 0.026,0.2618 0.017,0.085 0.044,0.1694 0.078,0.251 0.035,0.082 0.078,0.1586 0.1237,0.2319 0.052,0.073 0.1046,0.1405 0.1674,0.203 z m 0,0"
       fill-opacity="1"
       fill-rule="nonzero"
       id="path16411"
       style="fill:#000000;fill-opacity:1;stroke-width:0.307491" /><path
       fill="#1e120b"
       d="m 69.867188,239.42187 c 0.222656,0 0.441406,-0.0156 0.660156,-0.0508 41.785156,-6.35937 83.804686,-9.55468 126.070316,-9.58984 42.10156,0.0234 83.96093,3.21875 125.57812,9.58203 0.28125,0.0391 0.56641,0.0508 0.84766,0.0352 0.28515,-0.0156 0.5664,-0.0547 0.83984,-0.125 0.27734,-0.0703 0.54297,-0.16797 0.80078,-0.28907 0.25781,-0.125 0.5,-0.26953 0.72656,-0.4375 0.23047,-0.17187 0.4375,-0.35937 0.62891,-0.57031 0.19141,-0.21094 0.35938,-0.4414 0.50781,-0.68359 0.14844,-0.24219 0.26953,-0.5 0.36328,-0.76563 0.0977,-0.26953 0.16797,-0.54297 0.21094,-0.82422 0.043,-0.28125 0.0586,-0.5625 0.0469,-0.84765 -0.0117,-0.28516 -0.0547,-0.56641 -0.1211,-0.83985 -0.0664,-0.27734 -0.16015,-0.54687 -0.28125,-0.80468 -0.11718,-0.25782 -0.26172,-0.5 -0.42968,-0.73047 -0.16797,-0.23047 -0.35547,-0.44141 -0.5625,-0.63672 -0.21094,-0.19141 -0.4336,-0.36328 -0.67579,-0.51172 -0.24218,-0.15234 -0.5,-0.27344 -0.76562,-0.375 -0.26563,-0.0977 -0.53906,-0.17187 -0.82031,-0.21484 -42.05469,-6.42969 -84.35157,-9.66016 -126.89453,-9.6836 -42.70313,0.0352 -85.16016,3.26563 -127.37891,9.6875 -0.542969,0.082 -1.050781,0.26172 -1.527344,0.53516 -0.476562,0.27734 -0.886718,0.62891 -1.230468,1.05859 -0.339844,0.42969 -0.59375,0.90625 -0.753907,1.4336 -0.164062,0.52343 -0.222656,1.0625 -0.183593,1.60937 0.03906,0.55078 0.179687,1.07031 0.417968,1.56641 0.238282,0.49609 0.558594,0.92969 0.960938,1.30469 0.402344,0.375 0.863281,0.66406 1.371094,0.86328 0.511718,0.20312 1.042968,0.30078 1.59375,0.30468 z m 0,0"
       fill-opacity="1"
       fill-rule="nonzero"
       id="path16413"
       style="fill:#000000;fill-opacity:1"
       transform="matrix(0.30749039,0,0,0.30749039,-1613.7985,2678.8076)"
       clip-path="url(#clipPath88149)" /><path
       fill="#1e120b"
       d="m 322.83984,264.67187 c 0.53516,0 1.05469,-0.0937 1.55469,-0.28515 0.5,-0.19141 0.95313,-0.46485 1.35156,-0.82422 0.39844,-0.35547 0.72266,-0.77344 0.96875,-1.25 0.2461,-0.47656 0.39844,-0.98047 0.46094,-1.51172 0.0586,-0.53516 0.0195,-1.05859 -0.11328,-1.57812 -0.13281,-0.51954 -0.35547,-1 -0.66406,-1.4336 -0.3125,-0.4375 -0.69141,-0.80859 -1.13672,-1.10547 -0.44531,-0.29687 -0.92969,-0.5039 -1.45313,-0.625 -84.24609,-19.33984 -170.0039,-19.33984 -254.90234,0 -0.277344,0.0664 -0.546875,0.15625 -0.808594,0.27344 -0.257812,0.11719 -0.503906,0.26172 -0.734375,0.42578 -0.234375,0.16797 -0.449219,0.35547 -0.644531,0.5625 -0.195312,0.20703 -0.367188,0.4336 -0.519531,0.67578 -0.148438,0.24219 -0.277344,0.4961 -0.378907,0.76172 -0.09766,0.26563 -0.171874,0.53906 -0.222656,0.82031 -0.04687,0.28125 -0.06641,0.56641 -0.05859,0.85157 0.0078,0.28515 0.04297,0.5664 0.109376,0.84375 0.0625,0.27734 0.152343,0.54687 0.269531,0.80859 0.113281,0.26172 0.253906,0.50781 0.421875,0.74219 0.164062,0.23047 0.347656,0.44531 0.554687,0.64453 0.207031,0.19531 0.429688,0.37109 0.671875,0.52344 0.242188,0.15234 0.496094,0.27734 0.761719,0.38281 0.265625,0.10156 0.539063,0.17969 0.820313,0.22656 0.28125,0.0508 0.5625,0.0703 0.847656,0.0664 0.285156,-0.008 0.570312,-0.043 0.847656,-0.10547 83.601556,-19.04688 168.054686,-19.04297 251.015616,0 0.32032,0.0742 0.64844,0.10937 0.98047,0.10937 z m 0,0"
       fill-opacity="1"
       fill-rule="nonzero"
       id="path16415"
       style="fill:#000000;fill-opacity:1"
       transform="matrix(0.30749039,0,0,0.30749039,-1613.7985,2678.8076)"
       clip-path="url(#clipPath88121)" /></g></svg>
