<svg xmlns="http://www.w3.org/2000/svg" xmlns:xlink="http://www.w3.org/1999/xlink" width="1080"
    zoomAndPan="magnify" viewBox="0 0 810 809.999993" height="1080"
    preserveAspectRatio="xMidYMid meet" version="1.0">
    <defs>
        <clipPath id="id1">
            <path d="M 583 193 L 795.785156 193 L 795.785156 593 L 583 593 Z M 583 193 "
                clip-rule="nonzero" />
        </clipPath>
        <clipPath id="id2">
            <path d="M 47.285156 193 L 260 193 L 260 593 L 47.285156 593 Z M 47.285156 193 "
                clip-rule="nonzero" />
        </clipPath>
        <clipPath id="id3">
            <path d="M 66 421 L 777 421 L 777 663.347656 L 66 663.347656 Z M 66 421 "
                clip-rule="nonzero" />
        </clipPath>
    </defs>
    <g clip-path="url(#id1)">
        <path fill="#100f0d"
            d="M 794.789062 193.738281 L 583.875 392.949219 L 794.789062 592.226562 C 795.386719 588.238281 795.785156 584.25 795.785156 580.128906 L 795.785156 205.769531 C 795.785156 201.648438 795.386719 197.660156 794.789062 193.738281 "
            fill-opacity="1" fill-rule="nonzero" />
    </g>
    <path fill="#100f0d"
        d="M 467.71875 445.460938 L 776.980469 153.328125 C 761.695312 134.582031 738.503906 122.617188 712.589844 122.617188 L 130.414062 122.617188 C 104.566406 122.617188 81.375 134.582031 66.089844 153.328125 L 375.351562 445.527344 C 400.402344 469.125 442.664062 469.125 467.71875 445.460938 "
        fill-opacity="1" fill-rule="nonzero" />
    <g clip-path="url(#id2)">
        <path fill="#100f0d"
            d="M 48.28125 193.738281 C 47.683594 197.660156 47.285156 201.648438 47.285156 205.769531 L 47.285156 580.128906 C 47.285156 584.25 47.683594 588.238281 48.28125 592.226562 L 259.195312 392.949219 L 48.28125 193.738281 "
            fill-opacity="1" fill-rule="nonzero" />
    </g>
    <g clip-path="url(#id3)">
        <path fill="#100f0d"
            d="M 496.292969 475.703125 C 475.625 495.246094 448.578125 504.953125 421.535156 504.953125 C 394.488281 504.953125 367.378906 495.246094 346.777344 475.703125 L 289.429688 421.53125 L 66.089844 632.640625 C 81.375 651.316406 104.566406 663.347656 130.414062 663.347656 L 712.589844 663.347656 C 738.503906 663.347656 761.695312 651.316406 776.980469 632.640625 L 553.636719 421.53125 L 496.292969 475.703125 "
            fill-opacity="1" fill-rule="nonzero" />
    </g>
</svg>