<?xml version="1.0" encoding="UTF-8"?>
<svg class="flutter" id="Layer_2" xmlns="http://www.w3.org/2000/svg" viewBox="0 0 345.27 365.27">
  <g id="Layer_9" data-name="Layer 9">
    <path class="flutter" fill="rgb(0, 128, 128)" stroke-width="100" fill-opacity="0.7"
      d="M335,1.54c-.93-.97-1.71-1.47-2.75-1.53-1.04-.07-2.36,.31-4.35,1.09-4.42,1.73-14.67,5.33-22.33,7.82-6.88,2.24-14.47,4.6-40.17,12.51-15.35,4.72-25.93,8.18-33.25,10.87-4.79,1.76-5.61,1.98-13.59,3.54-44.32,8.69-80.71,22.48-111.31,42.19C53.07,112.93,20.64,165.85,12.3,232.98c-4.56,36.67-1.88,78.49,7.41,115.84,.28,1.13,.59,2.26,.85,3.4,.26,1.06,.49,2.13,.72,3.19,.12,.53,.25,1.05,.35,1.58,.1,.54,.29,1.08,.28,1.64,0,.17-.03,.35-.13,.5-.11,.16-.3,.25-.48,.33-1.54,.65-3.24,1.06-4.88,1.39-.95,.19-1.95,.27-2.91,.36-1.31,.12-2.65,.29-3.97,.23-1.22-.06-2.4-.3-3.58-.6-.8-.21-3.49-2.56-4.29-2.37-.56,.13-1.22,.21-1.61,.69-.37,.44,1.42,1.04,1.67,1.16,1.86,.88,3.78,1.65,5.79,2.12,2.98,.7,6.01,.7,9.04,.71,6.15,.03,12.2-.88,18.18-2.33,.88-.21,1.76-.43,2.64-.65,3.34-.84,6.65-1.85,9.99-2.69,.94-.27,1.87-.55,2.8-.84,7.77-2.42,13.21-4.38,23.2-8.36,.98-.39,.99-.39,1.96,.42,7.98,6.66,15.23,10.56,24.88,13.41,4.95,1.46,12.14,2.7,17.64,3.06,3.07,.19,9.67,.15,12.93-.08,34.87-2.52,74.94-21.83,120.28-57.94,6.81-5.43,10.71-8.82,15.87-13.85,11.98-11.65,22.83-25.4,32.19-40.8,27.5-45.2,43.59-105.6,45.93-172.41,1.26-36.07-3.26-71.43-10.05-78.52ZM72.38,345.84c-12.73,5.45-29.12,10.64-42.6,13.49-4.34,.92-4.17,.96-4.82-1.09-1.75-5.53-4.54-17.22-6.23-26.14-10.92-57.52-6.96-113.3,11.21-157.77,8.09-19.81,19.09-38.1,32.23-53.63,8.42-9.94,19.36-20.46,29.81-28.64,38.52-30.17,90.48-49.7,155.2-58.33,8.54-1.14,12.77-1.59,13.89-1.5h0c1.21,.1-.19,.44-11.41,2.77-42.14,8.73-73.93,19.35-98.51,32.9-28.74,15.86-45.96,35.84-50.66,58.81-3,14.64-.99,30.94,5.88,47.97,3.45,8.53,6.84,15.1,13.24,25.61,9.6,15.76,15.07,27.81,18.48,40.74,2.02,7.67,2.85,13.23,3.05,20.59,.44,15.58-3.49,29.21-12.08,41.9-11.41,16.88-30.46,31.1-56.69,42.33Zm70.86-92.55c-1.89-13.37-6.01-25.87-13.17-39.86-2.69-5.26-4.94-9.2-9.46-16.61-3.82-6.26-8.53-15.25-10.82-20.69-3.23-7.66-5.77-16.06-6.92-22.87-3.99-23.59,2.77-44.07,20.34-61.67,4.35-4.35,8-7.46,13.52-11.5,12.81-9.37,29.91-18.01,50.14-25.34,2.49-.9,4.65-1.64,4.8-1.64,.75,0-.01,.88-2.85,3.16-3.73,3.02-9.62,8.82-12.35,12.17-14.45,17.77-17.74,38.17-10.5,65.13,2.94,10.93,6.79,21.08,16.95,44.6,5.82,13.47,8.82,20.79,11.28,27.46,10.07,27.37,11.73,46.91,5.5,64.77-3.05,8.73-9.01,16.95-18.01,24.8-16.93,14.77-42.31,27.7-78.2,39.84-8.75,2.96-9.03,2.88-3.2-.93,7.92-5.17,13.4-9.52,19.28-15.27,13.49-13.23,21.25-27.95,23.69-44.98,.66-4.54,.66-15.91,0-20.57Zm186.1-80.87c-11.8,44.79-30.54,81.99-55.23,109.61-7.66,8.57-14.67,15.1-25.1,23.41-42.22,33.62-79.85,52.45-113.05,56.57h0c-4.14,.51-14.65,.86-18.24,.6-14.8-1.08-28.44-6.03-38.28-13.89-1.07-.86-1.95-1.67-1.95-1.81,0-.55,5.56-2.84,10.19-4.2,7.58-2.23,21.17-6.71,28.58-9.43,36.82-13.52,62.98-29.14,76.59-45.75,7.02-8.56,11.14-18.59,12.7-30.91,.48-3.79,.41-13.31-.12-17.76-1.12-9.33-3.42-18.79-7.19-29.64-2.99-8.6-5.64-15.16-13.39-33.16-8.03-18.64-10.72-25.4-13.63-34.16-5.95-17.91-7.68-32.35-5.39-44.92,3.19-17.5,14.15-32.27,33.67-45.37,2.37-1.59,3.16-1.96,6.01-2.83,15.38-4.7,33.06-8.89,59.76-14.17,13.13-2.6,19.16-3.94,20.23-4.5,.58-.31,.61-.52,.23-1.84-.33-1.15,.1-1.11-7.04-.57-9.69,.74-21.46,1.93-28.99,2.94-4.15,.56-5.74,.64-5.36,.27,.35-.32,12.08-4.07,28.08-8.97,29.7-9.09,41.02-12.75,51.85-16.78,3.6-1.34,6.91-2.49,7.36-2.56h0c.67-.1,.93,0,1.52,.71,3.83,4.45,7.17,19.77,8.64,39.71,2.99,40.3-1.64,88.44-12.42,129.4Z" />
  </g>
  <style type="text/css">
    <![CDATA[

        .flutter {
          stroke-dasharray: 1000;
          stroke-dashoffset: 2;
          animation:pulse 2s ease-in-out alternate-reverse infinite;
        }

       
        @keyframes pulse {
          
          from {
            stroke-dasharray: 1000;
            stroke-dashoffset: 200;
            transform: rotate(0deg);
            opacity: 0.7;
            
          to {
            stroke-dasharray: 10;
            stroke-dashoffset: 2;
            transform: rotate(30deg);
            opacity: 0.9;
          }
        }
      ]]>
  </style>

</svg>