<?xml version="1.0" encoding="UTF-8"?>
<svg fill-opacity="0.35" xmlns="http://www.w3.org/2000/svg" viewBox="0 0 473.1 500.5">
  <defs>
    <style type="text/css">
      .flutter {
      fill: green;
      opacity: 0.35;
      }
    </style>

  </defs>
  <g class="flutter" fill-opacity="0.35">
    <path id="path25348"
      d="M454.9,3.41c-.17,0-.41-.07-.64,0-.3,.07-1.55,.46-3.38,1.1-1.83,.63-4.2,1.47-6.67,2.39-3.71,1.38-7.45,2.74-11.63,4.18-4.18,1.44-8.77,3.02-14.18,4.77-5.41,1.75-11.61,3.76-19.01,6.07-7.41,2.31-16,4.96-26.17,8.07-10.96,3.35-20.49,6.36-27.31,8.54-3.41,1.09-6.12,1.91-8.04,2.56-1.92,.65-3.03,1.06-3.15,1.17-.07,.07-.07,.18,0,.22,0,.07,.09,.08,.19,.1,.21,.07,.63,.1,1.23,.07,1.19-.07,3.14-.22,5.99-.6,2.58-.35,5.51-.72,8.69-1.08,3.17-.36,6.57-.78,10.06-1.13,3.49-.36,7.08-.7,10.62-1.01,3.54-.31,7.05-.59,10.36-.85,2.44-.19,4.23-.33,5.56-.42,1.33-.08,2.16-.12,2.73-.08,.29,0,.47,.07,.62,.1,.16,.07,.27,.13,.35,.23,.16,.2,.25,.45,.35,.85,.13,.45,.25,.86,.3,1.15,.07,.29,0,.51,0,.68s-.07,.31-.15,.43c-.11,.11-.26,.21-.46,.31-.37,.19-1.16,.45-2.42,.79-1.26,.33-3.01,.7-5.26,1.2-4.5,1-11.04,2.34-20.04,4.12-9.14,1.81-17.52,3.52-25.27,5.17-7.74,1.66-14.86,3.31-21.49,4.88-3.32,.79-6.5,1.53-9.59,2.31-3.09,.78-6.08,1.59-8.99,2.37-2.9,.78-5.72,1.56-8.47,2.35-2.75,.79-5.44,1.58-8.07,2.39-.98,.3-1.78,.55-2.48,.8-.7,.25-1.31,.5-1.89,.77-.58,.27-1.14,.58-1.76,.95-.62,.37-1.3,.82-2.11,1.36-1.67,1.12-3.3,2.25-4.88,3.39-1.58,1.14-3.12,2.29-4.6,3.45-1.49,1.16-2.93,2.33-4.33,3.51-1.4,1.18-2.75,2.36-4.06,3.56-1.31,1.2-2.58,2.41-3.79,3.63-1.22,1.22-2.4,2.45-3.53,3.69-1.13,1.24-2.22,2.49-3.26,3.76-1.04,1.26-2.04,2.54-3,3.83-.95,1.29-1.87,2.59-2.74,3.9-.87,1.31-1.69,2.63-2.47,3.97s-1.52,2.69-2.22,4.05c-.7,1.36-1.35,2.74-1.96,4.12-.61,1.39-1.18,2.79-1.71,4.2s-1.01,2.84-1.45,4.28c-.44,1.44-.84,2.9-1.19,4.37-.35,1.47-.67,2.96-.94,4.45-.19,1.08-.37,2.16-.52,3.26s-.29,2.2-.4,3.32c-.11,1.12-.19,2.25-.27,3.39-.07,1.14-.11,2.29-.13,3.46,0,1.16,0,2.34,0,3.53,0,1.19,.07,2.4,.13,3.61,.13,2.43,.34,4.91,.65,7.46,.31,2.54,.7,5.14,1.18,7.8,.48,2.66,1.05,5.38,1.71,8.17,.66,2.79,1.41,5.64,2.25,8.56,.84,2.92,1.77,5.92,2.79,8.99,1,3,1.98,5.83,3.05,8.78,1.08,2.96,2.26,6.04,3.65,9.54,1.4,3.5,3.02,7.43,4.98,12.08,1.96,4.65,4.25,10.02,7,16.41,2.66,6.17,4.87,11.35,6.77,15.85,1.9,4.5,3.47,8.3,4.85,11.7,1.37,3.4,2.54,6.4,3.63,9.29,1.08,2.89,2.08,5.66,3.1,8.6,.65,1.86,1.26,3.68,1.84,5.49,.59,1.8,1.13,3.58,1.66,5.33,.52,1.75,1.02,3.48,1.48,5.19,.46,1.71,.9,3.4,1.31,5.08,.41,1.67,.78,3.33,1.13,4.98,.35,1.64,.68,3.28,.97,4.9,.29,1.62,.57,3.23,.81,4.84,.25,1.61,.46,3.21,.65,4.81,.18,1.52,.32,3.48,.43,5.64s.16,4.53,.17,6.86c0,2.34,0,4.64-.09,6.69-.07,2.05-.19,3.84-.35,5.13-.27,2.11-.59,4.17-.97,6.19-.38,2.02-.81,3.99-1.3,5.91-.49,1.92-1.04,3.8-1.64,5.64-.61,1.84-1.26,3.63-1.98,5.38-.72,1.75-1.5,3.47-2.34,5.14-.84,1.68-1.74,3.31-2.7,4.91s-1.97,3.17-3.05,4.7c-1.08,1.53-2.22,3.03-3.43,4.49-1.17,1.42-2.4,2.84-3.7,4.25-1.3,1.41-2.67,2.82-4.1,4.22-1.43,1.4-2.93,2.79-4.5,4.18-1.56,1.39-3.19,2.77-4.88,4.14-1.69,1.37-3.45,2.74-5.27,4.1-1.82,1.36-3.71,2.71-5.65,4.06-1.95,1.35-3.96,2.68-6.04,4.01-2.08,1.33-4.21,2.65-6.41,3.97-2.2,1.31-4.46,2.62-6.79,3.91-2.32,1.3-4.71,2.59-7.16,3.87-2.45,1.28-4.95,2.55-7.52,3.81-2.57,1.26-5.19,2.51-7.88,3.76-2.69,1.24-5.43,2.48-8.24,3.7s-5.67,2.43-8.59,3.63c-2.92,1.2-5.9,2.39-8.94,3.57-3.04,1.18-6.14,2.35-9.29,3.51-2.54,.93-5.6,2.02-8.94,3.16-3.33,1.15-6.94,2.36-10.55,3.55-3.61,1.19-7.23,2.36-10.59,3.43-3.37,1.06-6.48,2.02-9.08,2.78-1.58,.47-3.25,1.01-4.86,1.58-1.61,.57-3.15,1.16-4.5,1.72-1.35,.56-2.5,1.08-3.32,1.5-.41,.22-.73,.4-.95,.57-.22,.16-.34,.29-.34,.38,0,.1,.3,.42,.79,.87,.48,.45,1.15,1.02,1.89,1.61,.84,.68,1.71,1.33,2.59,1.97s1.78,1.27,2.71,1.88c.92,.61,1.86,1.2,2.82,1.78,.96,.58,1.94,1.14,2.92,1.68,.99,.54,1.97,1.11,3,1.62,1.02,.51,2.07,1,3.13,1.48,1.06,.47,2.13,.94,3.21,1.38,1.08,.44,2.19,.86,3.3,1.27,1.11,.4,2.23,.8,3.37,1.17,1.14,.37,2.3,.71,3.46,1.04,2.32,.66,4.69,1.23,7.1,1.74,2.41,.5,4.85,.93,7.33,1.28,2.48,.35,4.99,.63,7.53,.81,1.23,.09,3.07,.11,5.2,.11,2.13,0,4.56,0,7.02-.08,2.46-.08,4.95-.22,7.17-.36s4.21-.27,5.62-.45h.33c2.45-.39,5.39-.83,8.28-1.34,2.89-.51,5.78-1.09,8.72-1.75,2.94-.67,5.96-1.41,8.95-2.23,2.99-.82,5.93-1.75,8.96-2.73,3.03-.98,6.11-2.06,9.2-3.2,3.08-1.14,6.22-2.37,9.35-3.67,3.13-1.3,6.26-2.66,9.44-4.11,3.18-1.46,6.39-3,9.61-4.61,3.23-1.61,6.53-3.26,9.81-5.03,3.28-1.77,6.58-3.6,9.91-5.53,3.32-1.93,6.67-3.96,10.04-6.05,3.37-2.09,6.77-4.28,10.19-6.52,3.42-2.25,6.86-4.57,10.33-6.98,3.47-2.4,6.96-4.88,10.47-7.45,3.52-2.56,7.01-5.26,10.58-7.98,3.57-2.72,7.22-5.46,10.84-8.34,3.58-2.85,6.88-5.51,9.95-8.13,1.54-1.31,3.06-2.6,4.51-3.89,1.45-1.29,2.84-2.57,4.22-3.86,1.37-1.28,2.67-2.61,3.99-3.91,1.33-1.3,2.63-2.61,3.93-3.94,2.6-2.67,5.15-5.42,7.78-8.35,2.11-2.36,4.2-4.78,6.25-7.25,2.05-2.47,4.38-4.76,6.36-7.33,1.99-2.57,3.87-5.26,5.79-7.92,1.92-2.67,3.84-5.37,5.69-8.13,1.85-2.76,3.6-5.63,5.39-8.5,1.79-2.86,3.54-5.77,5.26-8.73,1.72-2.96,3.35-6.01,5-9.06,1.65-3.05,3.17-6.2,4.75-9.34,1.58-3.14,3.13-6.33,4.65-9.57,1.51-3.23,3-6.52,4.44-9.84s2.85-6.69,4.23-10.11c1.37-3.41,2.62-6.94,3.93-10.44,1.3-3.5,2.57-7.04,3.8-10.63,1.23-3.59,2.42-7.22,3.58-10.89,1.16-3.67,2.29-7.38,3.38-11.14,1.08-3.75,2.13-7.58,3.14-11.41,.92-3.51,1.81-7.03,2.67-10.61,.86-3.58,1.67-7.2,2.46-10.84s1.55-7.3,2.27-11c.72-3.69,1.41-7.41,2.07-11.15,.65-3.73,1.28-7.52,1.86-11.28,.58-3.77,1.11-7.51,1.62-11.3,.51-3.79,1.16-7.53,1.6-11.33,.44-3.8,.74-7.62,1.1-11.42,.36-3.8,.71-7.61,1-11.41,.29-3.79,.54-7.6,.75-11.38,.21-3.77,.33-7.53,.47-11.28,.14-3.75,.24-7.48,.3-11.18,.07-3.71,.09-7.39,.07-11.05,0-3.66-.08-7.31-.17-10.91-.1-3.6-.2-7.16-.38-10.69-.17-3.53-.43-7.02-.68-10.48-.25-3.42-.53-6.77-.86-9.97-.33-3.2-.64-6.26-1.04-9.22-.4-2.95-.89-5.76-1.35-8.43-.46-2.67-.99-5.21-1.5-7.57-.52-2.36-1.03-4.53-1.59-6.54-.56-2.01-1.13-3.86-1.73-5.48-.3-.81-.62-1.58-.93-2.29-.31-.71-.56-1.37-.87-1.98-.31-.61-.69-1.14-1.01-1.64s-.66-.95-.99-1.33c-.2-.24-.39-.44-.55-.59s-.34-.23-.49-.3-.31-.1-.48-.11l-.04-.07Z" />
    <path id="path25350"
      d="M357.67,44.09c-.39,0-1.04,0-1.98,.07s-2.17,.13-3.72,.3c-3.11,.33-7.48,.94-13.34,1.72-2.77,.37-5.55,.7-8.29,1.1-2.74,.4-5.45,.86-8.15,1.29-2.7,.43-5.41,.84-8.07,1.3-2.67,.45-5.29,.96-7.92,1.44-2.63,.49-5.25,.94-7.85,1.46-2.6,.52-5.18,1.09-7.75,1.63-2.57,.54-5.15,1.06-7.68,1.64-2.53,.57-5.01,1.2-7.51,1.8-2.49,.6-4.98,1.18-7.44,1.82-2.46,.63-4.91,1.31-7.33,1.97-2.43,.66-4.85,1.29-7.24,1.98-2.39,.69-4.75,1.43-7.11,2.15-2.36,.72-4.75,1.41-7.07,2.15-2.32,.75-4.58,1.55-6.86,2.33-2.29,.78-4.59,1.52-6.84,2.33-2.25,.8-4.46,1.67-6.68,2.5-2.22,.83-4.42,1.65-6.61,2.51-2.18,.86-4.35,1.77-6.49,2.67-2.15,.89-4.29,1.77-6.41,2.69-2.11,.92-4.19,1.88-6.26,2.82-2.08,.95-4.13,1.91-6.18,2.89-2.04,.98-4.07,1.97-6.07,2.98-2,1.01-3.98,2.02-5.95,3.05-1.97,1.04-3.96,2.09-5.9,3.15-1.94,1.06-3.83,2.15-5.73,3.24-1.9,1.09-3.78,2.2-5.65,3.32-1.86,1.12-3.71,2.26-5.54,3.41-1.83,1.15-3.64,2.31-5.43,3.49-1.79,1.18-3.57,2.37-5.32,3.58-1.76,1.21-3.5,2.43-5.22,3.66-1.72,1.23-3.42,2.48-5.11,3.75-1.68,1.26-3.35,2.54-5,3.84-1.79,1.4-3.59,2.85-5.39,4.35-1.8,1.49-3.61,3.03-5.41,4.6-1.8,1.57-3.59,3.18-5.37,4.81-1.78,1.63-3.54,3.29-5.29,4.96s-3.47,3.38-5.16,5.08c-1.69,1.71-3.36,3.42-4.99,5.14-1.63,1.72-3.21,3.45-4.75,5.17-1.54,1.72-3.04,3.43-4.48,5.14-1.12,1.33-2.24,2.67-3.34,4.03-1.1,1.36-2.19,2.73-3.27,4.12-1.08,1.39-2.14,2.79-3.2,4.21-1.05,1.42-2.1,2.84-3.13,4.29-1.03,1.44-2.05,2.89-3.05,4.36-1.01,1.47-2,2.95-2.98,4.44s-1.94,3-2.89,4.51c-.95,1.52-1.89,3.04-2.82,4.59-.93,1.54-1.84,3.09-2.74,4.65-.9,1.56-1.78,3.14-2.65,4.72-.87,1.58-1.73,3.18-2.57,4.78-.84,1.6-1.67,3.22-2.48,4.84-.81,1.62-1.61,3.26-2.4,4.9-.78,1.64-1.55,3.3-2.31,4.96-.75,1.66-1.49,3.33-2.22,5.01-.72,1.68-1.43,3.37-2.13,5.07-.78,1.91-1.54,3.82-2.28,5.76-.74,1.93-1.46,3.88-2.16,5.85-.7,1.96-1.38,3.94-2.05,5.93-.66,1.99-1.31,4-1.93,6.02-.63,2.02-1.23,4.05-1.82,6.1-.59,2.05-1.16,4.1-1.71,6.18-.55,2.07-1.08,4.15-1.59,6.25-.51,2.1-1,4.21-1.48,6.33-.47,2.12-.92,4.25-1.36,6.4-.43,2.14-.85,4.3-1.24,6.47-.39,2.17-.77,4.34-1.12,6.53-.35,2.19-.69,4.39-1.01,6.6-.32,2.21-.61,4.43-.9,6.66-.28,2.23-.54,4.47-.78,6.72-.24,2.25-.46,4.51-.66,6.77-.2,2.27-.39,4.55-.55,6.83-.16,2.29-.31,4.58-.43,6.88-.13,2.3-.22,4.62-.31,6.94-.09,2.32-.15,4.65-.19,6.98-.07,2.33-.08,4.68-.08,7.03,0,2.35,0,4.71,.07,7.07,0,2.36,.09,4.73,.15,7.11,.07,2.38,.13,4.76,.25,7.15,.11,2.39,.28,4.79,.43,7.19,.15,2.4,.32,4.8,.51,7.21,.19,2.41,.4,4.83,.63,7.25,.23,2.42,.48,4.85,.75,7.28,.27,2.43,.56,4.86,.87,7.3,.31,2.44,.63,4.88,.99,7.33,.35,2.45,.72,4.89,1.1,7.34,.39,2.45,.8,4.91,1.23,7.37,.43,2.46,.87,4.92,1.34,7.38,.58,3.06,1.25,6.35,1.98,9.68,.72,3.34,1.49,6.73,2.26,9.97,.77,3.24,1.55,6.33,2.28,9.09,.73,2.76,1.42,5.18,2.02,7.07,.22,.7,.38,1.23,.57,1.6,.1,.18,.21,.33,.34,.45,.13,.11,.29,.19,.49,.24,.2,.07,.43,.07,.73,.07s.64-.07,1.05-.13c.83-.14,1.93-.38,3.42-.69,2.31-.49,4.68-1.03,7.1-1.61,2.42-.58,4.88-1.21,7.37-1.88,2.49-.66,5-1.37,7.53-2.11,2.53-.74,5.06-1.51,7.59-2.31,2.53-.8,5.04-1.63,7.54-2.48,2.49-.85,4.96-1.72,7.39-2.61,2.42-.89,4.8-1.79,7.12-2.71,2.32-.92,4.58-1.84,6.76-2.78,2.25-.96,4.46-1.94,6.63-2.93,2.17-.99,4.3-2,6.39-3.03,2.09-1.03,4.15-2.07,6.16-3.12,2.01-1.06,4-2.09,5.93-3.17,1.94-1.09,3.83-2.24,5.69-3.35,1.86-1.12,3.67-2.25,5.45-3.4,1.78-1.15,3.52-2.32,5.22-3.5,1.7-1.18,3.41-2.34,5.03-3.55,1.62-1.21,3.19-2.43,4.74-3.67,1.54-1.24,3.01-2.54,4.47-3.81,1.46-1.27,2.93-2.51,4.32-3.81,1.38-1.3,2.71-2.63,4.01-3.96s2.53-2.7,3.75-4.06c1.22-1.36,2.46-2.66,3.6-4.05,1.14-1.39,2.25-2.83,3.3-4.25,1.06-1.42,2.05-2.8,3.03-4.25,.74-1.09,1.44-2.19,2.12-3.29,.69-1.1,1.36-2.22,1.99-3.33,.63-1.11,1.27-2.24,1.85-3.36,.59-1.12,1.12-2.22,1.66-3.36,.54-1.13,1.07-2.31,1.56-3.46s1.01-2.28,1.45-3.43c.44-1.16,.84-2.33,1.23-3.51,.39-1.17,.76-2.36,1.11-3.55,.34-1.19,.67-2.41,.96-3.61,.29-1.2,.51-2.42,.75-3.64,.25-1.22,.47-2.45,.67-3.69,.19-1.24,.36-2.48,.52-3.74,.15-1.26,.29-2.51,.39-3.78s.25-2.58,.31-3.87c.07-1.29,.09-2.59,.09-3.9v-4c-.07-1.26-.16-2.46-.22-3.66-.07-1.19-.09-2.39-.18-3.53-.1-1.15-.2-2.28-.33-3.4-.13-1.12-.27-2.25-.44-3.36-.17-1.12-.27-2.32-.47-3.46-.21-1.14-.43-2.26-.69-3.43-.5-2.35-1.17-4.79-1.86-7.41-.59-2.22-1.18-4.38-1.86-6.57-.68-2.19-1.49-4.37-2.28-6.56s-1.46-4.43-2.36-6.65c-.9-2.21-1.86-4.44-2.88-6.7-1.03-2.26-2.13-4.55-3.29-6.88-1.16-2.33-2.39-4.7-3.7-7.13-1.31-2.43-2.78-4.89-4.25-7.45-1.47-2.55-3.03-5.17-4.67-7.87-2.19-3.6-4.12-6.86-5.87-9.91-.87-1.53-1.75-2.97-2.54-4.41-.78-1.44-1.57-2.86-2.28-4.23-.71-1.38-1.36-2.72-2.02-4.07-.66-1.35-1.31-2.71-1.93-4.06-.62-1.36-1.23-2.7-1.82-4.1-.59-1.39-1.1-2.85-1.69-4.31-.59-1.46-1.15-2.91-1.69-4.36-.54-1.45-1.05-2.88-1.53-4.32-.48-1.44-1.02-2.86-1.46-4.29-.43-1.43-.84-2.86-1.22-4.29-.39-1.42-.66-2.85-.99-4.26-.33-1.41-.62-2.8-.9-4.2-.27-1.4-.54-2.8-.76-4.19-.22-1.39-.48-2.77-.65-4.14-.17-1.38-.31-2.75-.43-4.11-.11-1.36-.19-2.69-.26-4.04-.07-1.35-.09-2.74-.09-4.08,0-1.34,.07-2.57,.12-3.89,.07-1.32,.13-2.7,.23-4,.1-1.3,.18-2.56,.33-3.84,.15-1.29,.28-2.6,.48-3.87,.2-1.27,.43-2.53,.69-3.78,.2-.98,.42-1.96,.66-2.94s.44-1.95,.71-2.91,.55-1.93,.86-2.89c.3-.96,.61-1.89,.95-2.84,.33-.95,.69-1.92,1.05-2.86,.37-.94,.75-1.88,1.16-2.81,.4-.93,.82-1.85,1.26-2.77,.43-.93,.86-1.85,1.33-2.76,.93-1.83,1.95-3.66,3.01-5.45,1.06-1.8,2.19-3.58,3.39-5.35,1.19-1.76,2.43-3.48,3.75-5.2,1.33-1.72,2.74-3.43,4.2-5.12,1.45-1.69,3-3.29,4.58-4.94,1.58-1.65,3.22-3.27,4.93-4.88,1.71-1.61,3.51-3.2,5.34-4.77,1.84-1.57,3.71-3.17,5.67-4.7,1.96-1.53,3.99-3.04,6.08-4.53,2.09-1.49,4.2-2.98,6.42-4.43,2.21-1.45,4.51-2.82,6.85-4.22,2.34-1.4,4.74-2.79,7.2-4.14,2.1-1.16,4.23-2.34,6.41-3.47,2.18-1.13,4.41-2.24,6.67-3.34,2.26-1.1,4.54-2.18,6.89-3.25,2.34-1.07,4.8-2.14,7.23-3.18,2.43-1.04,4.86-2.06,7.38-3.07,2.52-1.01,5.07-2.01,7.68-2.99,2.61-.99,5.23-1.96,7.92-2.92,2.7-.96,5.45-1.88,8.23-2.82,2.79-.93,5.65-1.87,8.53-2.77s5.8-1.79,8.79-2.67c2.98-.88,6.03-1.74,9.11-2.6,3.08-.86,6.19-1.71,9.37-2.55,3.18-.83,6.42-1.62,9.7-2.43,3.29-.81,6.63-1.61,10.02-2.4,3.39-.79,6.82-1.61,10.32-2.38s7.06-1.53,10.66-2.27c7.69-1.59,12-2.49,14.2-3.02,1.1-.26,1.81-.42,2-.53,.07,0,0-.14-.08-.15,0,0,.13-.12,.07-.12h-.56l-.09-.06Z" />
    <path
      d="M459.03,2.11c-1.27-1.32-2.34-2.01-3.77-2.1-1.43-.09-3.23,.42-5.95,1.49-6.05,2.38-20.11,7.3-30.6,10.71-9.42,3.07-19.83,6.31-55.05,17.14-21.03,6.47-35.54,11.21-45.56,14.9-6.56,2.41-7.69,2.71-18.62,4.85-60.73,11.91-110.59,30.81-152.52,57.82C72.72,154.75,28.29,227.26,16.85,319.23c-6.25,50.24-2.58,107.55,10.16,158.72,.39,1.55,.8,3.1,1.16,4.66,.35,1.45,.67,2.91,.99,4.37,.16,.72,.35,1.44,.49,2.17,.14,.74,.4,1.48,.38,2.24,0,.24-.04,.49-.18,.68-.16,.22-.41,.34-.66,.45-2.12,.89-4.44,1.45-6.68,1.91-1.31,.26-2.67,.37-3.99,.49-1.8,.17-3.63,.4-5.44,.31-1.67-.08-3.29-.41-4.91-.82-1.09-.28-4.78-3.5-5.88-3.25-.77,.18-1.67,.29-2.21,.94-.51,.61,1.94,1.43,2.29,1.6,2.55,1.21,5.18,2.27,7.93,2.91,4.08,.96,8.24,.96,12.39,.97,8.42,.03,16.71-1.2,24.91-3.19,1.21-.29,2.41-.59,3.61-.89,4.58-1.14,9.11-2.54,13.69-3.69,1.28-.37,2.56-.75,3.84-1.15,10.64-3.31,18.1-6,31.78-11.46,1.34-.54,1.36-.53,2.68,.57,10.93,9.12,20.87,14.47,34.09,18.37,6.78,2,16.64,3.71,24.17,4.19,4.21,.27,13.24,.21,17.72-.11,47.78-3.46,102.69-29.91,164.81-79.4,9.33-7.43,14.67-12.09,21.75-18.97,16.42-15.97,31.28-34.8,44.11-55.9,37.69-61.94,59.73-144.7,62.94-236.24,1.73-49.42-4.47-97.87-13.77-107.59ZM99.18,473.88c-17.44,7.47-39.9,14.57-58.38,18.48-5.95,1.26-5.72,1.31-6.61-1.5-2.4-7.57-6.22-23.6-8.54-35.82-14.97-78.82-9.54-155.25,15.36-216.19,11.09-27.15,26.15-52.21,44.17-73.49,11.53-13.62,26.53-28.03,40.85-39.25,52.78-41.35,123.97-68.1,212.66-79.93,11.7-1.56,17.5-2.18,19.03-2.06h0c1.66,.14-.26,.61-15.63,3.79-57.74,11.96-101.3,26.51-134.98,45.09-39.38,21.73-62.97,49.11-69.42,80.58-4.11,20.05-1.36,42.4,8.06,65.73,4.72,11.69,9.38,20.69,18.14,35.09,13.15,21.59,20.64,38.11,25.32,55.83,2.77,10.5,3.91,18.13,4.19,28.22,.6,21.35-4.78,40.02-16.55,57.42-15.64,23.12-41.74,42.61-77.68,58Zm97.09-126.81c-2.58-18.32-8.24-35.45-18.04-54.62-3.69-7.21-6.77-12.61-12.97-22.75-5.24-8.57-11.68-20.9-14.83-28.36-4.42-10.49-7.91-22.01-9.49-31.33-5.46-32.33,3.79-60.38,27.87-84.51,5.95-5.97,10.96-10.22,18.52-15.76,17.55-12.83,40.98-24.67,68.7-34.72,3.41-1.24,6.37-2.25,6.58-2.25,1.03,0-.02,1.21-3.91,4.33-5.12,4.13-13.18,12.08-16.92,16.68-19.8,24.35-24.31,52.3-14.39,89.24,4.02,14.98,9.31,28.89,23.22,61.12,7.97,18.45,12.09,28.49,15.45,37.63,13.8,37.51,16.07,64.28,7.54,88.75-4.18,11.97-12.35,23.22-24.68,33.98-23.2,20.24-57.97,37.95-107.15,54.59-11.99,4.06-12.38,3.94-4.39-1.27,10.86-7.09,18.36-13.04,26.41-20.93,18.49-18.12,29.11-38.3,32.46-61.64,.91-6.22,.9-21.8,0-28.18Zm255-110.8c-16.17,61.38-41.85,112.35-75.67,150.19-10.49,11.74-20.1,20.69-34.39,32.08-57.85,46.06-109.41,71.86-154.91,77.51h0c-5.67,.71-20.07,1.18-25,.82-20.27-1.47-38.97-8.26-52.46-19.04-1.47-1.18-2.68-2.29-2.68-2.48,0-.75,7.62-3.89,13.96-5.75,10.39-3.05,29.01-9.2,39.16-12.92,50.46-18.53,86.29-39.93,104.95-62.69,9.62-11.73,15.26-25.47,17.4-42.36,.66-5.19,.57-18.23-.17-24.33-1.54-12.78-4.68-25.75-9.85-40.61-4.1-11.78-7.73-20.78-18.35-45.44-11-25.55-14.69-34.8-18.68-46.81-8.15-24.55-10.52-44.32-7.39-61.55,4.37-23.98,19.39-44.22,46.13-62.17,3.25-2.18,4.32-2.69,8.23-3.88,21.08-6.44,45.3-12.19,81.89-19.42,17.99-3.56,26.25-5.39,27.71-6.16,.79-.42,.83-.71,.31-2.53-.45-1.57,.13-1.53-9.65-.78-13.28,1.01-29.41,2.64-39.73,4.03-5.69,.76-7.87,.87-7.34,.37,.47-.44,16.55-5.58,38.47-12.29,40.7-12.46,56.2-17.48,71.04-23,4.94-1.84,9.47-3.41,10.08-3.5h0c.91-.13,1.28,0,2.08,.97,5.25,6.1,9.82,27.09,11.84,54.42,4.09,55.23-2.24,121.18-17.02,177.31Z" />
  </g>
</svg>