<svg width="341" height="341" viewBox="0 0 341 341" fill="none" xmlns="http://www.w3.org/2000/svg">
<g clip-path="url(#clip0_2_2)">
<rect width="341" height="341" fill="white"/>
<g filter="url(#filter0_d_2_2)">
<path d="M238.978 149.317C259.471 149.317 276.084 133.95 276.084 114.993C276.084 96.0362 259.471 80.6688 238.978 80.6688C218.485 80.6688 201.873 96.0362 201.873 114.993C201.873 133.95 218.485 149.317 238.978 149.317Z" fill="#E98C00"/>
</g>
<path d="M340.761 140.585C340.843 140.571 340.905 140.518 341 140.531C340.958 140.383 340.904 140.238 340.837 140.097C340.719 140.246 340.599 140.398 340.493 140.531L340.761 140.585Z" fill="white"/>
<g filter="url(#filter1_d_2_2)">
<path d="M91.8874 196.231C92.1041 203.72 93.4602 211.143 95.9156 218.282C95.9717 218.447 96.0305 218.611 96.0893 218.776H111.122C111.106 218.628 111.09 218.462 111.074 218.282C110.071 207.622 104.293 142.747 111.202 131.653C110.598 132.553 90.722 162.362 91.8874 196.231Z" fill="#E6E6E6"/>
</g>
<g filter="url(#filter2_d_2_2)">
<path d="M93.0154 218.282C93.141 218.447 93.272 218.613 93.4056 218.776H104.683C104.597 218.635 104.498 218.47 104.383 218.282C102.52 215.171 97.0061 205.872 91.8874 196.231C86.3865 185.871 81.34 175.118 81.765 171.226C81.634 172.104 77.8278 198.862 93.0154 218.282Z" fill="#E6E6E6"/>
</g>
<g filter="url(#filter3_d_2_2)">
<path d="M210.201 220.065C210.012 226.594 208.829 233.065 206.689 239.289C206.64 239.433 206.589 239.575 206.537 239.72H193.432C193.446 239.59 193.46 239.446 193.474 239.289C194.347 229.996 199.386 173.437 193.362 163.764C193.888 164.549 211.217 190.537 210.201 220.065Z" fill="#E6E6E6"/>
</g>
<path d="M209.217 239.289C209.108 239.433 208.993 239.578 208.877 239.72H199.045C199.12 239.597 199.206 239.452 199.306 239.289C200.931 236.577 205.738 228.47 210.201 220.065C214.996 211.033 219.396 201.658 219.025 198.265C219.14 199.03 222.458 222.358 209.217 239.289Z" fill="#E6E6E6"/>
<g filter="url(#filter4_d_2_2)">
<path d="M60.3533 27.8603L66.465 23.3385C61.7171 22.854 59.7663 25.2493 58.9679 27.1452C55.2586 25.7204 51.2206 27.5876 51.2206 27.5876L63.449 31.6942C62.8321 30.1699 61.7582 28.84 60.3533 27.8603V27.8603Z" fill="#3F3D56"/>
</g>
<g filter="url(#filter5_d_2_2)">
<path d="M244.433 4.58509L250.545 0.0633254C245.797 -0.421231 243.846 1.97407 243.047 3.86996C239.338 2.4452 235.3 4.31242 235.3 4.31242L247.529 8.41897C246.912 6.89475 245.838 5.56482 244.433 4.58509V4.58509Z" fill="#3F3D56"/>
</g>
<g filter="url(#filter6_d_2_2)">
<path d="M334.356 183.399C334.356 187.146 334.214 190.862 333.932 194.547C331.755 223.623 320.857 251.562 302.46 275.223C300.056 278.327 297.532 281.344 294.888 284.273C288.036 291.875 280.428 298.866 272.164 305.153L235.942 285.492L214.285 238.734C214.285 238.734 246.598 178.212 334.298 179.309C334.335 180.668 334.354 182.031 334.356 183.399Z" fill="#3F3D56"/>
</g>
<path d="M333.932 194.547C332.266 216.275 325.749 237.447 314.793 256.728C303.837 276.009 288.68 292.979 270.278 306.57L236.627 288.305L217.42 246.836C217.42 246.836 248.542 188.548 333.932 194.547Z" fill="#58CF0F"/>
<g filter="url(#filter7_d_2_2)">
<path d="M302.46 275.223C300.056 278.327 297.532 281.344 294.888 284.273C277.168 303.967 254.527 319.369 228.923 329.146C223.739 331.123 218.433 332.867 213.004 334.377C173.809 344.019 132.284 341.58 94.7209 327.43C57.5718 312.092 27.5515 285.004 10.052 251.032C7.70027 246.459 5.58542 241.77 3.70748 236.964C36.4598 214.77 100.998 182.988 171.336 213.87C190.793 222.413 208.167 230.199 223.457 237.23C262.256 255.021 288.078 267.846 302.46 275.223Z" fill="#3F3D56"/>
</g>
<g filter="url(#filter8_d_2_2)">
<path d="M294.888 284.273C276.571 304.58 253.027 320.3 226.423 329.986C199.819 339.672 171.009 343.013 142.643 339.703C114.278 336.393 87.2675 326.537 64.0978 311.042C40.928 295.547 22.3428 274.911 10.052 251.032C37.4057 231.023 100.496 195.065 169.732 225.458C187.537 233.276 203.434 240.401 217.42 246.836C258.195 265.531 283.312 278.235 294.888 284.273Z" fill="#66FF63"/>
</g>
<path d="M246.608 321.261C240.88 324.199 234.976 326.831 228.923 329.146C208.326 336.998 186.261 341.026 163.983 341C137.622 340.99 111.623 335.328 88.0262 324.457C64.4298 313.586 43.8791 297.802 27.9882 278.346C68.679 274.377 181.156 269.026 246.608 321.261Z" fill="#3F3D56"/>
<path d="M228.923 329.146C196.985 341.294 161.812 344.188 128.057 337.445C94.302 330.701 63.5552 314.638 39.8829 291.38C54.6833 289.369 170.882 275.557 228.923 329.146Z" fill="#63FFA1"/>
<g filter="url(#filter9_d_2_2)">
<path d="M305.779 96.0034V96.0082C184.125 12.8038 44.7432 71.3674 43.6666 71.817V71.8122C59.4648 57.2001 78.224 45.6144 98.8698 37.7186C119.516 29.8229 141.642 25.7722 163.983 25.7986C223.127 25.7986 275.232 53.6784 305.779 96.0034Z" fill="#45CCEA"/>
</g>
<g filter="url(#filter10_d_2_2)">
<path d="M53.4241 186.454C74.004 183.022 84.5499 148.751 76.9789 109.907C69.408 71.0635 46.5872 42.357 26.0072 45.7894C5.42727 49.2218 -5.11862 83.4932 2.45232 122.337C10.0233 161.18 32.8441 189.887 53.4241 186.454Z" fill="#3F3D56"/>
</g>
<path d="M58.713 231.819C57.4929 146.499 26.6327 66.4316 26.3213 65.6335L23.5069 66.5726C23.8168 67.3668 54.5077 147.015 55.7214 231.856L58.713 231.819Z" fill="#63FFD0"/>
<path d="M3.96102 106.47L3.04024 109.104L39.9859 120.156L40.9067 117.522L3.96102 106.47Z" fill="#F3FF63"/>
<path d="M73.459 103.503L43.0182 125.804L44.8761 127.974L75.3169 105.673L73.459 103.503Z" fill="#CDFF63"/>
<g filter="url(#filter11_d_2_2)">
<path d="M152.38 174.154C175.009 174.154 193.353 139.531 193.353 96.8207C193.353 54.1106 175.009 19.4873 152.38 19.4873C129.752 19.4873 111.408 54.1106 111.408 96.8207C111.408 139.531 129.752 174.154 152.38 174.154Z" fill="#3F3D56"/>
</g>
<path d="M148.597 223.403C165.007 132.327 148.762 41.5807 148.596 40.6755L145.404 41.1756C145.569 42.0765 161.72 132.346 145.403 222.912L148.597 223.403Z" fill="#5CAFC1"/>
<path d="M116.308 80.1916L114.781 82.8329L151.831 101.165L153.358 98.5236L116.308 80.1916Z" fill="#BAFF63"/>
<path d="M190.934 89.3746L153.888 107.717L155.416 110.358L192.462 92.0155L190.934 89.3746Z" fill="#D6FF63"/>
<g filter="url(#filter12_d_2_2)">
<path d="M330.352 149.278C315.319 141.471 299.613 134.828 283.395 129.419C193.72 99.402 104.797 110.971 69.9908 153.929C97.0779 101.302 193.73 84.7538 291.266 117.4C302.618 121.197 313.728 125.587 324.541 130.55C326.897 136.675 328.838 142.93 330.352 149.278V149.278Z" fill="#77CBFB"/>
</g>
<g filter="url(#filter13_d_2_2)">
<path d="M209.24 64.5911L215.351 60.0693C210.603 59.5848 208.653 61.9801 207.854 63.876C204.145 62.4512 200.107 64.3184 200.107 64.3184L212.335 68.425C211.718 66.9008 210.645 65.5708 209.24 64.5911Z" fill="#3F3D56"/>
</g>
</g>
<defs>
<filter id="filter0_d_2_2" x="197.873" y="80.6688" width="82.2113" height="76.6482" filterUnits="userSpaceOnUse" color-interpolation-filters="sRGB">
<feFlood flood-opacity="0" result="BackgroundImageFix"/>
<feColorMatrix in="SourceAlpha" type="matrix" values="0 0 0 0 0 0 0 0 0 0 0 0 0 0 0 0 0 0 127 0" result="hardAlpha"/>
<feOffset dy="4"/>
<feGaussianBlur stdDeviation="2"/>
<feComposite in2="hardAlpha" operator="out"/>
<feColorMatrix type="matrix" values="0 0 0 0 0 0 0 0 0 0 0 0 0 0 0 0 0 0 0.25 0"/>
<feBlend mode="normal" in2="BackgroundImageFix" result="effect1_dropShadow_2_2"/>
<feBlend mode="normal" in="SourceGraphic" in2="effect1_dropShadow_2_2" result="shape"/>
</filter>
<filter id="filter1_d_2_2" x="87.8381" y="131.653" width="27.3639" height="95.1232" filterUnits="userSpaceOnUse" color-interpolation-filters="sRGB">
<feFlood flood-opacity="0" result="BackgroundImageFix"/>
<feColorMatrix in="SourceAlpha" type="matrix" values="0 0 0 0 0 0 0 0 0 0 0 0 0 0 0 0 0 0 127 0" result="hardAlpha"/>
<feOffset dy="4"/>
<feGaussianBlur stdDeviation="2"/>
<feComposite in2="hardAlpha" operator="out"/>
<feColorMatrix type="matrix" values="0 0 0 0 0 0 0 0 0 0 0 0 0 0 0 0 0 0 0.25 0"/>
<feBlend mode="normal" in2="BackgroundImageFix" result="effect1_dropShadow_2_2"/>
<feBlend mode="normal" in="SourceGraphic" in2="effect1_dropShadow_2_2" result="shape"/>
</filter>
<filter id="filter2_d_2_2" x="77.2478" y="171.226" width="31.435" height="55.5499" filterUnits="userSpaceOnUse" color-interpolation-filters="sRGB">
<feFlood flood-opacity="0" result="BackgroundImageFix"/>
<feColorMatrix in="SourceAlpha" type="matrix" values="0 0 0 0 0 0 0 0 0 0 0 0 0 0 0 0 0 0 127 0" result="hardAlpha"/>
<feOffset dy="4"/>
<feGaussianBlur stdDeviation="2"/>
<feComposite in2="hardAlpha" operator="out"/>
<feColorMatrix type="matrix" values="0 0 0 0 0 0 0 0 0 0 0 0 0 0 0 0 0 0 0.25 0"/>
<feBlend mode="normal" in2="BackgroundImageFix" result="effect1_dropShadow_2_2"/>
<feBlend mode="normal" in="SourceGraphic" in2="effect1_dropShadow_2_2" result="shape"/>
</filter>
<filter id="filter3_d_2_2" x="189.362" y="163.764" width="24.8818" height="83.9554" filterUnits="userSpaceOnUse" color-interpolation-filters="sRGB">
<feFlood flood-opacity="0" result="BackgroundImageFix"/>
<feColorMatrix in="SourceAlpha" type="matrix" values="0 0 0 0 0 0 0 0 0 0 0 0 0 0 0 0 0 0 127 0" result="hardAlpha"/>
<feOffset dy="4"/>
<feGaussianBlur stdDeviation="2"/>
<feComposite in2="hardAlpha" operator="out"/>
<feColorMatrix type="matrix" values="0 0 0 0 0 0 0 0 0 0 0 0 0 0 0 0 0 0 0.25 0"/>
<feBlend mode="normal" in2="BackgroundImageFix" result="effect1_dropShadow_2_2"/>
<feBlend mode="normal" in="SourceGraphic" in2="effect1_dropShadow_2_2" result="shape"/>
</filter>
<filter id="filter4_d_2_2" x="47.2206" y="23.2752" width="23.2444" height="16.419" filterUnits="userSpaceOnUse" color-interpolation-filters="sRGB">
<feFlood flood-opacity="0" result="BackgroundImageFix"/>
<feColorMatrix in="SourceAlpha" type="matrix" values="0 0 0 0 0 0 0 0 0 0 0 0 0 0 0 0 0 0 127 0" result="hardAlpha"/>
<feOffset dy="4"/>
<feGaussianBlur stdDeviation="2"/>
<feComposite in2="hardAlpha" operator="out"/>
<feColorMatrix type="matrix" values="0 0 0 0 0 0 0 0 0 0 0 0 0 0 0 0 0 0 0.25 0"/>
<feBlend mode="normal" in2="BackgroundImageFix" result="effect1_dropShadow_2_2"/>
<feBlend mode="normal" in="SourceGraphic" in2="effect1_dropShadow_2_2" result="shape"/>
</filter>
<filter id="filter5_d_2_2" x="231.3" y="0" width="23.2444" height="16.419" filterUnits="userSpaceOnUse" color-interpolation-filters="sRGB">
<feFlood flood-opacity="0" result="BackgroundImageFix"/>
<feColorMatrix in="SourceAlpha" type="matrix" values="0 0 0 0 0 0 0 0 0 0 0 0 0 0 0 0 0 0 127 0" result="hardAlpha"/>
<feOffset dy="4"/>
<feGaussianBlur stdDeviation="2"/>
<feComposite in2="hardAlpha" operator="out"/>
<feColorMatrix type="matrix" values="0 0 0 0 0 0 0 0 0 0 0 0 0 0 0 0 0 0 0.25 0"/>
<feBlend mode="normal" in2="BackgroundImageFix" result="effect1_dropShadow_2_2"/>
<feBlend mode="normal" in="SourceGraphic" in2="effect1_dropShadow_2_2" result="shape"/>
</filter>
<filter id="filter6_d_2_2" x="210.285" y="179.295" width="128.071" height="133.858" filterUnits="userSpaceOnUse" color-interpolation-filters="sRGB">
<feFlood flood-opacity="0" result="BackgroundImageFix"/>
<feColorMatrix in="SourceAlpha" type="matrix" values="0 0 0 0 0 0 0 0 0 0 0 0 0 0 0 0 0 0 127 0" result="hardAlpha"/>
<feOffset dy="4"/>
<feGaussianBlur stdDeviation="2"/>
<feComposite in2="hardAlpha" operator="out"/>
<feColorMatrix type="matrix" values="0 0 0 0 0 0 0 0 0 0 0 0 0 0 0 0 0 0 0.25 0"/>
<feBlend mode="normal" in2="BackgroundImageFix" result="effect1_dropShadow_2_2"/>
<feBlend mode="normal" in="SourceGraphic" in2="effect1_dropShadow_2_2" result="shape"/>
</filter>
<filter id="filter7_d_2_2" x="-0.292519" y="201.044" width="306.753" height="147.128" filterUnits="userSpaceOnUse" color-interpolation-filters="sRGB">
<feFlood flood-opacity="0" result="BackgroundImageFix"/>
<feColorMatrix in="SourceAlpha" type="matrix" values="0 0 0 0 0 0 0 0 0 0 0 0 0 0 0 0 0 0 127 0" result="hardAlpha"/>
<feOffset dy="4"/>
<feGaussianBlur stdDeviation="2"/>
<feComposite in2="hardAlpha" operator="out"/>
<feColorMatrix type="matrix" values="0 0 0 0 0 0 0 0 0 0 0 0 0 0 0 0 0 0 0.25 0"/>
<feBlend mode="normal" in2="BackgroundImageFix" result="effect1_dropShadow_2_2"/>
<feBlend mode="normal" in="SourceGraphic" in2="effect1_dropShadow_2_2" result="shape"/>
</filter>
<filter id="filter8_d_2_2" x="6.05203" y="213.725" width="292.836" height="135.218" filterUnits="userSpaceOnUse" color-interpolation-filters="sRGB">
<feFlood flood-opacity="0" result="BackgroundImageFix"/>
<feColorMatrix in="SourceAlpha" type="matrix" values="0 0 0 0 0 0 0 0 0 0 0 0 0 0 0 0 0 0 127 0" result="hardAlpha"/>
<feOffset dy="4"/>
<feGaussianBlur stdDeviation="2"/>
<feComposite in2="hardAlpha" operator="out"/>
<feColorMatrix type="matrix" values="0 0 0 0 0 0 0 0 0 0 0 0 0 0 0 0 0 0 0.25 0"/>
<feBlend mode="normal" in2="BackgroundImageFix" result="effect1_dropShadow_2_2"/>
<feBlend mode="normal" in="SourceGraphic" in2="effect1_dropShadow_2_2" result="shape"/>
</filter>
<filter id="filter9_d_2_2" x="39.6666" y="25.7985" width="270.112" height="78.2098" filterUnits="userSpaceOnUse" color-interpolation-filters="sRGB">
<feFlood flood-opacity="0" result="BackgroundImageFix"/>
<feColorMatrix in="SourceAlpha" type="matrix" values="0 0 0 0 0 0 0 0 0 0 0 0 0 0 0 0 0 0 127 0" result="hardAlpha"/>
<feOffset dy="4"/>
<feGaussianBlur stdDeviation="2"/>
<feComposite in2="hardAlpha" operator="out"/>
<feColorMatrix type="matrix" values="0 0 0 0 0 0 0 0 0 0 0 0 0 0 0 0 0 0 0.25 0"/>
<feBlend mode="normal" in2="BackgroundImageFix" result="effect1_dropShadow_2_2"/>
<feBlend mode="normal" in="SourceGraphic" in2="effect1_dropShadow_2_2" result="shape"/>
</filter>
<filter id="filter10_d_2_2" x="-4.00001" y="45.511" width="87.4313" height="149.222" filterUnits="userSpaceOnUse" color-interpolation-filters="sRGB">
<feFlood flood-opacity="0" result="BackgroundImageFix"/>
<feColorMatrix in="SourceAlpha" type="matrix" values="0 0 0 0 0 0 0 0 0 0 0 0 0 0 0 0 0 0 127 0" result="hardAlpha"/>
<feOffset dy="4"/>
<feGaussianBlur stdDeviation="2"/>
<feComposite in2="hardAlpha" operator="out"/>
<feColorMatrix type="matrix" values="0 0 0 0 0 0 0 0 0 0 0 0 0 0 0 0 0 0 0.25 0"/>
<feBlend mode="normal" in2="BackgroundImageFix" result="effect1_dropShadow_2_2"/>
<feBlend mode="normal" in="SourceGraphic" in2="effect1_dropShadow_2_2" result="shape"/>
</filter>
<filter id="filter11_d_2_2" x="107.408" y="19.4873" width="89.945" height="162.667" filterUnits="userSpaceOnUse" color-interpolation-filters="sRGB">
<feFlood flood-opacity="0" result="BackgroundImageFix"/>
<feColorMatrix in="SourceAlpha" type="matrix" values="0 0 0 0 0 0 0 0 0 0 0 0 0 0 0 0 0 0 127 0" result="hardAlpha"/>
<feOffset dy="4"/>
<feGaussianBlur stdDeviation="2"/>
<feComposite in2="hardAlpha" operator="out"/>
<feColorMatrix type="matrix" values="0 0 0 0 0 0 0 0 0 0 0 0 0 0 0 0 0 0 0.25 0"/>
<feBlend mode="normal" in2="BackgroundImageFix" result="effect1_dropShadow_2_2"/>
<feBlend mode="normal" in="SourceGraphic" in2="effect1_dropShadow_2_2" result="shape"/>
</filter>
<filter id="filter12_d_2_2" x="65.9908" y="100.638" width="268.362" height="61.2913" filterUnits="userSpaceOnUse" color-interpolation-filters="sRGB">
<feFlood flood-opacity="0" result="BackgroundImageFix"/>
<feColorMatrix in="SourceAlpha" type="matrix" values="0 0 0 0 0 0 0 0 0 0 0 0 0 0 0 0 0 0 127 0" result="hardAlpha"/>
<feOffset dy="4"/>
<feGaussianBlur stdDeviation="2"/>
<feComposite in2="hardAlpha" operator="out"/>
<feColorMatrix type="matrix" values="0 0 0 0 0 0 0 0 0 0 0 0 0 0 0 0 0 0 0.25 0"/>
<feBlend mode="normal" in2="BackgroundImageFix" result="effect1_dropShadow_2_2"/>
<feBlend mode="normal" in="SourceGraphic" in2="effect1_dropShadow_2_2" result="shape"/>
</filter>
<filter id="filter13_d_2_2" x="196.107" y="60.006" width="23.2444" height="16.419" filterUnits="userSpaceOnUse" color-interpolation-filters="sRGB">
<feFlood flood-opacity="0" result="BackgroundImageFix"/>
<feColorMatrix in="SourceAlpha" type="matrix" values="0 0 0 0 0 0 0 0 0 0 0 0 0 0 0 0 0 0 127 0" result="hardAlpha"/>
<feOffset dy="4"/>
<feGaussianBlur stdDeviation="2"/>
<feComposite in2="hardAlpha" operator="out"/>
<feColorMatrix type="matrix" values="0 0 0 0 0 0 0 0 0 0 0 0 0 0 0 0 0 0 0.25 0"/>
<feBlend mode="normal" in2="BackgroundImageFix" result="effect1_dropShadow_2_2"/>
<feBlend mode="normal" in="SourceGraphic" in2="effect1_dropShadow_2_2" result="shape"/>
</filter>
<clipPath id="clip0_2_2">
<rect width="341" height="341" fill="white"/>
</clipPath>
</defs>
</svg>
