<?xml version="1.0" encoding="UTF-8" standalone="no"?>
<!-- Created with Inkscape (http://www.inkscape.org/) -->

<svg
   width="84.630371mm"
   height="100.60278mm"
   viewBox="0 0 84.630371 100.60278"
   version="1.1"
   id="svg3298"
   inkscape:version="1.2 (dc2aedaf03, 2022-05-15)"
   sodipodi:docname="skin-health.svg"
   xml:space="preserve"
   xmlns:inkscape="http://www.inkscape.org/namespaces/inkscape"
   xmlns:sodipodi="http://sodipodi.sourceforge.net/DTD/sodipodi-0.dtd"
   xmlns="http://www.w3.org/2000/svg"
   xmlns:svg="http://www.w3.org/2000/svg"><sodipodi:namedview
     id="namedview3300"
     pagecolor="#505050"
     bordercolor="#ffffff"
     borderopacity="1"
     inkscape:pageshadow="0"
     inkscape:pageopacity="0"
     inkscape:pagecheckerboard="1"
     inkscape:document-units="mm"
     showgrid="false"
     inkscape:zoom="0.82482258"
     inkscape:cx="-95.171982"
     inkscape:cy="340.07313"
     inkscape:window-width="1920"
     inkscape:window-height="1051"
     inkscape:window-x="-9"
     inkscape:window-y="-9"
     inkscape:window-maximized="1"
     inkscape:current-layer="layer1"
     showguides="true"
     inkscape:guide-bbox="true"
     inkscape:snap-global="false"
     inkscape:snap-bbox="true"
     inkscape:snap-bbox-edge-midpoints="false"
     inkscape:showpageshadow="2"
     inkscape:deskcolor="#505050"><sodipodi:guide
       position="3398.1568,-1496.4666"
       orientation="1,0"
       id="guide34946"
       inkscape:locked="false" /></sodipodi:namedview><defs
     id="defs3295" /><g
     inkscape:label="Layer 1"
     inkscape:groupmode="layer"
     id="layer1"
     transform="translate(1589.3006,-2009.5849)"><path
       style="fill:#008080;fill-opacity:1;stroke:none;stroke-width:3.84867;stroke-dasharray:none;stroke-opacity:1"
       d="m -1521.2146,2056.7893 c 0,0 -0.7874,-12.5972 -11.2192,-17.3209 -10.4318,-4.7238 -17.3208,-6.6924 -25.5876,-4.9209 -8.2667,1.7715 -16.9272,4.7242 -19.8797,10.6287 -2.9523,5.905 -2.9523,17.1243 -2.9523,17.1243 0,0 -6.6921,-9.8416 -6.6921,-11.8098 0,-1.9681 0.1967,-11.6127 1.5746,-14.959 1.3778,-3.346 6.6921,-13.3843 12.7938,-17.3207 6.1016,-3.9367 19.8795,-8.0701 25.3907,-7.2827 5.5111,0.7875 14.3685,3.346 20.6669,8.4636 6.2985,5.1175 11.4161,14.3687 12.2033,19.6827 0.7874,5.3147 0.3936,16.9273 -0.5905,18.5018 -0.9841,1.5749 -3.9365,3.543 -3.9365,3.543 z"
       id="path94965" /><path
       style="fill:#fcee31;fill-opacity:1;stroke:#000000;stroke-width:2.90603;stroke-dasharray:none;stroke-opacity:1"
       d="m -1562.1548,2089.8561 c 0,0 -2.1651,9.2509 -7.0858,12.9909 -4.9207,3.7398 -13.5811,5.5109 -13.5811,5.5109 l 61.2134,-0.1967 c 0,0 -7.8732,-2.7556 -11.2191,-5.9049 -3.3462,-3.1493 -6.889,-12.2032 -6.4954,-13.1872 0.3936,-0.9845 -11.0223,5.3141 -11.0223,5.3141 z"
       id="path95059" /><path
       style="fill:#fcee31;fill-opacity:1;stroke:none;stroke-width:1.46935;stroke-dasharray:none;stroke-opacity:1"
       d="m -1579.2788,2047.1447 c 0,0 7.8731,-11.416 20.8638,-12.0064 12.9905,-0.5908 15.943,-0.5908 21.4542,1.5745 5.5111,2.1652 15.3525,11.4161 16.1398,16.7303 0.7873,5.3144 -1.5746,6.6922 -1.5746,6.6922 0,0 -6.2985,0 -8.6605,1.7716 -2.3618,1.7711 -9.8413,9.2508 -5.5111,15.7462 4.3302,6.4952 4.1334,5.7078 4.1334,5.7078 0,0 -17.1241,11.416 -18.3051,10.8257 -1.1808,-0.5908 -14.1715,-6.2986 -16.7302,-9.448 -2.5588,-3.1492 -10.0382,-11.219 -12.2033,-17.1239 -2.1651,-5.9049 0.3936,-20.47 0.3936,-20.47 z"
       id="path95061" /><path
       style="fill:#73f140;fill-opacity:1;stroke:none;stroke-width:1.46935;stroke-dasharray:none;stroke-opacity:1"
       d="m -1523.3798,2060.529 c 0,0 7.8731,0 9.8415,2.1649 1.9682,2.1652 8.2667,5.5112 7.6762,8.4638 -0.5905,2.9522 -4.7239,13.9747 -6.6921,13.9747 -1.9684,0 -10.2351,3.1492 -12.7938,1.5745 -2.5589,-1.5745 -3.1492,0.197 -6.6922,-3.7398 -3.5429,-3.9363 -5.3144,-4.5267 -5.5111,-7.0857 -0.1969,-2.5588 0.9841,-7.873 0.9841,-7.873 l 5.708,-4.527 z"
       id="path95063" /><path
       id="path95065"
       style="fill:#000000;fill-opacity:1;stroke:#000000;stroke-width:1.46935;stroke-miterlimit:4;stroke-dasharray:none;stroke-opacity:1"
       d="m -1550.6696,2010.3195 c -9.9406,0 -19.2061,3.4067 -26.0876,9.5921 -7.7271,6.9434 -11.8086,16.8245 -11.8086,28.5768 0,4.35 2.8509,12.2647 5.9693,15.0613 0.2984,0.2674 0.5757,0.583 1.0015,0.583 0.1382,0 0.28,-0.023 0.4154,-0.073 v 0 c 0.5528,-0.1967 0.8158,-0.7471 0.5866,-1.2311 -2.9092,-2.5645 -5.8023,-10.2366 -5.8023,-14.3389 0,-24.9289 18.5192,-36.2837 35.7257,-36.2837 9.3523,0 18.0672,3.2041 24.5412,9.0208 7.333,6.5869 11.2059,16.0145 11.2059,27.2629 0,2.8123 -1.2566,7.8999 -2.8244,10.1612 -0.3011,0.4342 0.1824,1.0204 0.7613,1.1572 0.5748,0.1405 1.1774,-0.1593 1.3298,-0.6625 1.7679,-2.2265 2.9038,-7.6751 2.9038,-10.6559 0,-26.226 -19.656,-38.1689 -37.9176,-38.1689 z m 0.3311,22.2657 h -1.453 c -14.5881,0.3252 -30.2879,7.9531 -30.2879,23.9317 0,12.5846 6.9466,24.3266 18.4634,32.2643 -3.0309,13.9263 -8.5092,16.9694 -20.2741,18.8015 -0.5893,0.089 -0.9835,0.5802 -0.8761,1.0926 0.092,0.4585 0.55,0.7774 1.066,0.7774 0.062,0 0.1252,0 0.1907,-0.02 12.2966,-1.9105 18.5121,-5.2334 21.8176,-19.3918 3.2308,2.0228 6.785,3.7586 10.6137,5.149 0.1333,0.047 0.2773,0.071 0.4176,0.071 0.1419,0 0.2817,-0.026 0.4148,-0.071 3.8226,-1.3764 7.387,-3.1012 10.6581,-5.1525 3.2616,14.1584 9.4753,17.4817 21.7794,19.3953 0.065,0 0.1292,0.02 0.19,0.02 0.5163,0 0.9728,-0.3189 1.0668,-0.7774 0.1064,-0.5124 -0.2936,-0.9659 -0.8762,-1.0926 l -0.1104,-0.024 c -11.7717,-1.833 -17.1356,-4.8515 -20.1238,-18.7831 1.2361,-0.8556 3.2609,-2.3866 4.4016,-3.3396 0.4333,-0.3611 0.445,-0.9595 0.031,-1.3333 -0.4197,-0.3791 -1.1076,-0.3888 -1.5323,-0.028 -4.3278,3.6173 -10.2285,7.1377 -15.8948,9.2262 -17.7874,-6.6132 -29.2505,-21.0094 -29.2505,-36.7835 0,-14.7957 14.1475,-21.733 28.1705,-22.0465 14.0793,-0.2689 29.313,7.7939 30.1793,22.4868 0,0.2182 0.019,0.437 0.023,0.6584 0.019,0.2029 0.02,0.4087 0.02,0.6235 0,0.5221 0.4845,0.9437 1.0848,0.9437 0.5993,0 1.0864,-0.4216 1.0864,-0.9437 0,-0.2434 -0.019,-0.4812 -0.024,-0.7098 -0.019,-0.1927 -0.02,-0.3827 -0.024,-0.618 -0.8689,-14.8152 -15.9173,-24.1594 -30.9476,-24.3323 z m 12.7634,15.6192 c -4.1765,0 -7.854,1.6332 -9.5964,4.2637 -0.3,0.4521 -0.1239,1.0294 0.3954,1.2889 0.5174,0.258 1.1802,0.1036 1.4829,-0.3452 1.3591,-2.0501 4.3139,-3.3223 7.7181,-3.3223 3.4043,0 6.3596,1.2722 7.7189,3.3223 v 7e-4 c 0.2011,0.3019 0.5659,0.4725 0.9394,0.4725 0.1843,0 0.3702,-0.04 0.5421,-0.1279 0.5185,-0.2595 0.6962,-0.8368 0.3959,-1.2889 -1.7421,-2.6305 -5.4208,-4.2637 -9.5963,-4.2637 z m -26.1995,0.014 c -4.1631,0 -7.8279,1.6403 -9.563,4.2603 -0.3,0.4531 -0.1239,1.0267 0.3959,1.286 0.1735,0.085 0.3587,0.1266 0.5428,0.1266 0.3759,0 0.7395,-0.1198 0.9394,-0.4196 1.3521,-2.0416 4.2982,-3.2693 7.689,-3.2693 h 0.034 l 7e-4,-7e-4 c 3.409,0 6.3808,1.2216 7.7571,3.2728 0.3052,0.4524 0.9701,0.5775 1.4849,0.3118 0.5162,-0.2629 0.691,-0.8472 0.3884,-1.2993 -1.7631,-2.6284 -5.4514,-4.2686 -9.6304,-4.2686 z m 7.4439,9.8204 c -0.2428,-5e-4 -0.4867,0.07 -0.687,0.2157 -2.8649,2.0445 -7.5502,2.5317 -10.9178,1.1211 -0.5296,-0.2212 -1.1841,-0.028 -1.4466,0.4426 -0.2586,0.4693 -0.031,1.0329 0.5072,1.2595 v 0 c 1.5996,0.6693 3.4151,0.993 5.2442,0.993 2.8953,0 5.8245,-0.8139 7.9889,-2.3611 0.4612,-0.3282 0.5299,-0.9222 0.1496,-1.3257 -0.2154,-0.2277 -0.5264,-0.3459 -0.8385,-0.3466 z m 11.3903,0 c -0.3131,0 -0.6238,0.1145 -0.8385,0.3431 -0.383,0.4015 -0.3212,0.9967 0.1399,1.3291 2.1449,1.5515 5.0589,2.3682 7.9518,2.3682 1.823,0 3.6385,-0.3264 5.2429,-0.998 v 0 c 0.5393,-0.2267 0.7673,-0.7918 0.5087,-1.2589 -0.2612,-0.4711 -0.915,-0.6671 -1.4481,-0.4425 -3.3665,1.4146 -8.0358,0.9248 -10.8664,-1.1211 -0.2019,-0.145 -0.4468,-0.2169 -0.6903,-0.2179 z m 23.0687,1.094 c -9.057,0 -16.4229,6.4657 -16.4229,14.4133 0,7.9664 7.3659,14.4501 16.4229,14.4501 9.0804,0 16.4669,-6.4837 16.4669,-14.4501 0,-7.9476 -7.3865,-14.4133 -16.4669,-14.4133 z m 0,1.8872 c 7.8833,0 14.2979,5.6196 14.2979,12.5261 0,6.9276 -6.4146,12.5643 -14.2979,12.5643 -7.8588,0 -14.2539,-5.6367 -14.2539,-12.5643 0,-6.9065 6.3951,-12.5261 14.2539,-12.5261 z m 2.7279,2.794 c -0.484,0 -0.9267,0.2651 -1.0668,0.6869 -0.1586,0.5042 0.1786,1.0236 0.7551,1.1635 4.0373,0.9774 6.8546,4.2187 6.8546,7.8817 0,0.5207 0.4856,0.9422 1.0848,0.9422 0.6004,0 1.0855,-0.4215 1.0855,-0.9422 0,-4.5069 -3.4709,-8.4961 -8.4417,-9.7001 -0.09,-0.02 -0.1818,-0.031 -0.2715,-0.032 z m -2.7556,3.6201 c -0.599,0 -1.0133,0.4211 -1.0133,0.9429 v 4.2964 h -4.8433 c -0.6004,0 -1.0864,0.3588 -1.0864,0.881 0,0.5209 0.486,0.881 1.0864,0.881 h 4.8433 v 4.3173 c 0,0.5221 0.4143,0.9437 1.0133,0.9437 0.6014,0 1.0139,-0.4216 1.0139,-0.9437 v -4.3173 h 4.9436 c 0.5992,0 1.0848,-0.3601 1.0848,-0.881 0,-0.5222 -0.4856,-0.881 -1.0848,-0.881 h -4.9436 v -4.2964 c 0,-0.5218 -0.4125,-0.9429 -1.0139,-0.9429 z m -35.3951,10.9853 c -0.2083,-0.014 -0.4216,0.038 -0.6138,0.1357 -0.5162,0.2626 -0.6911,0.8523 -0.3897,1.3013 1.4069,2.0859 4.3318,3.3917 7.6359,3.3917 3.3054,0 6.2329,-1.2926 7.6409,-3.3799 0.3027,-0.4489 0.1306,-1.0249 -0.3882,-1.2887 -0.5112,-0.2637 -1.1776,-0.1647 -1.4851,0.2867 -1.0176,1.5111 -3.2284,2.3986 -5.7676,2.3986 -2.5356,0 -4.745,-0.8875 -5.7626,-2.3986 -0.1906,-0.2813 -0.5228,-0.4351 -0.8698,-0.4468 z"
       sodipodi:nodetypes="ssssscccsssssccssssscccsccsscccsssscssccscccsssccsssccssssccssscscscssccssscsssssssssccsscscsssssssssssssccssssssscssscssscssscsssccssccssssccssc" /><path
       style="fill:#008080;fill-opacity:1;stroke:none;stroke-width:3.84867;stroke-dasharray:none;stroke-opacity:1"
       d="m -1517.6803,2108.6639 c -65.5529,0 -65.8312,0 -65.8312,0 66.2488,0 65.8312,0 65.8312,0 z"
       id="path95145" /><path
       style="fill:#008080;fill-opacity:1;stroke:none;stroke-width:3.84867;stroke-dasharray:none;stroke-opacity:1"
       d="M -1518.0979,2108.525 Z"
       id="path95147" /><path
       style="fill:#008080;fill-opacity:1;stroke:#000000;stroke-width:2.90603;stroke-dasharray:none;stroke-opacity:1"
       d="m -1517.8195,2108.7345 c -65.8313,0 -65.8313,0 -65.8313,0"
       id="path95149" /></g></svg>
